<?xml version="1.0" encoding="UTF-8"?>
<svg version="1.1" xmlns="http://www.w3.org/2000/svg" width="500" height="500" viewBox="0 0 500 500">
<path d="M0 0 C165 0 330 0 500 0 C500 165 500 330 500 500 C335 500 170 500 0 500 C0 335 0 170 0 0 Z " fill="#F6F6F6" transform="translate(0,0)"/>
<path d="M0 0 C2.48527576 0.01070401 4.96982425 0.00003953 7.45507812 -0.01269531 C22.33283598 -0.02701373 36.9654465 1.18816339 51.49414062 4.51074219 C52.44820801 4.72400146 53.40227539 4.93726074 54.38525391 5.15698242 C60.98270698 6.67187635 67.50368385 8.40223381 73.99414062 10.32324219 C74.78353027 10.55624023 75.57291992 10.78923828 76.38623047 11.02929688 C81.83625498 12.7067644 86.94421451 14.87896984 92.11914062 17.26074219 C93.53030003 17.88158157 94.94303069 18.49886359 96.35742188 19.11230469 C97.03224609 19.40621094 97.70707031 19.70011719 98.40234375 20.00292969 C99.7744894 20.59985927 101.1468924 21.19619759 102.51953125 21.79199219 C105.76139829 23.20503356 108.979841 24.63056603 112.11914062 26.26074219 C112.11914062 26.92074219 112.11914062 27.58074219 112.11914062 28.26074219 C112.77914063 28.32390625 113.43914062 28.38707031 114.11914062 28.45214844 C118.32649279 29.58616133 121.51301727 31.80063341 125.11914062 34.19824219 C125.86881104 34.69114746 126.61848145 35.18405273 127.39086914 35.69189453 C137.15815922 42.18679431 146.28263601 49.28090513 154.91210938 57.24121094 C156.83396215 58.99979126 158.79561552 60.66893994 160.80664062 62.32324219 C163.89895687 64.95637458 166.50002685 67.85754955 169.11914062 70.95605469 C170.57612271 72.63499888 172.08365473 74.27046789 173.61914062 75.87792969 C180.61099403 83.20745783 186.38247477 90.97705203 191.92919922 99.44628906 C192.94334242 100.99268059 193.97655744 102.52653691 195.01367188 104.05761719 C208.91790539 125.02793659 218.18278618 147.91479766 224.11914062 172.26074219 C224.4259375 173.48019531 224.73273438 174.69964844 225.04882812 175.95605469 C231.52496334 203.6632311 231.56156788 231.57945784 227.48632812 259.63037109 C227.16006011 261.96761285 226.88839749 264.29989788 226.65039062 266.64746094 C225.89921484 273.44415719 224.95759876 279.15422543 220.11914062 284.26074219 C216.45365081 286.86731272 212.81901179 288.04892882 208.25976562 287.86621094 C201.34428602 285.91019025 196.34262015 278.43907551 191.83398438 273.19433594 C180.88095395 260.84410801 163.38619367 252.71709226 147.11914062 250.26074219 C136.88541635 249.76906605 127.20801281 250.49518956 117.11914062 252.26074219 C117.28414063 251.04386719 117.44914062 249.82699219 117.61914062 248.57324219 C119.12801565 234.46082288 118.38593826 223.88144878 109.64257812 212.38964844 C108.11914062 210.26074219 108.11914062 210.26074219 107.11914062 207.26074219 C105.78875614 206.91582769 104.45457001 206.58557636 103.11914062 206.26074219 C101.09993726 204.95667335 99.0998909 203.622508 97.11914062 202.26074219 C90.84262192 198.28561367 82.16689054 199.10348094 74.99414062 199.13574219 C74.12660156 199.131875 73.2590625 199.12800781 72.36523438 199.12402344 C65.66334984 199.05895356 65.66334984 199.05895356 59.11914062 200.26074219 C57.97590056 202.13029985 57.97590056 202.13029985 57.11914062 204.26074219 C54.99023437 205.89355469 54.99023437 205.89355469 52.55664062 207.38574219 C49.24804941 209.27545981 49.24804941 209.27545981 47.11914062 212.26074219 C46.45914062 212.26074219 45.79914063 212.26074219 45.11914062 212.26074219 C44.45914062 214.24074219 43.79914063 216.22074219 43.11914062 218.26074219 C35.66986327 209.98376735 31.23282655 198.05380944 27.43164062 187.69824219 C22.59547364 175.44139793 15.41402258 163.45884753 7.11914062 153.26074219 C6.37277344 152.3390625 5.62640625 151.41738281 4.85742188 150.46777344 C-5.39222908 138.50159479 -18.88983738 128.96118384 -34.88085938 127.26074219 C-43.76040202 126.87152676 -52.25542064 126.96157723 -60.88085938 129.26074219 C-61.78320312 129.47859375 -62.68554688 129.69644531 -63.61523438 129.92089844 C-69.70325612 131.45972161 -75.24456132 133.51177849 -80.88085938 136.26074219 C-82.35619141 136.96070313 -82.35619141 136.96070313 -83.86132812 137.67480469 C-88.95646343 140.14325533 -93.70024402 142.64484028 -98.20898438 146.06933594 C-100.01314976 147.35501454 -101.85668188 148.35696771 -103.81835938 149.38574219 C-110.42097926 152.97097592 -116.47154763 157.4029731 -122.62597656 161.69433594 C-126.52889418 164.4055875 -130.45611925 167.08122626 -134.38085938 169.76074219 C-140.79951254 174.14869677 -147.21019542 178.5479737 -153.61352539 182.95825195 C-157.45785098 185.60321248 -161.31049858 188.23550951 -165.16992188 190.85839844 C-174.76539651 197.38068153 -184.33445896 203.92900299 -193.77905273 210.66870117 C-200.10776775 215.17593118 -204.10076401 216.0927177 -211.88085938 215.26074219 C-215.33744417 213.21500833 -216.65939527 211.59293834 -218.88085938 208.26074219 C-223.97746742 168.72179343 -200.26615047 119.98105958 -176.59960938 89.30371094 C-174.39531064 86.59102641 -172.14311774 83.92517982 -169.88085938 81.26074219 C-169.05457031 80.23851563 -168.22828125 79.21628906 -167.37695312 78.16308594 C-163.15617279 72.94334727 -158.92029181 68.11480911 -153.73632812 63.83105469 C-151.8716607 62.2529572 -150.19861547 60.58307719 -148.50585938 58.82324219 C-144.32384699 54.57362221 -139.75757369 50.69316451 -134.88085938 47.26074219 C-134.22085938 47.26074219 -133.56085938 47.26074219 -132.88085938 47.26074219 C-132.88085938 46.60074219 -132.88085938 45.94074219 -132.88085938 45.26074219 C-130.74804687 43.63183594 -130.74804687 43.63183594 -127.75585938 41.69824219 C-126.65371094 40.98410156 -125.5515625 40.26996094 -124.41601562 39.53417969 C-123.83223145 39.1600293 -123.24844727 38.78587891 -122.64697266 38.40039062 C-120.94194987 37.30016304 -119.25283949 36.1753956 -117.56445312 35.04980469 C-95.82047774 20.59941262 -72.30265349 11.14114304 -46.88085938 5.26074219 C-45.65238281 4.96554688 -44.42390625 4.67035156 -43.15820312 4.36621094 C-28.78895081 1.07764474 -14.68929325 -0.07488659 0 0 Z " fill="#127DA6" transform="translate(244.880859375,27.7392578125)"/>
<path d="M0 0 C3.50022741 1.87906945 5.43132641 3.55831242 6.79296875 7.24609375 C8.26623467 19.73008395 5.35741184 30.5704056 -0.39453125 41.68359375 C-2.378622 45.58335833 -3.29459116 48.98803999 -4.20703125 53.24609375 C-4.86703125 53.24609375 -5.52703125 53.24609375 -6.20703125 53.24609375 C-8.66355452 62.17292385 -10.4247932 74.06993596 -7.2265625 82.9765625 C-6.02604605 84.94540949 -4.78106789 86.56712133 -3.20703125 88.24609375 C-2.60890625 89.00921875 -2.01078125 89.77234375 -1.39453125 90.55859375 C3.93255205 94.66805801 9.76889955 95.85153495 16.421875 95.578125 C23.99604468 94.51749168 28.4138793 88.81719006 33.36328125 83.48828125 C36.63876774 80.46556542 39.35393192 79.42980058 43.73046875 78.87109375 C48.48805184 79.45365494 51.48349121 81.75599862 54.60546875 85.30859375 C58.30550838 91.34550051 57.8335798 99.59234107 56.32861328 106.32275391 C53.94279865 114.75054117 50.32893526 122.4007182 46.04370117 130.02368164 C29.86105816 159.4941701 17.61378739 197.87852906 26.79296875 231.24609375 C27.32804716 232.63199503 27.88604866 234.0095887 28.48046875 235.37109375 C30.86689121 241.20315292 31.16601093 248.58464795 28.94921875 254.49609375 C26.11791894 258.93434751 21.86696941 261.89134399 16.79296875 263.24609375 C-10.21078474 264.57143134 -41.9626303 246.76199092 -63.20703125 231.24609375 C-69.0189139 225.94134214 -69.0189139 225.94134214 -69.33833313 221.36486816 C-69.34181259 220.65858276 -69.34529205 219.95229736 -69.34887695 219.22460938 C-69.35942863 218.0168988 -69.35942863 218.0168988 -69.37019348 216.78479004 C-69.37435776 215.91608276 -69.37852203 215.04737549 -69.3828125 214.15234375 C-69.40603217 212.298166 -69.43015034 210.44399932 -69.45507812 208.58984375 C-69.49000673 205.67831235 -69.51943329 202.76718293 -69.53295898 199.85546875 C-69.60462304 186.94270767 -70.04947476 176.41683327 -77.20703125 165.24609375 C-82.18002151 160.54191377 -87.12784916 158.83124114 -93.984375 158.9765625 C-97.466687 159.39884638 -100.69446085 160.46632105 -104.0078125 161.58984375 C-106.20703125 162.24609375 -106.20703125 162.24609375 -109.20703125 162.24609375 C-109.20703125 162.90609375 -109.20703125 163.56609375 -109.20703125 164.24609375 C-114.64427698 165.98601239 -120.26408447 165.96218344 -125.46533203 163.46411133 C-132.53576919 158.51956255 -136.34422306 149.5828326 -139.83203125 141.99609375 C-140.30640625 140.98337402 -140.78078125 139.9706543 -141.26953125 138.92724609 C-144.5736026 131.80455362 -147.61849254 124.66220255 -150.20703125 117.24609375 C-150.52285156 116.42238281 -150.83867187 115.59867187 -151.1640625 114.75 C-153.1862177 109.27448387 -154.77871162 103.8248984 -152.3046875 98.19140625 C-151.34880804 96.49735653 -150.28599229 94.86453531 -149.20703125 93.24609375 C-148.54703125 93.24609375 -147.88703125 93.24609375 -147.20703125 93.24609375 C-147.20703125 92.58609375 -147.20703125 91.92609375 -147.20703125 91.24609375 C-146.54703125 91.24609375 -145.88703125 91.24609375 -145.20703125 91.24609375 C-145.20703125 90.58609375 -145.20703125 89.92609375 -145.20703125 89.24609375 C-143.63416441 87.83170969 -141.99563129 86.49004974 -140.33203125 85.18359375 C-136.49474598 82.11769617 -132.76687614 79.00071721 -129.14453125 75.68359375 C-124.3279118 71.3110064 -119.34483953 67.23456542 -114.20703125 63.24609375 C-113.61035645 62.78219238 -113.01368164 62.31829102 -112.39892578 61.84033203 C-97.08024112 49.95534212 -81.62051027 38.40954433 -65.02832031 28.35302734 C-62.26227385 26.67189401 -59.51856732 24.95486183 -56.76953125 23.24609375 C-45.94341317 16.61159229 -35.05041319 10.13598339 -23.83203125 4.18359375 C-23.11241211 3.80146729 -22.39279297 3.41934082 -21.65136719 3.02563477 C-14.74496701 -0.5961559 -7.69882837 -2.62986527 0 0 Z " fill="#199795" transform="translate(186.20703125,208.75390625)"/>
<path d="M0 0 C15.36414173 6.96187672 20.95696806 24.82179959 26.6875 39.34375 C27.15349609 40.51357422 27.15349609 40.51357422 27.62890625 41.70703125 C34.70653105 59.69216439 34.70653105 59.69216439 32.6875 66.34375 C28.68985218 73.66202465 22.71669098 79.70791856 17.0703125 85.77734375 C14.99585468 88.01163684 12.98674716 90.28181777 11 92.59375 C-1.36125867 106.72090276 -1.36125867 106.72090276 -8.765625 107.65234375 C-13.75072722 107.77921012 -17.60660344 107.01695767 -22.3125 105.34375 C-26.88494891 104.66635016 -29.56167138 105.15544241 -33.3125 107.71875 C-39.15384752 112.56224736 -42.95245569 118.72212911 -46.46875 125.37109375 C-53.94636746 139.47612276 -53.94636746 139.47612276 -61.3125 142.34375 C-62.3540625 142.80910156 -63.395625 143.27445313 -64.46875 143.75390625 C-68.78418593 145.60231106 -73.22265055 147.02870942 -77.6875 148.46875 C-79.30036877 148.98943992 -80.91239913 149.51273653 -82.5234375 150.0390625 C-83.22774902 150.26609863 -83.93206055 150.49313477 -84.65771484 150.72705078 C-86.32524222 151.21793952 -86.32524222 151.21793952 -87.3125 152.34375 C-92.19897706 153.19015763 -96.53509574 153.33825 -100.9375 150.875 C-107.15111036 145.72424404 -109.83865975 140.39781477 -110.59393311 132.3419342 C-110.70809452 128.86511878 -110.72827072 125.4005345 -110.7109375 121.921875 C-110.71380768 120.62723328 -110.71667786 119.33259155 -110.71963501 117.99871826 C-110.72404223 115.2552209 -110.71770062 112.51201758 -110.70361328 109.76855469 C-110.68685724 106.34792956 -110.69646536 102.92802157 -110.71390915 99.5074234 C-110.77492748 85.44947064 -110.40013307 71.51446744 -109.0390625 57.515625 C-108.93121429 56.34928528 -108.82336609 55.18294556 -108.71224976 53.98126221 C-107.81849349 45.79387364 -106.51755749 37.06854654 -101 30.65625 C-97.33384865 28.86580399 -95.36040123 28.65766505 -91.3125 29.34375 C-84.90634011 32.52110239 -81.36528093 37.85991203 -77.37890625 43.5859375 C-72.50765086 50.08708364 -66.48316206 55.7613499 -58.3125 57.34375 C-51.97395855 58.23621664 -47.30404098 57.67451912 -42.05859375 53.875 C-33.68457212 46.53133897 -31.63026016 35.70443143 -29.8125 25.15625 C-28.12625857 15.43522808 -25.3823827 6.66905757 -17.015625 0.70703125 C-11.80530687 -1.9207159 -5.55176311 -1.57550034 0 0 Z " fill="#199695" transform="translate(400.3125,317.65625)"/>
<path d="M0 0 C1.28970703 0.0009668 1.28970703 0.0009668 2.60546875 0.00195312 C17.27677176 0.10213653 17.27677176 0.10213653 23.375 4.125 C26.70855014 6.31111171 26.70855014 6.31111171 30.234375 8.1484375 C36.55613556 11.62279351 41.12970208 21.30113602 43.375 27.8125 C45.11955838 35.84992968 45.8075335 47.62703327 42.125 55.1875 C39.60335952 56.99514789 37.14662985 57.62672905 34.125 58.1875 C33.361875 58.36667969 32.59875 58.54585938 31.8125 58.73046875 C16.18948993 61.38728878 3.71998677 57.12904305 -9.25390625 48.62890625 C-15.57154203 44.04724691 -20.14371965 38.33905213 -24.875 32.1875 C-25.48988281 31.44886719 -26.10476563 30.71023438 -26.73828125 29.94921875 C-30.11288833 25.80143201 -31.875 22.74698398 -31.875 17.1875 C-30.885 15.7025 -30.885 15.7025 -29.875 14.1875 C-29.215 14.1875 -28.555 14.1875 -27.875 14.1875 C-27.545 13.1975 -27.215 12.2075 -26.875 11.1875 C-24.625 9.43359375 -24.625 9.43359375 -21.875 7.625 C-18.2771198 5.44568907 -18.2771198 5.44568907 -15.875 2.1875 C-10.6322662 -0.19936763 -5.63580454 -0.07955445 0 0 Z " fill="#F39D22" transform="translate(319.875,225.8125)"/>
<path d="M0 0 C4.05523038 2.85709413 7.51585617 6.46921234 9.75 10.9375 C10.30350711 16.85576835 10.35100777 21.98611431 6.75 26.9375 C2.3320569 30.84922045 -1.4304969 33.66107813 -7.4375 34.25 C-12.14648419 33.86401769 -15.47121398 32.79733596 -19.25 29.9375 C-23.73474365 24.43399976 -25.95567783 19.11189127 -25.25 11.9375 C-20.50297381 0.71919147 -11.67324467 -3.81625307 0 0 Z " fill="#1B9695" transform="translate(351.25,330.0625)"/>
<path d="M0 0 C4.33547858 2.83318484 7.59508163 6.41024488 9.25 11.375 C9.67221927 16.8638505 8.96064613 20.56578913 6.25 25.375 C1.60504007 30.15973881 -1.75600733 32.52812704 -8.5 32.6875 C-13.93817205 32.65481868 -16.79140021 32.11367758 -20.75 28.375 C-20.75 27.715 -20.75 27.055 -20.75 26.375 C-21.41 26.375 -22.07 26.375 -22.75 26.375 C-26.06915458 21.11967191 -26.72092133 16.42458673 -25.75 10.375 C-23.99574231 5.63200697 -21.39668743 2.38990521 -17 -0.125 C-11.29653674 -2.53098074 -5.58049549 -2.88103672 0 0 Z " fill="#189796" transform="translate(218.75,249.625)"/>
<path d="M0 0 C2.9375 2.5 2.9375 2.5 5 5 C1.37 4.34 -2.26 3.68 -6 3 C-6 3.66 -6 4.32 -6 5 C-6.639375 5.103125 -7.27875 5.20625 -7.9375 5.3125 C-8.618125 5.539375 -9.29875 5.76625 -10 6 C-10.33 6.99 -10.66 7.98 -11 9 C-10.34 9.33 -9.68 9.66 -9 10 C-9.99 10.33 -10.98 10.66 -12 11 C-12.13277344 12.13179688 -12.26554687 13.26359375 -12.40234375 14.4296875 C-12.5805342 15.91148179 -12.75893029 17.39325136 -12.9375 18.875 C-13.02451172 19.62136719 -13.11152344 20.36773437 -13.20117188 21.13671875 C-13.88671875 26.7734375 -13.88671875 26.7734375 -15 29 C-15.07177733 30.4371616 -15.08392346 31.87761283 -15.0625 33.31640625 C-15.05476563 34.16267578 -15.04703125 35.00894531 -15.0390625 35.88085938 C-15.01972656 37.20827148 -15.01972656 37.20827148 -15 38.5625 C-14.97460128 40.31374182 -14.95353069 42.06505362 -14.9375 43.81640625 C-14.92589844 44.59443604 -14.91429687 45.37246582 -14.90234375 46.17407227 C-15 48 -15 48 -16 49 C-16.08834516 50.68704829 -16.10690289 52.3778041 -16.09765625 54.06713867 C-16.09435303 55.14883835 -16.0910498 56.23053802 -16.08764648 57.34501648 C-16.07934814 58.52409073 -16.0710498 59.70316498 -16.0625 60.91796875 C-16.05871338 62.12310623 -16.05492676 63.32824371 -16.05102539 64.56990051 C-16.03461993 69.747895 -16.00660693 74.92581202 -15.97949219 80.10375977 C-15.96139595 83.87515905 -15.94930321 87.64654536 -15.9375 91.41796875 C-15.92920166 92.58692184 -15.92090332 93.75587494 -15.91235352 94.96025085 C-15.90905029 96.05771133 -15.90574707 97.15517181 -15.90234375 98.28588867 C-15.89710693 99.24661789 -15.89187012 100.20734711 -15.88647461 101.19718933 C-16.00809798 104.19992968 -16.44841115 107.04841685 -17 110 C-18.98432033 106.67944968 -19.25704503 104.15689009 -19.2746582 100.31469727 C-19.28419022 99.16731583 -19.29372223 98.01993439 -19.30354309 96.83778381 C-19.30263168 95.59322922 -19.30172028 94.34867462 -19.30078125 93.06640625 C-19.30506638 91.76468979 -19.3093515 90.46297333 -19.31376648 89.12181091 C-19.32124078 86.34850021 -19.32093822 83.57531656 -19.31567383 80.80200195 C-19.31112419 78.02025832 -19.31763763 75.23896022 -19.33618164 72.45727539 C-19.43397335 57.62537547 -19.17034348 42.9244051 -17.73046875 28.15234375 C-17.62237381 26.9872377 -17.51427887 25.82213165 -17.40290833 24.62171936 C-16.50629807 16.44144152 -15.19995428 7.71886579 -9.6875 1.3125 C-6.11120964 -0.43406041 -3.93281661 -0.63205981 0 0 Z " fill="#3A9793" transform="translate(309,347)"/>
<path d="M0 0 C1.423125 0.2784375 1.423125 0.2784375 2.875 0.5625 C5.89868793 1.28686632 5.89868793 1.28686632 8 0 C7.7525 0.886875 7.505 1.77375 7.25 2.6875 C6.61396606 6.06472711 6.61396606 6.06472711 8.875 8.3125 C11.80363717 12.01636466 11.79932044 15.39440418 12 20 C12.99 20 13.98 20 15 20 C15.33 26.27 15.66 32.54 16 39 C18.69349609 39.07347656 18.69349609 39.07347656 21.44140625 39.1484375 C23.81511884 39.22349561 26.18881603 39.29904211 28.5625 39.375 C29.74392578 39.4059375 30.92535156 39.436875 32.14257812 39.46875 C38.08751275 39.66857974 43.38698477 39.97239097 49 42 C46.68000365 42.77333212 45.2373787 43.05019836 42.8203125 42.5390625 C32.12176313 40.49418741 20.60408747 42.14428469 10 44 C10.165 42.783125 10.33 41.56625 10.5 40.3125 C12.01464266 26.14613631 11.20841397 15.61121862 2.5234375 4.03125 C1 2 1 2 0 0 Z " fill="#2B7F9A" transform="translate(352,236)"/>
<path d="M0 0 C0.99 0.33 1.98 0.66 3 1 C4.1875 4.0625 4.1875 4.0625 5 7 C5.804375 6.979375 6.60875 6.95875 7.4375 6.9375 C10 7 10 7 11 8 C12.32 8 13.64 8 15 8 C15.33 6.35 15.66 4.7 16 3 C19.38018531 1.95994298 22.4780279 1.91995518 26 2 C22.59772219 5.6024118 19.1264848 8.28027138 15 11 C14.67 11.66 14.34 12.32 14 13 C13.34 13 12.68 13 12 13 C11.34 14.98 10.68 16.96 10 19 C5.24306579 13.71451755 1.47115558 7.00011391 0 0 Z " fill="#2D809C" transform="translate(278,227)"/>
<path d="M0 0 C7.30182289 6.67595235 11.57980736 14.03553042 12.18359375 24.04296875 C12.48085066 38.95827124 12.48085066 38.95827124 10 44 C6.92183706 46.13906238 3.73036975 47 0 47 C0 46.34 0 45.68 0 45 C1.134375 44.71125 2.26875 44.4225 3.4375 44.125 C4.613125 43.75375 5.78875 43.3825 7 43 C8.9075399 39.18492021 8.18479782 34.50899221 8.1875 30.3125 C8.19974609 29.33087891 8.21199219 28.34925781 8.22460938 27.33789062 C8.23574511 21.8034307 7.83999342 17.22475744 6 12 C5.690625 11.05125 5.38125 10.1025 5.0625 9.125 C4.711875 8.42375 4.36125 7.7225 4 7 C3.01 6.67 2.02 6.34 1 6 C0.67 4.02 0.34 2.04 0 0 Z " fill="#C7A252" transform="translate(352,237)"/>
<path d="M0 0 C2.05247963 4.10495925 -0.73153356 9.79024237 -2 14 C-2.96887581 16.01526169 -3.9641321 18.01833966 -5 20 C-5.78650636 22.65081773 -6.39464294 25.29917619 -7 28 C-7.66 28 -8.32 28 -9 28 C-10.73295318 34.29742808 -11.19304734 40.37975283 -11.1875 46.875 C-11.18814453 47.61226318 -11.18878906 48.34952637 -11.18945312 49.10913086 C-11.15494696 52.53504405 -11.07135391 55.72594245 -10 59 C-10.99 58.67 -11.98 58.34 -13 58 C-13.71850102 44.1034534 -13.16601018 32.86398071 -7.77832031 20.00830078 C-6.44329185 16.56352533 -5.53524378 13.01382231 -4.625 9.4375 C-4.30789062 8.19871094 -3.99078125 6.95992187 -3.6640625 5.68359375 C-3.44492188 4.79800781 -3.22578125 3.91242188 -3 3 C-2.34 3 -1.68 3 -1 3 C-0.67 2.01 -0.34 1.02 0 0 Z " fill="#2A958F" transform="translate(189,234)"/>
<path d="M0 0 C5.07057633 2.78384583 8.1657459 5.49723769 10 11 C10.12093495 13.28932678 10.17538326 15.58251324 10.1875 17.875 C10.20167969 19.08929688 10.21585938 20.30359375 10.23046875 21.5546875 C10.01047255 24.84344421 9.41715618 27.05365948 8 30 C6.875 26.25 6.875 26.25 8 24 C8.22858114 21.9625237 8.41024278 19.91959697 8.5625 17.875 C8.64628906 16.77929688 8.73007813 15.68359375 8.81640625 14.5546875 C8.90728516 13.29011719 8.90728516 13.29011719 9 12 C8.34 12 7.68 12 7 12 C7 10.35 7 8.7 7 7 C5.68 7 4.36 7 3 7 C3 6.01 3 5.02 3 4 C-2.07524347 3.79284721 -6.2371083 4.16811858 -11 6 C-12.03145371 7.30915279 -13.03542166 8.64082143 -14 10 C-16.6875 10.75 -16.6875 10.75 -19 11 C-9.21625652 -0.90355456 -9.21625652 -0.90355456 0 0 Z " fill="#449D9D" transform="translate(233,288)"/>
<path d="M0 0 C0.96228516 -0.00773438 1.92457031 -0.01546875 2.91601562 -0.0234375 C11.50060686 0.00032607 11.50060686 0.00032607 15.6875 2.25 C12.62898856 3.77925572 10.03259785 2.74719857 6.6875 2.25 C-2.19204265 1.86078457 -10.68706127 1.95083504 -19.3125 4.25 C-20.21484375 4.46785156 -21.1171875 4.68570313 -22.046875 4.91015625 C-28.95658755 6.65667199 -35.24677237 9.09965019 -41.54296875 12.4296875 C-43.43577591 13.42953099 -45.37182013 14.34658006 -47.3125 15.25 C-48.3025 14.92 -49.2925 14.59 -50.3125 14.25 C-49.6525 14.25 -48.9925 14.25 -48.3125 14.25 C-48.3125 12.6 -48.3125 10.95 -48.3125 9.25 C-47.36375 9.415 -46.415 9.58 -45.4375 9.75 C-42.51081099 10.3026635 -42.51081099 10.3026635 -40.3125 10.25 C-40.3125 9.59 -40.3125 8.93 -40.3125 8.25 C-36.8475 7.755 -36.8475 7.755 -33.3125 7.25 C-33.3125 6.26 -33.3125 5.27 -33.3125 4.25 C-32.56226563 4.12882813 -31.81203125 4.00765625 -31.0390625 3.8828125 C-30.01554687 3.71523437 -28.99203125 3.54765625 -27.9375 3.375 C-26.44089844 3.13136719 -26.44089844 3.13136719 -24.9140625 2.8828125 C-22.95752151 2.53903849 -21.0023781 2.17993879 -19.06469727 1.7421875 C-12.64751185 0.3151553 -6.56344377 -0.05383549 0 0 Z " fill="#3E849E" transform="translate(203.3125,152.75)"/>
<path d="M0 0 C2.9375 2.5 2.9375 2.5 5 5 C1.37 4.34 -2.26 3.68 -6 3 C-6 3.66 -6 4.32 -6 5 C-6.639375 5.103125 -7.27875 5.20625 -7.9375 5.3125 C-8.618125 5.539375 -9.29875 5.76625 -10 6 C-10.33 6.99 -10.66 7.98 -11 9 C-10.34 9.33 -9.68 9.66 -9 10 C-9.99 10.33 -10.98 10.66 -12 11 C-12.10957031 12.10859375 -12.21914063 13.2171875 -12.33203125 14.359375 C-12.49152762 15.82298873 -12.65172049 17.28652667 -12.8125 18.75 C-12.88275391 19.47960937 -12.95300781 20.20921875 -13.02539062 20.9609375 C-13.49812196 25.12097328 -14.05788776 27.93697904 -17 31 C-16.45230361 9.17429879 -16.45230361 9.17429879 -9.6875 1.3125 C-6.11120964 -0.43406041 -3.93281661 -0.63205981 0 0 Z " fill="#53A0A1" transform="translate(309,347)"/>
<path d="M0 0 C1.9375 1.09375 1.9375 1.09375 4.875 3.09375 C1.875 4.09375 1.875 4.09375 -0.75 3.09375 C-5.10373717 1.8037538 -8.7442607 1.8982429 -13.125 3.09375 C-15.48131825 5.03091038 -15.48131825 5.03091038 -17.125 7.09375 C-18.115 7.09375 -19.105 7.09375 -20.125 7.09375 C-21.76451198 13.85673691 -21.07915516 20.29539451 -20.125 27.09375 C-24.25319561 21.70914703 -24.97729133 17.87243918 -24.125 11.09375 C-22.39840844 6.3496573 -19.75957072 3.10172445 -15.375 0.59375 C-10.31610527 -1.54032235 -5.14046993 -2.19225923 0 0 Z " fill="#379390" transform="translate(217.125,248.90625)"/>
<path d="M0 0 C8.55375872 1.32670543 16.71396978 3.52382585 25 6 C26.38445312 6.38865234 26.38445312 6.38865234 27.796875 6.78515625 C32.7392895 8.18960012 37.35225933 9.92398437 42.015625 12.08203125 C44.31050549 13.14363935 46.64230313 14.08734315 49 15 C45.68811918 16.12140434 43.92110803 15.87708979 40.6875 14.625 C37.75732433 13.55463831 35.1020396 12.77648577 32 12.4375 C31.01 12.293125 30.02 12.14875 29 12 C28.67 11.34 28.34 10.68 28 10 C25.97536745 9.34786708 25.97536745 9.34786708 24 9 C24 8.34 24 7.68 24 7 C23.0925 6.87625 22.185 6.7525 21.25 6.625 C19.83330886 6.41683314 18.4166466 6.20846973 17 6 C16.02289063 5.8659375 15.04578125 5.731875 14.0390625 5.59375 C12.99492187 5.4390625 11.95078125 5.284375 10.875 5.125 C9.88242187 4.98320313 8.88984375 4.84140625 7.8671875 4.6953125 C4.76878023 3.94392763 2.603547 2.82152922 0 1 C0 0.67 0 0.34 0 0 Z " fill="#3685A1" transform="translate(293,32)"/>
<path d="M0 0 C5.52100602 1.80494428 8.63130553 5.44622735 12 10 C14.22541672 14.45083345 13.47279612 20.52251213 12 25.125 C11.67 25.74375 11.34 26.3625 11 27 C9.71489378 22.7960091 10.01434643 18.81190256 10.16015625 14.4609375 C10.26002384 11.82022838 10.26002384 11.82022838 8 10 C8 9.01 8 8.02 8 7 C7.34 7 6.68 7 6 7 C6 6.34 6 5.68 6 5 C3.03 4.505 3.03 4.505 0 4 C0 3.34 0 2.68 0 2 C-5.94 2.495 -5.94 2.495 -12 3 C-12 3.66 -12 4.32 -12 5 C-12.66 5 -13.32 5 -14 5 C-14 5.66 -14 6.32 -14 7 C-15.32 6.67 -16.64 6.34 -18 6 C-12.27834393 0.62995408 -7.85155136 -1.29537379 0 0 Z " fill="#459596" transform="translate(348,329)"/>
<path d="M0 0 C0.81163605 -0.0033284 1.62327209 -0.0066568 2.45950317 -0.01008606 C4.17221517 -0.01512146 5.88493686 -0.01749544 7.59765625 -0.01733398 C10.15382163 -0.01949615 12.70953711 -0.03762064 15.265625 -0.05664062 C26.41529465 -0.09338358 37.27021424 0.69378708 48.3203125 2.16796875 C48.3203125 2.49796875 48.3203125 2.82796875 48.3203125 3.16796875 C42.5703125 4.29296875 42.5703125 4.29296875 40.3203125 3.16796875 C37.70232478 2.9265767 35.10838573 2.74363244 32.484375 2.609375 C31.68778473 2.56712296 30.89119446 2.52487091 30.07046509 2.4813385 C20.61334796 2.0245209 11.16078719 2.05844305 1.6953125 2.10546875 C-0.10156123 2.11050337 -1.89843635 2.11506275 -3.6953125 2.11914062 C-8.02347313 2.1299688 -12.35156402 2.14712037 -16.6796875 2.16796875 C-16.6796875 1.83796875 -16.6796875 1.50796875 -16.6796875 1.16796875 C-11.07993203 0.3751775 -5.65181038 0.00832689 0 0 Z " fill="#498DA6" transform="translate(236.6796875,27.83203125)"/>
<path d="M0 0 C3.93372285 4.79398174 5.5946766 10.35721877 7.6875 16.125 C8.10322266 17.21554687 8.51894531 18.30609375 8.94726562 19.4296875 C11.39645167 26.15388959 12.62551627 31.84232104 12 39 C11.67 39 11.34 39 11 39 C11 36.03 11 33.06 11 30 C10.01 30 9.02 30 8 30 C5.97788507 26.96682761 5.75859105 26.12800667 5.5625 22.6875 C5.18513808 18.50956443 3.98016666 15.72271332 2 12 C0.71158176 7.96976489 0 4.25777812 0 0 Z " fill="#4C9C99" transform="translate(421,345)"/>
<path d="M0 0 C0.66 0.33 1.32 0.66 2 1 C2 2.98 2 4.96 2 7 C1.01 7.495 1.01 7.495 0 8 C-0.46794323 9.93356663 -0.46794323 9.93356663 -0.6328125 12.25390625 C-0.75849609 13.53491211 -0.75849609 13.53491211 -0.88671875 14.84179688 C-0.96535156 15.73962891 -1.04398437 16.63746094 -1.125 17.5625 C-1.21136719 18.46419922 -1.29773438 19.36589844 -1.38671875 20.29492188 C-1.59951659 22.52929918 -1.80354467 24.76413615 -2 27 C-3.32 26.67 -4.64 26.34 -6 26 C-6.22882412 21.53792957 -5.60580979 17.6852308 -4.5703125 13.3828125 C-4.18173803 11.75931643 -3.82349383 10.12833105 -3.4921875 8.4921875 C-3.24855469 7.28949219 -3.24855469 7.28949219 -3 6.0625 C-2.855625 5.33160156 -2.71125 4.60070312 -2.5625 3.84765625 C-2 2 -2 2 0 0 Z " fill="#21938E" transform="translate(374,333)"/>
<path d="M0 0 C2.46710105 0.96406519 3.77017577 1.6507971 5.24365234 3.88964844 C8.98473197 13.44158218 8.60319754 23.14819416 8.625 33.25 C8.64142616 35.95741758 8.66359118 38.66449783 8.69662476 41.37176514 C8.71602537 43.04456895 8.72561497 44.71752687 8.72354126 46.39044189 C8.76817564 51.29583167 9.4401316 55.34286682 11 60 C10.01 60 9.02 60 8 60 C7.10199461 57.30598384 6.8717721 55.74275194 6.8581543 52.97851562 C6.85111984 52.17337524 6.84408539 51.36823486 6.83683777 50.53869629 C6.83059135 49.23563538 6.83059135 49.23563538 6.82421875 47.90625 C6.80099908 46.05207225 6.77688091 44.19790557 6.75195312 42.34375 C6.71702452 39.4322186 6.68759796 36.52108918 6.67407227 33.609375 C6.74314431 18.346302 6.74314431 18.346302 2 4 C1.44058716 2.87368164 1.44058716 2.87368164 0.86987305 1.72460938 C0.58281494 1.15548828 0.29575684 0.58636719 0 0 Z " fill="#449791" transform="translate(110,375)"/>
<path d="M0 0 C1.423125 0.2784375 1.423125 0.2784375 2.875 0.5625 C5.89868793 1.28686632 5.89868793 1.28686632 8 0 C7.7525 0.886875 7.505 1.77375 7.25 2.6875 C6.92297818 7.02053916 8.31585068 7.70233084 11 11 C13.08937734 17.12171732 13.2845357 23.34564353 13.1875 29.75 C13.18685547 30.57371094 13.18621094 31.39742188 13.18554688 32.24609375 C13.15625764 36.28800752 13.00164172 40.05753817 12 44 C11.34 44 10.68 44 10 44 C10.165 42.783125 10.33 41.56625 10.5 40.3125 C12.01464266 26.14613631 11.20841397 15.61121862 2.5234375 4.03125 C1 2 1 2 0 0 Z " fill="#427875" transform="translate(352,236)"/>
<path d="M0 0 C7.5684883 0.08618361 14.42833433 1.44313855 21.75 3.3125 C21.75 3.9725 21.75 4.6325 21.75 5.3125 C22.348125 5.374375 22.94625 5.43625 23.5625 5.5 C26.62143458 6.6361757 27.30041099 8.48580142 28.75 11.3125 C26.69445735 10.32582807 24.74722086 9.31069878 22.83227539 8.06958008 C16.44107371 4.01076685 10.64609075 3.37315433 3.1875 3 C2.08341797 2.92716797 0.97933594 2.85433594 -0.15820312 2.77929688 C-2.85489248 2.60418718 -5.55113085 2.44905849 -8.25 2.3125 C-5.49146752 -0.44603248 -3.85798304 0.01297528 0 0 Z " fill="#9D9259" transform="translate(322.25,223.6875)"/>
<path d="M0 0 C5.45820016 0.62872939 9.43778259 2.50129448 13.0859375 6.60546875 C13.4159375 7.18296875 13.7459375 7.76046875 14.0859375 8.35546875 C12.1059375 8.35546875 10.1259375 8.35546875 8.0859375 8.35546875 C7.85132813 7.7109375 7.61671875 7.06640625 7.375 6.40234375 C6.27880654 4.15915425 6.27880654 4.15915425 3.984375 3.74609375 C2.73527344 3.67648437 2.73527344 3.67648437 1.4609375 3.60546875 C0.5740625 3.55003906 -0.3128125 3.49460937 -1.2265625 3.4375 C-4.79587638 3.32855292 -8.34331973 3.28934388 -11.9140625 3.35546875 C-8.66145529 -0.82962653 -4.93937136 -0.12557724 0 0 Z " fill="#389492" transform="translate(394.9140625,316.64453125)"/>
<path d="M0 0 C0.33 0 0.66 0 1 0 C0.67 3.63 0.34 7.26 0 11 C-0.66 11 -1.32 11 -2 11 C-1.87625 12.134375 -1.7525 13.26875 -1.625 14.4375 C-1.56478081 20.04792151 -4.67575135 23.72596602 -8 28 C-9 26 -9 26 -8.50268555 23.92456055 C-8.2169165 23.08707275 -7.93114746 22.24958496 -7.63671875 21.38671875 C-7.32669922 20.46826172 -7.01667969 19.54980469 -6.69726562 18.60351562 C-6.36404297 17.64123047 -6.03082031 16.67894531 -5.6875 15.6875 C-5.36587891 14.73681641 -5.04425781 13.78613281 -4.71289062 12.80664062 C-3.24382153 8.4899304 -1.71909878 4.22440817 0 0 Z " fill="#3C89A4" transform="translate(41,165)"/>
<path d="M0 0 C1.28970703 0.0009668 1.28970703 0.0009668 2.60546875 0.00195312 C7.85198831 0.03777913 12.9542851 0.26289608 18.125 1.1875 C18.62 2.1775 18.62 2.1775 19.125 3.1875 C18.56554687 3.1153125 18.00609375 3.043125 17.4296875 2.96875 C12.24818021 2.36896138 7.09039127 2.04823018 1.875 1.9375 C0.73546875 1.91171875 -0.4040625 1.8859375 -1.578125 1.859375 C-5.29431751 2.22923302 -7.61534688 3.42223079 -10.875 5.1875 C-14.75 5.875 -14.75 5.875 -17.875 6.1875 C-17.25 4.3125 -17.25 4.3125 -15.875 2.1875 C-10.62860627 -0.19496044 -5.63875853 -0.07959615 0 0 Z " fill="#CAA04A" transform="translate(319.875,225.8125)"/>
<path d="M0 0 C1.32 0.33 2.64 0.66 4 1 C-2.05790579 6.13605056 -4.89171272 7.33001786 -13 7.30078125 C-17.10866375 6.88884491 -18.95679828 5.7050682 -22 3 C-19.40097021 2.03739637 -18.34494266 1.85148302 -15.75 2.96875 C-12.55032632 4.16862763 -10.09202814 4.19982479 -6.6875 4.125 C-5.61886719 4.10695313 -4.55023438 4.08890625 -3.44921875 4.0703125 C-2.23685547 4.03550781 -2.23685547 4.03550781 -1 4 C-0.67 2.68 -0.34 1.36 0 0 Z " fill="#34948F" transform="translate(220,275)"/>
<path d="M0 0 C0.99 0 1.98 0 3 0 C5.22110396 4.44220792 4.52159432 10.1795514 4 15 C2.68400984 18.09435524 1.40336835 19.54073936 -1 22 C-1.99 22.33 -2.98 22.66 -4 23 C-4 22.01 -4 21.02 -4 20 C-3.01 20 -2.02 20 -1 20 C0.94283598 13.07864683 1.72439115 7.11311348 0 0 Z " fill="#429893" transform="translate(212,446)"/>
<path d="M0 0 C0.99 0.33 1.98 0.66 3 1 C2.41992188 1.64066406 1.83984375 2.28132813 1.2421875 2.94140625 C-3.24094975 7.90540806 -7.67445028 12.89806956 -12 18 C-12.33 17.01 -12.66 16.02 -13 15 C-12.34 15 -11.68 15 -11 15 C-11.04125 14.21625 -11.0825 13.4325 -11.125 12.625 C-11 10 -11 10 -9 8 C-7.68 8 -6.36 8 -5 8 C-4.67 6.35 -4.34 4.7 -4 3 C-3.34 3 -2.68 3 -2 3 C-1.34 2.01 -0.68 1.02 0 0 Z " fill="#3D9996" transform="translate(421,395)"/>
<path d="M0 0 C0.33 0.66 0.66 1.32 1 2 C0.67 2.99 0.34 3.98 0 5 C-0.66 5 -1.32 5 -2 5 C-3.73295318 11.29742808 -4.19304734 17.37975283 -4.1875 23.875 C-4.18814453 24.61226318 -4.18878906 25.34952637 -4.18945312 26.10913086 C-4.15494696 29.53504405 -4.07135391 32.72594245 -3 36 C-3.99 35.67 -4.98 35.34 -6 35 C-6.11783281 31.37528143 -6.18778808 27.75106597 -6.25 24.125 C-6.28351563 23.11179687 -6.31703125 22.09859375 -6.3515625 21.0546875 C-6.44232544 13.97517801 -5.40175024 8.26992329 -2 2 C-1.34 1.34 -0.68 0.68 0 0 Z " fill="#479C98" transform="translate(182,257)"/>
<path d="M0 0 C0.99 0.33 1.98 0.66 3 1 C1.7934375 2.485 1.7934375 2.485 0.5625 4 C-4.36564641 10.52358949 -8.09025742 17.84082691 -12 25 C-12.33 23.68 -12.66 22.36 -13 21 C-12.34 21 -11.68 21 -11 21 C-11 19.02 -11 17.04 -11 15 C-9.68 14.34 -8.36 13.68 -7 13 C-7 12.01 -7 11.02 -7 10 C-6.34 10 -5.68 10 -5 10 C-4.67 8.35 -4.34 6.7 -4 5 C-3.34 5 -2.68 5 -2 5 C-2 4.01 -2 3.02 -2 2 C-1.34 2 -0.68 2 0 2 C0 1.34 0 0.68 0 0 Z " fill="#409795" transform="translate(359,430)"/>
<path d="M0 0 C4.71403788 0.47939368 8.66579301 0.96834048 13 3 C13 3.66 13 4.32 13 5 C14.98 4.67 16.96 4.34 19 4 C19.33 5.32 19.66 6.64 20 8 C21.32 8 22.64 8 24 8 C24 8.66 24 9.32 24 10 C19.57537974 9.30092705 15.57090235 7.79136673 11.4375 6.125 C10.77814453 5.86847656 10.11878906 5.61195313 9.43945312 5.34765625 C5.91336963 3.93722285 2.90111622 2.46557969 0 0 Z " fill="#489B9A" transform="translate(152,456)"/>
<path d="M0 0 C1.11375 0.2475 1.11375 0.2475 2.25 0.5 C5.19006578 1.11925696 5.19006578 1.11925696 9 1 C9.66 1.33 10.32 1.66 11 2 C10.67 3.32 10.34 4.64 10 6 C11.65 6 13.3 6 15 6 C15.66 8.31 16.32 10.62 17 13 C16.52691406 12.63648438 16.05382812 12.27296875 15.56640625 11.8984375 C11.05489665 8.46863488 6.45330548 5.26640099 1.6875 2.19921875 C1.130625 1.80347656 0.57375 1.40773437 0 1 C0 0.67 0 0.34 0 0 Z " fill="#3283A1" transform="translate(229,160)"/>
<path d="M0 0 C0.33 0 0.66 0 1 0 C1.12561335 7.41118744 1.12561335 7.41118744 0.5 10.34375 C-0.1026324 13.54523462 -0.09538333 16.55705018 -0.0625 19.8125 C-0.05347656 20.97394531 -0.04445313 22.13539063 -0.03515625 23.33203125 C-0.02355469 24.21246094 -0.01195313 25.09289062 0 26 C0.99 26.33 1.98 26.66 3 27 C4.1875 30.0625 4.1875 30.0625 5 33 C1.58822602 31.58823146 -0.146961 30.20879352 -2 27 C-2.27148357 24.38149717 -2.37869948 22.04624999 -2.3125 19.4375 C-2.30412109 18.73238281 -2.29574219 18.02726562 -2.28710938 17.30078125 C-2.15314489 11.4063441 -1.36217714 5.74060366 0 0 Z " fill="#38819F" transform="translate(28,209)"/>
<path d="M0 0 C2.97 0 5.94 0 9 0 C5.59772219 3.6024118 2.1264848 6.28027138 -2 9 C-2.33 9.66 -2.66 10.32 -3 11 C-3.66 11 -4.32 11 -5 11 C-4.731875 10.484375 -4.46375 9.96875 -4.1875 9.4375 C-2.67650593 6.33598585 -1.34427274 3.17737194 0 0 Z " fill="#287987" transform="translate(295,229)"/>
<path d="M0 0 C0.99 0.33 1.98 0.66 3 1 C2 3 2 3 -0.375 3.9375 C-3.02114176 4.80074992 -3.02114176 4.80074992 -4.5625 6.625 C-6 8 -6 8 -10 8 C-10.268125 8.639375 -10.53625 9.27875 -10.8125 9.9375 C-12 12 -12 12 -15 13 C-15.33 13.66 -15.66 14.32 -16 15 C-16.99 14.67 -17.98 14.34 -19 14 C-15.29349003 10.03981254 -11.436196 7.04416544 -6.875 4.125 C-6.25496094 3.70992187 -5.63492188 3.29484375 -4.99609375 2.8671875 C-3.38262409 1.82623933 -1.69433798 0.90336939 0 0 Z " fill="#D9ECF4" transform="translate(116,193)"/>
<path d="M0 0 C2.96430761 3.55716913 4.7721925 7.45050932 6.6875 11.625 C7.00783203 12.305625 7.32816406 12.98625 7.65820312 13.6875 C10 18.74058835 10 18.74058835 10 21 C9.34 21 8.68 21 8 21 C8 20.34 8 19.68 8 19 C7.34 19 6.68 19 6 19 C5.67 17.02 5.34 15.04 5 13 C4.34 13 3.68 13 3 13 C3 12.34 3 11.68 3 11 C2.34 10.67 1.68 10.34 1 10 C0.5859375 7.71484375 0.5859375 7.71484375 0.375 4.9375 C0.30023438 4.01839844 0.22546875 3.09929687 0.1484375 2.15234375 C0.09945313 1.44207031 0.05046875 0.73179687 0 0 Z " fill="#3D89A5" transform="translate(448,147)"/>
<path d="M0 0 C0 0.66 0 1.32 0 2 C2.64 2.33 5.28 2.66 8 3 C7.01 4.485 7.01 4.485 6 6 C5.01 5.505 4.02 5.01 3 4.5 C-3.27384791 1.82569311 -8.66139267 2.69505188 -15 5 C-16.32 5 -17.64 5 -19 5 C-19 4.34 -19 3.68 -19 3 C-17.02 3 -15.04 3 -13 3 C-13 2.34 -13 1.68 -13 1 C-11.39796533 0.63631108 -9.79325797 0.28438048 -8.1875 -0.0625 C-7.29417969 -0.25972656 -6.40085937 -0.45695312 -5.48046875 -0.66015625 C-3 -1 -3 -1 0 0 Z " fill="#3E9995" transform="translate(99,365)"/>
<path d="M0 0 C4.42326378 1.35155282 6.40412982 3.19890438 9 7 C10.15243755 10.45731264 10.16824837 13.23259213 10.1875 16.875 C10.20167969 18.08929688 10.21585938 19.30359375 10.23046875 20.5546875 C10.01047255 23.84344421 9.41715618 26.05365948 8 29 C6.875 25.25 6.875 25.25 8 23 C8.22858114 20.9625237 8.41024278 18.91959697 8.5625 16.875 C8.64628906 15.77929688 8.73007813 14.68359375 8.81640625 13.5546875 C8.87699219 12.71164062 8.93757812 11.86859375 9 11 C8.34 11 7.68 11 7 11 C7 9.35 7 7.7 7 6 C5.68 6 4.36 6 3 6 C2.01 4.02 1.02 2.04 0 0 Z " fill="#4C9695" transform="translate(233,289)"/>
<path d="M0 0 C0.66 0.33 1.32 0.66 2 1 C0.51519609 5.30593133 -2.06895927 6.07629922 -6 8 C-6.33 8.99 -6.66 9.98 -7 11 C-8.32 11 -9.64 11 -11 11 C-11.226875 11.804375 -11.45375 12.60875 -11.6875 13.4375 C-12.3371875 14.7059375 -12.3371875 14.7059375 -13 16 C-15.625 16.8125 -15.625 16.8125 -18 17 C-13.3515286 11.12824665 -8.17290719 6.27440516 -2 2 C-1.34 2 -0.68 2 0 2 C0 1.34 0 0.68 0 0 Z " fill="#39859D" transform="translate(112,73)"/>
<path d="M0 0 C0.66 0.33 1.32 0.66 2 1 C1.71125 1.49628906 1.4225 1.99257812 1.125 2.50390625 C-2.89537442 9.86063305 -2.13290842 15.92802748 -1 24 C-4.57926301 19.33139607 -5.38425315 16.55808319 -5.3671875 10.6875 C-4.78020203 6.39126595 -2.62868817 3.36096559 0 0 Z " fill="#56A0A1" transform="translate(198,252)"/>
<path d="M0 0 C0.66 0.33 1.32 0.66 2 1 C0.625 3 0.625 3 -1 5 C-1.66 5 -2.32 5 -3 5 C-3 6.32 -3 7.64 -3 9 C-3.99 9 -4.98 9 -6 9 C-6 10.65 -6 12.3 -6 14 C-5.34 14 -4.68 14 -4 14 C-3.67 15.65 -3.34 17.3 -3 19 C-6.0011414 16.57972468 -6.9392619 15.24729086 -7.875 11.4375 C-8 8 -8 8 -6 5 C-5.34 5 -4.68 5 -4 5 C-3.67 4.01 -3.34 3.02 -3 2 C-2.01 1.34 -1.02 0.68 0 0 Z " fill="#B59C55" transform="translate(296,235)"/>
<path d="M0 0 C-3.47325181 1.1577506 -6.36067448 1.06866652 -10 1 C-10.33 1.99 -10.66 2.98 -11 4 C-13.10149011 4.38971999 -15.2063482 4.76131477 -17.3125 5.125 C-18.48425781 5.33382812 -19.65601563 5.54265625 -20.86328125 5.7578125 C-24 6 -24 6 -27 4 C-24.48025747 3.34964629 -21.95934065 2.70462507 -19.4375 2.0625 C-18.73302734 1.88009766 -18.02855469 1.69769531 -17.30273438 1.50976562 C-4.68773475 -1.68758451 -4.68773475 -1.68758451 0 0 Z " fill="#488FA8" transform="translate(216,31)"/>
<path d="M0 0 C3.14610452 2.87253021 3.91814208 4.93584698 4.25 9.25 C3.9610974 13.58353905 2.89327309 16.13456744 1 20 C0.09761253 17.29283758 -0.11851302 15.76223232 -0.09765625 12.98828125 C-0.09443359 12.23095703 -0.09121094 11.47363281 -0.08789062 10.69335938 C-0.07951172 9.90767578 -0.07113281 9.12199219 -0.0625 8.3125 C-0.05798828 7.51521484 -0.05347656 6.71792969 -0.04882812 5.89648438 C-0.0370585 3.93095743 -0.01912348 1.96546915 0 0 Z " fill="#489796" transform="translate(224,255)"/>
<path d="M0 0 C0.66 0 1.32 0 2 0 C2 0.66 2 1.32 2 2 C3.32 2 4.64 2 6 2 C6.33 2.66 6.66 3.32 7 4 C7.99 4.33 8.98 4.66 10 5 C10.33 7.64 10.66 10.28 11 13 C6.88981036 9.64026633 3.05359558 6.39717763 0 2 C0 1.34 0 0.68 0 0 Z " fill="#E7A43F" transform="translate(293,254)"/>
<path d="M0 0 C1.98 0 3.96 0 6 0 C2.57387628 2.80942145 -0.91719564 5.38659494 -4.625 7.8125 C-5.56601563 8.43769531 -6.50703125 9.06289062 -7.4765625 9.70703125 C-8.30929688 10.13371094 -9.14203125 10.56039062 -10 11 C-10.99 10.67 -11.98 10.34 -13 10 C-11.68 9.34 -10.36 8.68 -9 8 C-9 7.34 -9 6.68 -9 6 C-6.0173094 4.47551369 -3.181798 3.06059933 0 2 C0 1.34 0 0.68 0 0 Z " fill="#3782A3" transform="translate(145,170)"/>
<path d="M0 0 C2.9375 2.5 2.9375 2.5 5 5 C1.37 4.34 -2.26 3.68 -6 3 C-6 3.66 -6 4.32 -6 5 C-7.32 4.67 -8.64 4.34 -10 4 C-9.67 3.01 -9.34 2.02 -9 1 C-5.86128812 -0.56935594 -3.46144178 -0.35201103 0 0 Z " fill="#3E9593" transform="translate(309,347)"/>
<path d="M0 0 C0.99 0.495 0.99 0.495 2 1 C2 1.66 2 2.32 2 3 C2.66 3 3.32 3 4 3 C4 3.66 4 4.32 4 5 C4.99 4.67 5.98 4.34 7 4 C8.09658936 7.28976808 7.79953138 8.71303767 7 12 C7.66 12 8.32 12 9 12 C8.67 13.32 8.34 14.64 8 16 C6.66141476 13.71125827 5.32898986 11.41930344 4 9.125 C3.6184375 8.47402344 3.236875 7.82304687 2.84375 7.15234375 C0 2.2265625 0 2.2265625 0 0 Z " fill="#2F83A1" transform="translate(261,192)"/>
<path d="M0 0 C1.52817287 2.96685815 2.86635873 5.97183644 4.125 9.0625 C4.47820313 9.91972656 4.83140625 10.77695312 5.1953125 11.66015625 C6 14 6 14 6 17 C5.34 17 4.68 17 4 17 C4 16.01 4 15.02 4 14 C3.01 14 2.02 14 1 14 C0.855625 12.9275 0.71125 11.855 0.5625 10.75 C0.11141489 7.22404292 0.11141489 7.22404292 -0.625 4.75 C-1 3 -1 3 0 0 Z " fill="#D2EBEF" transform="translate(33,317)"/>
<path d="M0 0 C0.33 0 0.66 0 1 0 C1.02686553 1.97909398 1.04633375 3.95828971 1.0625 5.9375 C1.07410156 7.03964844 1.08570313 8.14179688 1.09765625 9.27734375 C1 12 1 12 0 13 C-0.20235666 15.54969386 -0.31915246 18.09692964 -0.42578125 20.65234375 C-1 23 -1 23 -3.04296875 24.31640625 C-3.68878906 24.54199219 -4.33460938 24.76757812 -5 25 C-4.55527344 24.08154297 -4.55527344 24.08154297 -4.1015625 23.14453125 C-2.55864529 18.74010445 -2.01366677 14.29828305 -1.375 9.6875 C-1.2409375 8.75615234 -1.106875 7.82480469 -0.96875 6.86523438 C-0.64026289 4.57755629 -0.31753183 2.28921996 0 0 Z " fill="#D5E9F4" transform="translate(472,284)"/>
<path d="M0 0 C0.33 0 0.66 0 1 0 C1 2.64 1 5.28 1 8 C0.34 8 -0.32 8 -1 8 C-0.938125 9.19625 -0.87625 10.3925 -0.8125 11.625 C-0.79056063 15.73497595 -1.86869566 18.4478261 -4 22 C-5.0354051 18.8151065 -4.94040666 16.86968126 -4.00390625 13.671875 C-3.66069336 12.47304688 -3.66069336 12.47304688 -3.31054688 11.25 C-3.06369141 10.425 -2.81683594 9.6 -2.5625 8.75 C-2.31951172 7.90953125 -2.07652344 7.0690625 -1.82617188 6.203125 C-1.22626051 4.13284266 -0.61429181 2.06606103 0 0 Z " fill="#C9E7E7" transform="translate(216,376)"/>
<path d="M0 0 C0.33 0 0.66 0 1 0 C1.02578125 0.6290625 1.0515625 1.258125 1.078125 1.90625 C1.50011883 8.27452051 3.00170386 12.40318055 6 18 C5.67 18.66 5.34 19.32 5 20 C4.18357746 18.73168307 3.37200895 17.46024069 2.5625 16.1875 C2.11003906 15.47980469 1.65757812 14.77210938 1.19140625 14.04296875 C-1.16766407 9.99774326 -1.16725109 6.59940506 -1 2 C-0.67 1.34 -0.34 0.68 0 0 Z " fill="#509F9C" transform="translate(327,340)"/>
<path d="M0 0 C-5.69414523 4.62133526 -9.72029767 6.68454718 -17.12890625 6.2109375 C-17.74636719 6.14132812 -18.36382812 6.07171875 -19 6 C-19 5.67 -19 5.34 -19 5 C-16.03 5 -13.06 5 -10 5 C-9.67 3.68 -9.34 2.36 -9 1 C-5.3931275 -0.64661571 -3.8148779 -1.27162597 0 0 Z " fill="#51A09C" transform="translate(403,419)"/>
<path d="M0 0 C0.86688859 2.89910284 1.0458562 5.11452831 0.66015625 8.109375 C0.56669922 8.86347656 0.47324219 9.61757813 0.37695312 10.39453125 C0.22129883 11.56048828 0.22129883 11.56048828 0.0625 12.75 C-0.03740234 13.54277344 -0.13730469 14.33554687 -0.24023438 15.15234375 C-0.48692871 17.10240371 -0.7425878 19.05132586 -1 21 C-1.99 21.33 -2.98 21.66 -4 22 C-3.21912565 17.19345302 -2.34161295 12.40944461 -1.4375 7.625 C-1.29892578 6.88894531 -1.16035156 6.15289062 -1.01757812 5.39453125 C-0.67894066 3.59624952 -0.33954809 1.79811001 0 0 Z " fill="#55A3A2" transform="translate(372,335)"/>
<path d="M0 0 C2.97 0.495 2.97 0.495 6 1 C6.33 1.99 6.66 2.98 7 4 C8.32 4 9.64 4 11 4 C11 4.66 11 5.32 11 6 C11.99 6 12.98 6 14 6 C14 6.66 14 7.32 14 8 C14.99 8 15.98 8 17 8 C17 8.66 17 9.32 17 10 C12.97683781 8.51463956 9.38707358 6.60123107 5.6875 4.4375 C4.61886719 3.81746094 3.55023438 3.19742187 2.44921875 2.55859375 C1.64097656 2.04425781 0.83273438 1.52992188 0 1 C0 0.67 0 0.34 0 0 Z " fill="#4B9D9C" transform="translate(127,442)"/>
<path d="M0 0 C0 4.24645065 -1.81750806 6.38524772 -4 10 C-4.66 10 -5.32 10 -6 10 C-6 10.66 -6 11.32 -6 12 C-8 13.625 -8 13.625 -10 15 C-10.66 14.67 -11.32 14.34 -12 14 C-11.38511719 13.32453125 -10.77023437 12.6490625 -10.13671875 11.953125 C-9.32847656 11.06109375 -8.52023437 10.1690625 -7.6875 9.25 C-6.88699219 8.36828125 -6.08648437 7.4865625 -5.26171875 6.578125 C-3.39083089 4.44550672 -1.65915714 2.29812057 0 0 Z " fill="#D8EFF1" transform="translate(424,395)"/>
<path d="M0 0 C0 0.33 0 0.66 0 1 C-3.96 1.66 -7.92 2.32 -12 3 C-12 3.66 -12 4.32 -12 5 C-12.66 5 -13.32 5 -14 5 C-14 5.66 -14 6.32 -14 7 C-15.32 6.67 -16.64 6.34 -18 6 C-12.16655048 0.52503062 -7.95174125 -0.87990579 0 0 Z " fill="#549C9B" transform="translate(348,329)"/>
<path d="M0 0 C4.95 0 9.9 0 15 0 C15 0.66 15 1.32 15 2 C11.57767028 3.14077657 8.91326783 3.09815117 5.3125 3.0625 C3.54326172 3.04896484 3.54326172 3.04896484 1.73828125 3.03515625 C0.83464844 3.02355469 -0.06898438 3.01195312 -1 3 C-0.67 2.01 -0.34 1.02 0 0 Z " fill="#459C99" transform="translate(193,304)"/>
<path d="M0 0 C5 5 5 5 6.5625 6.6875 C8.23456517 8.2141682 9.94228223 9.07757479 12 10 C10.375 10.6875 10.375 10.6875 8 11 C4.75 9.5625 4.75 9.5625 2 8 C2 6.68 2 5.36 2 4 C1.01 3.67 0.02 3.34 -1 3 C-0.67 2.01 -0.34 1.02 0 0 Z " fill="#429A96" transform="translate(179,293)"/>
<path d="M0 0 C2.64 0.33 5.28 0.66 8 1 C8 1.66 8 2.32 8 3 C8.598125 3.061875 9.19625 3.12375 9.8125 3.1875 C12.87143458 4.3236757 13.55041099 6.17330142 15 9 C11.69918209 7.38102741 8.47442567 5.64075691 5.25 3.875 C4.26515625 3.33617187 3.2803125 2.79734375 2.265625 2.2421875 C1.51796875 1.83226562 0.7703125 1.42234375 0 1 C0 0.67 0 0.34 0 0 Z " fill="#578070" transform="translate(336,226)"/>
<path d="M0 0 C1.81293089 0.14037521 3.6253443 0.28744889 5.4375 0.4375 C6.95150391 0.55931641 6.95150391 0.55931641 8.49609375 0.68359375 C11 1 11 1 12 2 C13.34747084 2.23075082 14.70377565 2.41153063 16.0625 2.5625 C17.361875 2.706875 18.66125 2.85125 20 3 C16.73940847 5.17372769 15.82363954 5.1443958 12.1171875 4.4921875 C8.01668123 3.53893328 4.0078289 2.28218269 0 1 C0 0.67 0 0.34 0 0 Z " fill="#429A95" transform="translate(176,466)"/>
<path d="M0 0 C0.33 0.99 0.66 1.98 1 3 C-0.98 3.99 -0.98 3.99 -3 5 C-3 5.66 -3 6.32 -3 7 C-3.66 7 -4.32 7 -5 7 C-5.33 7.66 -5.66 8.32 -6 9 C-7.32 8.34 -8.64 7.68 -10 7 C-6.7 4.69 -3.4 2.38 0 0 Z " fill="#3A9593" transform="translate(95,255)"/>
<path d="M0 0 C0.33 0.99 0.66 1.98 1 3 C0.38125 3.061875 -0.2375 3.12375 -0.875 3.1875 C-1.926875 3.5896875 -1.926875 3.5896875 -3 4 C-3.67441131 5.6635479 -4.3400321 7.33066942 -5 9 C-7.625 11.3125 -7.625 11.3125 -10 13 C-10.66 12.67 -11.32 12.34 -12 12 C-8.57833482 7.29521038 -4.42094803 3.72346836 0 0 Z " fill="#4387A0" transform="translate(93,90)"/>
<path d="M0 0 C-0.75 1.9375 -0.75 1.9375 -2 4 C-4.93482964 5.02976479 -7.66039672 5.10793534 -10.75 5.0625 C-11.54921875 5.05347656 -12.3484375 5.04445313 -13.171875 5.03515625 C-13.77515625 5.02355469 -14.3784375 5.01195312 -15 5 C-15 4.01 -15 3.02 -15 2 C-14.31292969 2.02320313 -13.62585938 2.04640625 -12.91796875 2.0703125 C-12.01691406 2.08835937 -11.11585938 2.10640625 -10.1875 2.125 C-9.29417969 2.14820313 -8.40085937 2.17140625 -7.48046875 2.1953125 C-4.41382936 1.95384483 -3.01022956 0 0 0 Z " fill="#E3F3F5" transform="translate(399,422)"/>
<path d="M0 0 C0.99 0.33 1.98 0.66 3 1 C0.4425129 5.21233169 -2.65192841 6.90360834 -7 9 C-7.99 8.67 -8.98 8.34 -10 8 C-8.40629329 6.63353852 -6.79967018 5.28212834 -5.1875 3.9375 C-4.29417969 3.18339844 -3.40085937 2.42929687 -2.48046875 1.65234375 C-1.25263672 0.83443359 -1.25263672 0.83443359 0 0 Z " fill="#3F9592" transform="translate(51,290)"/>
<path d="M0 0 C0.97004667 3.16734934 1.04793039 5.7703692 0.75 9.0625 C0.68296875 9.91972656 0.6159375 10.77695312 0.546875 11.66015625 C-0.07538181 14.32252646 -0.91525781 15.29073557 -3 17 C-3.40214229 10.83381819 -1.96818336 5.82254243 0 0 Z " fill="#C8E8E8" transform="translate(180,262)"/>
<path d="M0 0 C0.33 0.66 0.66 1.32 1 2 C0.67 2.99 0.34 3.98 0 5 C-1.64551962 5.71727778 -3.31422289 6.38325228 -5 7 C-5.66 7.66 -6.32 8.32 -7 9 C-8.32 8.67 -9.64 8.34 -11 8 C-7.37 5.36 -3.74 2.72 0 0 Z " fill="#479A97" transform="translate(84,263)"/>
<path d="M0 0 C2.05710856 3.08566284 2.78346093 5.36985312 3.6875 8.9375 C3.95949219 9.97777344 4.23148437 11.01804688 4.51171875 12.08984375 C4.97828785 14.8705956 4.93894816 16.38480882 4 19 C0.75428718 12.79081025 0.33055741 6.94170563 0 0 Z " fill="#5793AB" transform="translate(464,185)"/>
<path d="M0 0 C1.32 0 2.64 0 4 0 C4 2.97 4 5.94 4 9 C0 7 0 7 -2 4 C-0.68 4.33 0.64 4.66 2 5 C1.34 3.35 0.68 1.7 0 0 Z " fill="#309799" transform="translate(122,432)"/>
<path d="M0 0 C4.43119266 5.69724771 4.43119266 5.69724771 6 9 C5.1875 11.3125 5.1875 11.3125 4 13 C3.34 12.67 2.68 12.34 2 12 C1.375 8.9375 1.375 8.9375 1 6 C0.67 6 0.34 6 0 6 C0 4.02 0 2.04 0 0 Z " fill="#3B8AA9" transform="translate(442,136)"/>
<path d="M0 0 C0.33 0 0.66 0 1 0 C1.08142927 1.7492214 1.13938541 3.49954542 1.1875 5.25 C1.23970703 6.71179688 1.23970703 6.71179688 1.29296875 8.203125 C0.96075202 11.37468742 0.11327721 12.67040307 -2 15 C-2.19392201 9.47322267 -1.7479503 5.24385089 0 0 Z " fill="#4B9B9A" transform="translate(294,363)"/>
<path d="M0 0 C0.66 0.66 1.32 1.32 2 2 C-0.97 8.93 -0.97 8.93 -4 16 C-4.33 16 -4.66 16 -5 16 C-5 13.69 -5 11.38 -5 9 C-4.01 8.67 -3.02 8.34 -2 8 C-2 6.35 -2 4.7 -2 3 C-1.34 3 -0.68 3 0 3 C0 2.01 0 1.02 0 0 Z " fill="#3F9895" transform="translate(229,339)"/>
<path d="M0 0 C-1.6209213 1.17232685 -3.24686833 2.3377077 -4.875 3.5 C-5.77992187 4.1496875 -6.68484375 4.799375 -7.6171875 5.46875 C-10 7 -10 7 -12 7 C-12 6.34 -12 5.68 -12 5 C-11.34 5 -10.68 5 -10 5 C-10 4.01 -10 3.02 -10 2 C-8.68 2 -7.36 2 -6 2 C-6 1.34 -6 0.68 -6 0 C-3 -1 -3 -1 0 0 Z " fill="#2F849E" transform="translate(76,221)"/>
<path d="M0 0 C0.33 0.66 0.66 1.32 1 2 C0 5 0 5 -2 6 C-2.65213292 8.02463255 -2.65213292 8.02463255 -3 10 C-3.99 10 -4.98 10 -6 10 C-6.33 11.32 -6.66 12.64 -7 14 C-7.66 14 -8.32 14 -9 14 C-7.65070536 10.16336928 -5.92248975 7.34827431 -3.375 4.1875 C-2.42753906 3.00220703 -2.42753906 3.00220703 -1.4609375 1.79296875 C-0.97882813 1.20128906 -0.49671875 0.60960938 0 0 Z " fill="#458BA5" transform="translate(73,111)"/>
<path d="M0 0 C2.375 0.25 2.375 0.25 5 1 C5.66 2.32 6.32 3.64 7 5 C10.3 5 13.6 5 17 5 C17 5.33 17 5.66 17 6 C6.24614413 6.86107387 6.24614413 6.86107387 2.3125 3.5625 C0 1 0 1 0 0 Z " fill="#5FA8A4" transform="translate(296,464)"/>
<path d="M0 0 C1.9375 0.375 1.9375 0.375 4 1 C4.33 1.66 4.66 2.32 5 3 C3.71086513 3.67154933 2.41859796 4.33708859 1.125 5 C0.40570313 5.37125 -0.31359375 5.7425 -1.0546875 6.125 C-3 7 -3 7 -5 7 C-4.34 5.68 -3.68 4.36 -3 3 C-2.01 3 -1.02 3 0 3 C0 2.01 0 1.02 0 0 Z " fill="#E1F2F3" transform="translate(160,210)"/>
<path d="M0 0 C0.66 0.33 1.32 0.66 2 1 C0.69161864 3.002807 -0.62142194 5.00226099 -1.9375 7 C-2.49727539 7.85851562 -2.49727539 7.85851562 -3.06835938 8.734375 C-4.01944589 10.17385729 -5.00694276 11.58914489 -6 13 C-6.33 13 -6.66 13 -7 13 C-7 11.35 -7 9.7 -7 8 C-6.01 7.67 -5.02 7.34 -4 7 C-3.26676204 4.98491642 -3.26676204 4.98491642 -3 3 C-2.34 3 -1.68 3 -1 3 C-0.67 2.01 -0.34 1.02 0 0 Z " fill="#DEF1F8" transform="translate(65,119)"/>
<path d="M0 0 C0.33 0 0.66 0 1 0 C1 2.64 1 5.28 1 8 C0.360625 8.268125 -0.27875 8.53625 -0.9375 8.8125 C-3.33131686 9.88667752 -3.33131686 9.88667752 -4 13 C-4.66 12.67 -5.32 12.34 -6 12 C-5.47599609 11.07767578 -5.47599609 11.07767578 -4.94140625 10.13671875 C-4.48636719 9.32847656 -4.03132813 8.52023437 -3.5625 7.6875 C-3.11003906 6.88699219 -2.65757812 6.08648437 -2.19140625 5.26171875 C-0.88909452 2.93788571 -0.88909452 2.93788571 0 0 Z " fill="#519C99" transform="translate(367,357)"/>
<path d="M0 0 C3.96 0.33 7.92 0.66 12 1 C10.68 2.32 9.36 3.64 8 5 C7.34 5 6.68 5 6 5 C6 4.34 6 3.68 6 3 C3.03 2.505 3.03 2.505 0 2 C0 1.34 0 0.68 0 0 Z " fill="#CEE8E7" transform="translate(202,281)"/>
<path d="M0 0 C0 0.99 0 1.98 0 3 C-2.91482778 3.80967438 -4.46113217 4.21845993 -7.3125 3.0625 C-7.869375 2.711875 -8.42625 2.36125 -9 2 C-3.375 -1.125 -3.375 -1.125 0 0 Z " fill="#E7ECE9" transform="translate(367,280)"/>
<path d="M0 0 C3.3 1.98 6.6 3.96 10 6 C9.01 6.33 8.02 6.66 7 7 C6.34 6.67 5.68 6.34 5 6 C5 6.66 5 7.32 5 8 C4.01 8 3.02 8 2 8 C2.33 6.35 2.66 4.7 3 3 C1.68 2.67 0.36 2.34 -1 2 C-0.67 1.34 -0.34 0.68 0 0 Z " fill="#F8F1E0" transform="translate(308,272)"/>
<path d="M0 0 C1.89453125 0.328125 1.89453125 0.328125 4 1 C6.18884505 4.56700675 7.39249174 7.86894386 8 12 C4.02502456 8.59287819 2.13206212 4.67239145 0 0 Z " fill="#DDF1F7" transform="translate(434,123)"/>
<path d="M0 0 C0.66 0.33 1.32 0.66 2 1 C1.57847656 1.47050781 1.15695312 1.94101562 0.72265625 2.42578125 C0.17480469 3.04839844 -0.37304688 3.67101562 -0.9375 4.3125 C-1.48277344 4.92738281 -2.02804687 5.54226563 -2.58984375 6.17578125 C-4.20081559 8.05241958 -4.20081559 8.05241958 -5 11 C-5.99 11 -6.98 11 -8 11 C-6.63629701 8.00779732 -5.05091917 5.70973471 -2.875 3.25 C-2.33617187 2.63640625 -1.79734375 2.0228125 -1.2421875 1.390625 C-0.62730469 0.70226562 -0.62730469 0.70226562 0 0 Z " fill="#D2EDF0" transform="translate(366,425)"/>
<path d="M0 0 C1.32 0.33 2.64 0.66 4 1 C3.34 1.66 2.68 2.32 2 3 C1.01 3 0.02 3 -1 3 C-1 4.65 -1 6.3 -1 8 C-2.32 8 -3.64 8 -5 8 C-3.62845496 5.04590299 -2.01136276 2.55991624 0 0 Z " fill="#E4A034" transform="translate(300,232)"/>
<path d="M0 0 C2.475 0.495 2.475 0.495 5 1 C5.0825 1.5775 5.165 2.155 5.25 2.75 C6.20531013 5.6159304 7.78469173 6.9990764 10 9 C9.67 9.99 9.34 10.98 9 12 C7.49707257 10.18992669 5.99772829 8.37687764 4.5 6.5625 C3.6646875 5.55316406 2.829375 4.54382813 1.96875 3.50390625 C0 1 0 1 0 0 Z " fill="#3C829E" transform="translate(246,173)"/>
<path d="M0 0 C0.66 0.33 1.32 0.66 2 1 C-4.07439825 6.88183807 -4.07439825 6.88183807 -7.9375 7.375 C-8.618125 7.25125 -9.29875 7.1275 -10 7 C-7.01767477 3.67356033 -4.13629913 1.70847138 0 0 Z " fill="#C9E1E9" transform="translate(159,165)"/>
<path d="M0 0 C0 0.99 0 1.98 0 3 C-1.78810766 3.69670416 -3.58062052 4.38211189 -5.375 5.0625 C-6.37273437 5.44535156 -7.37046875 5.82820313 -8.3984375 6.22265625 C-11 7 -11 7 -13 6 C-11.21118264 4.99491199 -9.41885304 3.99607264 -7.625 3 C-6.62726563 2.443125 -5.62953125 1.88625 -4.6015625 1.3125 C-2 0 -2 0 0 0 Z " fill="#5293A7" transform="translate(157,47)"/>
<path d="M0 0 C0.33 0 0.66 0 1 0 C2.61050328 10.15317287 2.61050328 10.15317287 0.0625 13.6875 C-0.618125 14.120625 -1.29875 14.55375 -2 15 C-1.855625 14.195625 -1.71125 13.39125 -1.5625 12.5625 C-0.90311661 8.38640519 -0.43908647 4.20401941 0 0 Z " fill="#D5ECED" transform="translate(361,342)"/>
<path d="M0 0 C-0.99766109 2.49415272 -1.68616685 3.78740335 -3.9375 5.3125 C-6 6 -6 6 -9 5 C-3.375 0 -3.375 0 0 0 Z " fill="#369693" transform="translate(73,274)"/>
<path d="M0 0 C4.95 0 9.9 0 15 0 C14.67 0.99 14.34 1.98 14 3 C12.41590006 2.88512252 10.83271037 2.75765492 9.25 2.625 C8.36828125 2.55539063 7.4865625 2.48578125 6.578125 2.4140625 C4 2 4 2 0 0 Z " fill="#28778A" transform="translate(330,224)"/>
<path d="M0 0 C1.04449911 3.13349732 0.93423645 3.98968256 0 7 C-1.32 7.33 -2.64 7.66 -4 8 C-4 8.66 -4 9.32 -4 10 C-4.66 9.67 -5.32 9.34 -6 9 C-4.02 6.03 -2.04 3.06 0 0 Z " fill="#3F859E" transform="translate(63,125)"/>
<path d="M0 0 C2.97 0.495 2.97 0.495 6 1 C6 1.66 6 2.32 6 3 C8.31 3.33 10.62 3.66 13 4 C13 4.33 13 4.66 13 5 C5.73846154 5.61538462 5.73846154 5.61538462 2 2.5 C1.34 1.675 0.68 0.85 0 0 Z " fill="#47859F" transform="translate(446,310)"/>
<path d="M0 0 C0.33 0 0.66 0 1 0 C1 1.98 1 3.96 1 6 C0.01 6 -0.98 6 -2 6 C-2 8.31 -2 10.62 -2 13 C-2.33 13 -2.66 13 -3 13 C-3.27131956 7.66404866 -3.4266889 4.38616179 0 0 Z " fill="#5CA19E" transform="translate(36,304)"/>
<path d="M0 0 C-2.31 2.31 -4.62 4.62 -7 7 C-7.33 6.01 -7.66 5.02 -8 4 C-7.34 4 -6.68 4 -6 4 C-6 2.68 -6 1.36 -6 0 C-3 -1 -3 -1 0 0 Z " fill="#DAF1F2" transform="translate(56,286)"/>
<path d="M0 0 C2.97 0.495 2.97 0.495 6 1 C6 1.99 6 2.98 6 4 C6.99 4 7.98 4 9 4 C9.66 5.32 10.32 6.64 11 8 C6.40378078 6.5129879 3.53027653 4.20187872 0 1 C0 0.67 0 0.34 0 0 Z " fill="#E1B05C" transform="translate(304,268)"/>
<path d="M0 0 C0.33 0 0.66 0 1 0 C1.2295711 3.36704285 1.33943529 5.41370268 -0.375 8.375 C-0.91125 8.91125 -1.4475 9.4475 -2 10 C-2.66 10 -3.32 10 -4 10 C-3.52449439 8.51965236 -3.04448784 7.04074979 -2.5625 5.5625 C-2.29566406 4.73878906 -2.02882812 3.91507813 -1.75390625 3.06640625 C-1 1 -1 1 0 0 Z " fill="#DEF1F3" transform="translate(190,240)"/>
<path d="M0 0 C0.33 0 0.66 0 1 0 C1.08153933 1.58246707 1.13943557 3.16616273 1.1875 4.75 C1.23970703 6.07257813 1.23970703 6.07257813 1.29296875 7.421875 C0.94923684 10.44671583 -0.00227459 11.75583602 -2 14 C-1.85795259 12.41632253 -1.71119847 10.83306682 -1.5625 9.25 C-1.48128906 8.36828125 -1.40007813 7.4865625 -1.31640625 6.578125 C-1.03761535 4.30649548 -0.61209423 2.20148177 0 0 Z " fill="#538FA3" transform="translate(31,194)"/>
<path d="M0 0 C1.38609004 3.15020465 0.89180331 4.31918022 -0.25 7.6875 C-2 11 -2 11 -5 12 C-3.68938409 7.76570244 -2.05643741 3.92592596 0 0 Z " fill="#4289A0" transform="translate(50,146)"/>
<path d="M0 0 C0.66 0.66 1.32 1.32 2 2 C1.625 5.625 1.625 5.625 1 9 C-1 7.6875 -1 7.6875 -3 6 C-3 3 -3 3 -1.5 1.3125 C-0.7575 0.6628125 -0.7575 0.6628125 0 0 Z " fill="#E3EFF4" transform="translate(404,81)"/>
<path d="M0 0 C1.11375 0.598125 2.2275 1.19625 3.375 1.8125 C4.00148438 2.14894531 4.62796875 2.48539062 5.2734375 2.83203125 C7 4 7 4 9 7 C6.03 6.505 6.03 6.505 3 6 C2.67 4.68 2.34 3.36 2 2 C1.34 2 0.68 2 0 2 C0 1.34 0 0.68 0 0 Z " fill="#3785A1" transform="translate(379,69)"/>
<path d="M0 0 C0 0.99 0 1.98 0 3 C-4.62 2.34 -9.24 1.68 -14 1 C-14 0.67 -14 0.34 -14 0 C-12.2300132 -0.19532961 -10.45895721 -0.38098882 -8.6875 -0.5625 C-7.70136719 -0.66691406 -6.71523438 -0.77132813 -5.69921875 -0.87890625 C-3 -1 -3 -1 0 0 Z " fill="#C5E6E4" transform="translate(403,316)"/>
<path d="M0 0 C0.66 0 1.32 0 2 0 C2.25 5.625 2.25 5.625 0 9 C-0.66 8.67 -1.32 8.34 -2 8 C-2 6.68 -2 5.36 -2 4 C-1.34 4 -0.68 4 0 4 C0 2.68 0 1.36 0 0 Z " fill="#EB9D2F" transform="translate(359,272)"/>
<path d="M0 0 C0.75 1.5625 0.75 1.5625 1 4 C-0.13084437 6.50286409 -1.52139516 8.67007722 -3 11 C-3.66 11 -4.32 11 -5 11 C-3.77472971 6.94718288 -2.30119506 3.55639236 0 0 Z " fill="#4B8EA2" transform="translate(56,135)"/>
<path d="M0 0 C2.64 0 5.28 0 8 0 C5.57869669 2.42130331 4.19888623 2.52840504 0.875 3.125 C-0.49011719 3.37636719 -0.49011719 3.37636719 -1.8828125 3.6328125 C-2.58148438 3.75398437 -3.28015625 3.87515625 -4 4 C-2.68 3.34 -1.36 2.68 0 2 C0 1.34 0 0.68 0 0 Z " fill="#3A7476" transform="translate(308,224)"/>
<path d="M0 0 C1.32 0.33 2.64 0.66 4 1 C2.87926138 1.83905565 1.75325453 2.67107831 0.625 3.5 C-0.00148438 3.9640625 -0.62796875 4.428125 -1.2734375 4.90625 C-3 6 -3 6 -5 6 C-5 5.01 -5 4.02 -5 3 C-3.68 3 -2.36 3 -1 3 C-0.67 2.01 -0.34 1.02 0 0 Z " fill="#3986A2" transform="translate(85,211)"/>
<path d="M0 0 C3.4826218 -0.39801392 4.80799236 -0.12373826 7.8125 1.8125 C10 4 10 4 10 7 C8 7 8 7 5.5625 4.625 C4.716875 3.75875 3.87125 2.8925 3 2 C2.01 1.34 1.02 0.68 0 0 Z " fill="#499595" transform="translate(182,209)"/>
<path d="M0 0 C1.96301592 3.50538557 2.95902388 7.13351728 4 11 C3.01 11 2.02 11 1 11 C-0.28317892 7.15046324 -0.06643637 4.05261865 0 0 Z " fill="#55A4A2" transform="translate(117,424)"/>
<path d="M0 0 C2.125 0.9375 2.125 0.9375 4 2 C-0.875 6 -0.875 6 -2 6 C-2 4.35 -2 2.7 -2 1 C-1.34 0.67 -0.68 0.34 0 0 Z " fill="#349790" transform="translate(354,355)"/>
<path d="M0 0 C0 3.19610552 -0.54671542 4.41717626 -2 7.1875 C-2.37125 7.90292969 -2.7425 8.61835938 -3.125 9.35546875 C-3.41375 9.89816406 -3.7025 10.44085938 -4 11 C-5.32940404 7.01178789 -4.43803613 4.88269755 -3 1 C-2.01 0.67 -1.02 0.34 0 0 Z " fill="#499D97" transform="translate(236,328)"/>
<path d="M0 0 C3.67230705 3.07999946 4.56802365 5.2482602 5 10 C1.32769295 6.92000054 0.43197635 4.7517398 0 0 Z " fill="#E3F7F8" transform="translate(178,287)"/>
<path d="M0 0 C0.33 0 0.66 0 1 0 C1.06058594 0.74765625 1.12117187 1.4953125 1.18359375 2.265625 C1.26738281 3.25046875 1.35117188 4.2353125 1.4375 5.25 C1.51871094 6.22453125 1.59992188 7.1990625 1.68359375 8.203125 C1.95074584 10.56461753 2.35371968 12.71901065 3 15 C2.01 14.67 1.02 14.34 0 14 C0 9.38 0 4.76 0 0 Z " fill="#73A7A2" transform="translate(176,278)"/>
<path d="M0 0 C0.66 0.33 1.32 0.66 2 1 C2 1.66 2 2.32 2 3 C0.71349294 3.69710731 -0.57940665 4.38242876 -1.875 5.0625 C-2.95394531 5.63677734 -2.95394531 5.63677734 -4.0546875 6.22265625 C-4.69664063 6.47917969 -5.33859375 6.73570312 -6 7 C-6.66 6.67 -7.32 6.34 -8 6 C-5.36 4.02 -2.72 2.04 0 0 Z " fill="#4A9C9B" transform="translate(104,248)"/>
<path d="M0 0 C0 0.99 0 1.98 0 3 C-0.66 3 -1.32 3 -2 3 C-2 3.99 -2 4.98 -2 6 C-2.99 5.67 -3.98 5.34 -5 5 C-5 4.01 -5 3.02 -5 2 C-2 0 -2 0 0 0 Z " fill="#E2EFF3" transform="translate(84,216)"/>
<path d="M0 0 C0.80824219 0.10183594 1.61648437 0.20367188 2.44921875 0.30859375 C3.06410156 0.39238281 3.67898437 0.47617187 4.3125 0.5625 C4.3125 0.8925 4.3125 1.2225 4.3125 1.5625 C-0.3075 1.8925 -4.9275 2.2225 -9.6875 2.5625 C-6.54519271 -0.57980729 -4.18151679 -0.54541523 0 0 Z " fill="#DCEFF7" transform="translate(223.6875,27.4375)"/>
<path d="M0 0 C1.67542976 0.28604898 3.34385343 0.61781233 5 1 C3.35 2.65 1.7 4.3 0 6 C-0.38218767 4.34385343 -0.71395102 2.67542976 -1 1 C-0.67 0.67 -0.34 0.34 0 0 Z " fill="#3D9B96" transform="translate(403,412)"/>
<path d="M0 0 C0.33 0 0.66 0 1 0 C1 1.65 1 3.3 1 5 C1.66 5 2.32 5 3 5 C3.33 6.65 3.66 8.3 4 10 C0.77686187 7.19275066 -0.64998321 5.31687378 -1 1 C-0.67 0.67 -0.34 0.34 0 0 Z " fill="#DDAB57" transform="translate(289,244)"/>
<path d="M0 0 C1.98 0.66 3.96 1.32 6 2 C3.6875 4.0625 3.6875 4.0625 1 6 C0.01 5.67 -0.98 5.34 -2 5 C-1.34 5 -0.68 5 0 5 C0 3.35 0 1.7 0 0 Z " fill="#29809E" transform="translate(155,162)"/>
<path d="M0 0 C0.99 0.99 1.98 1.98 3 3 C2.01 3.495 2.01 3.495 1 4 C0.67 4.66 0.34 5.32 0 6 C-0.99 5.01 -1.98 4.02 -3 3 C-2.01 2.01 -1.02 1.02 0 0 Z " fill="#1978A1" transform="translate(116,72)"/>
<path d="M0 0 C0 0.99 0 1.98 0 3 C-4.95 4.485 -4.95 4.485 -10 6 C-4 0 -4 0 0 0 Z " fill="#4F8EAA" transform="translate(140,56)"/>
<path d="M0 0 C-3.00617269 3.00617269 -5.82381598 2.59585316 -10 3 C-7.29536552 -0.8183075 -4.37912428 -0.24787496 0 0 Z " fill="#BDDFDF" transform="translate(378,422)"/>
<path d="M0 0 C0.53625 0.28875 1.0725 0.5775 1.625 0.875 C4.35280484 2.16711808 7.12612718 3.08558592 10 4 C10 4.33 10 4.66 10 5 C6.63295715 5.2295711 4.58629732 5.33943529 1.625 3.625 C1.08875 3.08875 0.5525 2.5525 0 2 C0 1.34 0 0.68 0 0 Z " fill="#DEF3F4" transform="translate(56,369)"/>
<path d="M0 0 C2 1.8125 2 1.8125 4 4 C4 4.99 4 5.98 4 7 C3.34 7 2.68 7 2 7 C2 6.01 2 5.02 2 4 C1.01 4 0.02 4 -1 4 C-0.67 2.68 -0.34 1.36 0 0 Z " fill="#DBF0F2" transform="translate(35,327)"/>
<path d="M0 0 C0 0.99 0 1.98 0 3 C-0.66 3 -1.32 3 -2 3 C-2.33 3.66 -2.66 4.32 -3 5 C-3 4.01 -3 3.02 -3 2 C-5.64 2 -8.28 2 -11 2 C-11 1.67 -11 1.34 -11 1 C-9.54182203 0.83197949 -8.0834516 0.66562857 -6.625 0.5 C-5.81289063 0.4071875 -5.00078125 0.314375 -4.1640625 0.21875 C-2 0 -2 0 0 0 Z " fill="#C6DDE4" transform="translate(46,242)"/>
<path d="M0 0 C2 0 2 0 3.6875 1.1875 C5 3 5 3 4.6875 5.6875 C4.460625 6.450625 4.23375 7.21375 4 8 C1.53721199 5.53721199 1.00228745 3.29323018 0 0 Z " fill="#3889A4" transform="translate(274,218)"/>
<path d="M0 0 C4.875 4.625 4.875 4.625 6 8 C5.34 8 4.68 8 4 8 C4 7.34 4 6.68 4 6 C3.01 5.67 2.02 5.34 1 5 C0.67 3.35 0.34 1.7 0 0 Z " fill="#488BA5" transform="translate(423,110)"/>
<path d="M0 0 C-0.66 1.32 -1.32 2.64 -2 4 C-3.98 4 -5.96 4 -8 4 C-2.7826087 0 -2.7826087 0 0 0 Z " fill="#CFE7E7" transform="translate(345,457)"/>
<path d="M0 0 C2.97 1.98 2.97 1.98 6 4 C5.01 4.495 5.01 4.495 4 5 C4 5.66 4 6.32 4 7 C3.34 7 2.68 7 2 7 C2 5.68 2 4.36 2 3 C1.34 3 0.68 3 0 3 C0 2.01 0 1.02 0 0 Z " fill="#3A9696" transform="translate(328,368)"/>
<path d="M0 0 C2.40072955 2.88087546 4.47291037 5.56404834 6 9 C5.34 9 4.68 9 4 9 C0.88002198 5.69649386 0 4.67590167 0 0 Z " fill="#439896" transform="translate(316,353)"/>
<path d="M0 0 C0.99 0.33 1.98 0.66 3 1 C2.34 2.98 1.68 4.96 1 7 C-0.0625 5.1875 -0.0625 5.1875 -1 3 C-0.67 2.01 -0.34 1.02 0 0 Z " fill="#20938D" transform="translate(235,322)"/>
<path d="M0 0 C0.99 0 1.98 0 3 0 C2.3125 1.9375 2.3125 1.9375 1 4 C-1.625 4.75 -1.625 4.75 -4 5 C-2.1875 2.5 -2.1875 2.5 0 0 Z " fill="#3E9896" transform="translate(218,294)"/>
<path d="M0 0 C3.34373475 0.55728913 6.03312999 1.35173889 9 3 C6.75 3.75 6.75 3.75 4 4 C1.6875 2.0625 1.6875 2.0625 0 0 Z " fill="#409A95" transform="translate(198,277)"/>
<path d="M0 0 C2.64752004 2.57784846 4.94432065 4.91648098 7 8 C5.35 7.67 3.7 7.34 2 7 C1.34 4.69 0.68 2.38 0 0 Z " fill="#F6E8CC" transform="translate(295,258)"/>
<path d="M0 0 C1.32 0.33 2.64 0.66 4 1 C1.03 3.475 1.03 3.475 -2 6 C-2.66 5.67 -3.32 5.34 -4 5 C-2.68 3.35 -1.36 1.7 0 0 Z " fill="#63836B" transform="translate(300,229)"/>
<path d="M0 0 C-4.75 4 -4.75 4 -7 4 C-7.33 3.01 -7.66 2.02 -8 1 C-2.25 -1.125 -2.25 -1.125 0 0 Z " fill="#3385A5" transform="translate(64,229)"/>
<path d="M0 0 C0.66 0 1.32 0 2 0 C3.6875 2.375 3.6875 2.375 5 5 C4.67 5.66 4.34 6.32 4 7 C2.68 6.34 1.36 5.68 0 5 C0 3.35 0 1.7 0 0 Z " fill="#D9EDF6" transform="translate(265,203)"/>
</svg>
