<?xml version="1.0" standalone="no"?>
<!DOCTYPE svg PUBLIC "-//W3C//DTD SVG 20010904//EN"
 "http://www.w3.org/TR/2001/REC-SVG-20010904/DTD/svg10.dtd">
<svg version="1.0" xmlns="http://www.w3.org/2000/svg"
 width="323.000000pt" height="614.000000pt" viewBox="0 0 323.000000 614.000000"
 preserveAspectRatio="xMidYMid meet">

<g transform="translate(0.000000,614.000000) scale(0.100000,-0.100000)"
fill="#000000" stroke="none">
<path d="M808 6133 c448 -2 1177 -2 1620 0 444 1 78 2 -813 2 -891 0 -1254 -1
-807 -2z"/>
<path d="M1636 6060 c-130 -65 -181 -84 -331 -120 -69 -16 -134 -34 -145 -40
-29 -15 -42 -46 -98 -230 -113 -369 -167 -574 -156 -592 3 -5 -9 -25 -27 -44
-32 -33 -32 -34 -10 -34 18 0 22 -4 16 -17 -15 -36 -27 -94 -22 -100 4 -3 13
0 22 7 13 11 15 7 15 -28 0 -22 6 -47 14 -54 24 -25 23 -52 -2 -72 -34 -27
-52 -76 -52 -138 0 -72 13 -113 56 -175 52 -76 98 -108 157 -109 l49 0 17 -51
c24 -70 72 -142 136 -202 64 -61 73 -99 30 -133 -14 -11 -25 -26 -25 -34 0 -8
-4 -14 -9 -14 -5 0 -49 -34 -97 -75 -99 -84 -122 -93 -510 -209 -238 -71 -271
-85 -290 -131 -21 -52 -90 -340 -113 -477 -13 -72 -29 -130 -43 -154 -15 -26
-24 -62 -29 -118 -6 -82 -50 -304 -116 -586 -41 -179 -41 -228 1 -395 33 -131
70 -201 123 -239 76 -53 171 -45 357 30 l59 24 -7 -58 c-4 -31 -38 -248 -76
-482 -38 -234 -79 -488 -91 -565 l-22 -139 31 -26 31 -25 -18 -128 c-13 -98
-15 -127 -5 -127 14 0 18 17 35 148 6 50 13 92 15 92 1 0 14 -4 29 -10 22 -8
25 -14 21 -42 -12 -77 -16 -188 -8 -188 5 0 13 48 17 106 7 102 8 106 29 100
217 -63 342 -85 410 -72 117 22 206 223 294 664 l36 183 61 -8 c75 -10 422
-10 494 -1 l53 7 -4 -34 c-2 -19 -1 -35 2 -35 4 0 12 -30 19 -67 l12 -66 -38
-56 c-21 -30 -73 -92 -117 -138 -43 -46 -74 -83 -68 -83 13 0 105 100 172 188
l54 71 28 -122 c52 -227 113 -388 170 -445 29 -31 81 -52 126 -52 36 0 165 28
241 53 l69 23 6 -51 c3 -27 6 -76 6 -107 0 -36 4 -58 11 -58 8 0 10 31 4 109
-6 103 -5 110 14 120 42 23 46 16 63 -105 9 -63 19 -118 22 -121 17 -17 18 19
3 130 -17 130 -18 124 29 153 20 12 23 -8 -91 767 -36 246 -65 460 -65 476 l0
29 132 -46 c271 -93 339 -50 418 262 24 94 25 169 5 251 -58 236 -125 565
-125 616 0 44 -8 81 -29 133 -16 40 -32 100 -36 132 -11 92 -82 442 -104 515
-33 104 -50 114 -348 199 -331 95 -351 102 -429 174 -38 34 -79 68 -91 75 -13
6 -23 18 -23 26 0 8 -9 19 -20 25 -36 19 -25 54 33 99 65 50 108 101 143 173
25 51 28 54 60 50 49 -6 86 13 142 72 107 113 132 238 63 319 -27 32 -27 32
-11 75 9 23 19 40 23 36 13 -13 28 52 22 94 -6 41 -5 43 14 37 26 -8 26 -5 0
39 -11 20 -18 43 -15 54 13 41 -128 728 -160 779 -8 12 -65 48 -126 80 -98 49
-127 70 -218 159 -111 107 -134 124 -172 124 -13 0 -68 -23 -122 -50z m144
-27 c0 -15 19 -17 40 -3 12 7 10 11 -10 19 -14 5 -18 10 -10 10 23 1 100 -81
100 -107 0 -12 -4 -22 -10 -22 -5 0 -10 11 -10 24 0 27 -15 42 -25 26 -3 -5
-11 -10 -16 -10 -6 0 -7 5 -4 10 3 6 -3 10 -14 10 -10 0 -22 6 -24 13 -3 7 -6
5 -6 -5 -1 -12 -6 -15 -18 -11 -16 6 -15 3 2 -18 25 -30 47 -48 59 -49 6 0 -3
14 -19 30 -21 22 -24 30 -13 30 9 0 19 -7 22 -16 3 -9 13 -14 20 -11 10 4 18
-5 25 -24 12 -36 28 -37 37 -4 5 20 9 23 20 15 7 -7 10 -19 7 -28 -6 -14 -4
-15 9 -4 13 10 18 9 29 -4 12 -14 10 -19 -15 -39 l-29 -23 24 -13 c13 -7 27
-13 30 -12 3 1 3 -11 1 -28 -3 -21 0 -29 11 -29 9 0 19 -9 22 -20 7 -23 16
-25 33 -8 9 9 12 6 12 -14 0 -14 6 -31 14 -37 11 -9 16 -5 26 18 7 19 17 28
26 24 8 -3 17 4 23 18 4 13 11 23 15 22 3 -1 12 0 20 3 19 7 56 -13 56 -31 0
-8 -6 -12 -14 -9 -17 6 -30 -11 -20 -27 5 -8 9 -8 14 1 4 7 10 8 13 4 3 -5 -3
-19 -13 -31 -15 -20 -20 -21 -30 -8 -9 11 -10 15 -1 15 7 0 9 5 6 10 -9 15
-27 1 -21 -16 3 -7 -7 -22 -22 -33 l-27 -19 28 -22 c19 -15 26 -28 22 -41 -6
-17 3 -24 28 -20 4 0 7 -9 7 -21 0 -20 -4 -18 -42 17 -44 42 -35 23 16 -32 31
-34 49 -43 40 -19 -3 7 2 16 10 19 10 4 18 -4 25 -25 12 -34 32 -33 42 3 6 22
7 22 14 5 5 -10 9 -38 9 -62 1 -24 4 -44 7 -44 12 0 16 -84 6 -98 -8 -10 -14
-5 -24 20 -14 32 -15 32 -29 14 -8 -11 -14 -26 -14 -33 0 -7 -6 -10 -14 -7
-17 7 -63 -32 -52 -43 4 -4 10 -3 14 3 12 17 42 25 42 10 0 -20 -42 -54 -47
-39 -4 10 -8 9 -19 -2 -8 -8 -23 -19 -32 -24 -16 -9 -15 -11 3 -26 l20 -17
-20 7 c-11 4 -55 18 -97 31 -62 20 -78 29 -78 44 0 11 -4 20 -10 20 -5 0 -7
-7 -4 -15 9 -22 -19 -19 -40 4 -11 12 -14 21 -7 26 6 3 11 2 11 -4 0 -6 7 -8
15 -5 22 9 -2 36 -26 29 -13 -4 -19 1 -24 25 -8 38 -20 38 -33 1 -8 -22 -15
-28 -30 -24 -13 3 -25 -3 -35 -17 -13 -19 -21 -21 -56 -15 -33 5 -41 11 -41
28 0 15 3 18 11 10 16 -16 39 -5 39 19 0 10 5 16 10 13 13 -8 32 4 25 15 -8
14 -55 -11 -55 -29 0 -11 -3 -12 -12 -3 -15 15 28 64 51 58 9 -3 26 3 39 14
l22 19 -26 26 c-19 19 -30 23 -37 16 -13 -13 -47 14 -47 36 0 7 -4 21 -9 31
-5 9 -12 25 -15 35 -8 24 -21 21 -34 -8 -7 -16 -17 -23 -27 -19 -9 4 -17 -1
-21 -10 -8 -21 4 -35 15 -17 5 7 11 9 14 4 10 -16 -23 -54 -41 -49 -10 3 -30
-6 -46 -19 l-30 -24 25 -20 c13 -12 32 -19 41 -17 20 5 43 -18 33 -34 -5 -8
-13 -6 -26 6 -11 9 -22 14 -25 11 -10 -10 53 -70 65 -62 6 3 11 0 11 -7 0 -15
-88 -13 -104 3 -13 12 -29 11 -21 -1 3 -6 -1 -7 -9 -4 -9 3 -16 14 -16 24 0
10 -6 23 -13 29 -11 9 -18 3 -32 -29 -10 -23 -25 -40 -34 -40 -14 1 -13 2 2
11 9 6 15 15 11 20 -4 6 -17 1 -33 -14 -15 -14 -42 -27 -63 -29 -34 -4 -38 -1
-38 18 0 17 4 21 21 17 15 -4 22 0 26 16 3 12 13 21 24 21 11 0 19 7 19 15 0
8 -5 15 -11 15 -5 0 -7 -5 -3 -12 5 -7 2 -9 -7 -6 -8 3 -20 -1 -27 -8 -7 -8
-10 -14 -7 -14 3 0 3 -5 -1 -11 -5 -8 -10 -6 -16 6 -13 23 28 68 54 59 10 -3
25 1 33 9 8 9 20 17 27 19 8 3 2 14 -17 30 -22 19 -33 23 -43 16 -7 -6 -14 -9
-15 -7 -1 2 -10 13 -20 25 -16 19 -16 22 -2 34 13 11 14 10 9 -4 -3 -9 -1 -16
5 -16 6 0 11 9 11 21 0 17 -4 20 -24 15 -20 -5 -24 -1 -30 24 -7 38 -20 38
-36 0 -9 -22 -16 -28 -25 -20 -14 12 -25 3 -25 -19 0 -13 2 -13 9 -2 6 9 10
10 16 2 11 -18 -23 -63 -43 -57 -9 3 -30 -6 -47 -19 -16 -14 -25 -25 -18 -25
18 0 45 -31 39 -46 -3 -8 3 -20 14 -26 11 -7 20 -19 20 -27 0 -8 7 -11 19 -8
14 3 21 -2 26 -20 8 -33 6 -34 -49 -36 -25 -1 -46 -6 -46 -11 0 -25 -39 31
-49 70 -13 49 -26 56 -42 20 -7 -14 -17 -22 -25 -19 -8 3 -17 -2 -20 -11 -3
-9 -13 -16 -22 -16 -13 0 -12 4 4 23 l19 22 -22 -19 c-23 -19 -31 -56 -13 -56
6 0 10 5 10 11 0 5 5 7 10 4 6 -3 10 -1 10 5 0 6 4 9 9 6 5 -4 12 0 14 6 4 9
6 8 6 -2 1 -24 -26 -53 -44 -46 -9 3 -24 -3 -36 -15 -27 -27 -34 -19 -19 28
19 62 32 83 53 83 14 0 18 5 14 20 -5 20 11 44 35 53 9 3 4 13 -13 31 -24 24
-26 30 -17 65 8 32 13 38 31 34 13 -3 18 -1 11 4 -7 4 -10 19 -9 33 1 14 3 36
4 49 l1 24 25 -23 25 -23 25 23 24 23 -22 27 -22 26 -19 -23 c-27 -35 -31 -20
-8 29 11 24 23 52 28 63 7 18 8 16 12 -10 5 -40 39 -85 76 -100 l31 -13 -26
-7 c-36 -9 -77 -54 -94 -101 -12 -34 -14 -36 -15 -13 0 15 -9 37 -20 50 l-19
24 14 -54 c19 -72 30 -81 46 -37 10 26 16 33 25 25 9 -7 15 -5 23 9 10 19 6
32 -10 32 -5 0 -6 -8 -3 -17 5 -14 4 -15 -4 -4 -13 19 14 63 37 59 9 -1 29 6
45 17 26 17 27 20 11 31 -9 7 -14 17 -11 22 3 5 -8 8 -26 6 -21 -3 -35 2 -44
14 -17 22 -17 33 0 26 18 -7 31 15 18 28 -8 8 -16 7 -27 -2 -13 -11 -15 -9
-15 9 0 12 -5 32 -11 43 -8 14 -8 23 0 31 6 6 11 21 11 33 0 22 33 54 56 54 7
0 15 -7 18 -16 3 -8 2 -13 -3 -10 -4 3 -15 -2 -24 -12 -14 -15 -14 -19 4 -41
15 -19 22 -21 33 -12 20 17 56 -34 37 -52 -10 -9 -12 -9 -9 1 2 8 -7 18 -20
23 -16 6 -23 6 -20 -2 2 -6 8 -10 13 -10 6 0 13 -9 18 -21 6 -18 9 -18 24 -7
15 12 16 12 10 -3 -3 -10 2 -26 12 -39 l17 -22 13 30 c9 22 18 29 30 26 11 -3
21 2 24 11 8 20 -13 33 -24 15 -7 -12 -9 -11 -9 1 0 25 31 62 47 56 8 -3 28 4
44 16 30 22 30 22 9 38 -12 9 -22 23 -23 30 -2 8 -6 21 -11 28 -10 16 -7 19
19 22 40 4 54 0 60 -20 9 -27 19 -25 34 6 7 16 17 24 26 20 22 -8 30 13 10 28
-15 11 -14 13 10 24 15 7 30 11 32 8 2 -2 -5 -7 -16 -11 -28 -9 -17 -25 12
-18 19 5 18 1 -12 -31 -19 -20 -33 -36 -30 -36 3 0 23 19 44 41 22 23 34 39
28 35 -9 -5 -13 0 -13 13 0 15 16 29 57 50 54 27 59 28 80 12 12 -9 23 -22 23
-28z m7 41 c-3 -3 -12 -4 -19 -1 -8 3 -5 6 6 6 11 1 17 -2 13 -5z m-271 -141
c-11 -11 -19 6 -11 24 8 17 8 17 12 0 3 -10 2 -21 -1 -24z m-146 -48 c19 -19
43 -35 54 -36 18 0 17 -2 -6 -13 -49 -21 -98 -77 -98 -110 0 -22 -3 -27 -9
-17 -5 8 -7 20 -4 27 7 18 -66 94 -91 94 -16 1 -13 5 16 20 38 21 57 40 39 40
-6 0 -11 -5 -11 -11 0 -6 -5 -9 -11 -7 -29 10 2 28 82 47 3 0 20 -15 39 -34z
m40 14 c0 -25 -12 -30 -32 -12 -25 22 -23 33 7 31 15 -2 25 -9 25 -19z m647
-83 c18 -22 26 -26 36 -17 10 8 21 7 40 -2 31 -14 34 -22 11 -31 -8 -3 -12
-10 -9 -16 3 -5 1 -10 -5 -10 -8 0 -10 10 -6 28 l6 27 -20 -24 c-11 -13 -20
-34 -20 -48 0 -13 -4 -21 -10 -18 -5 3 -10 17 -10 30 0 29 -69 105 -96 105
-14 1 -11 5 11 14 32 15 29 16 72 -38z m-22 -32 c13 -21 14 -29 4 -38 -9 -8
-10 -7 -5 8 5 13 2 17 -9 12 -15 -5 -39 26 -28 38 11 11 20 6 38 -20z m216
-135 l-23 -31 23 -24 c12 -13 29 -24 37 -24 10 0 13 -7 8 -22 -3 -13 -6 -33
-6 -45 0 -13 -4 -23 -10 -23 -5 0 -10 10 -10 21 0 31 -64 105 -97 114 l-28 8
32 8 c17 5 42 23 54 40 15 22 25 27 32 20 8 -8 4 -20 -12 -42z m-1113 -56
c-14 -14 -20 -14 -33 -3 -14 12 -14 15 2 32 15 17 18 17 32 3 14 -13 14 -17
-1 -32z m1142 27 c0 -5 -4 -10 -10 -10 -5 0 -10 5 -10 10 0 6 5 10 10 10 6 0
10 -4 10 -10z m-36 -92 c-3 -4 -10 -8 -15 -8 -6 0 -8 4 -4 9 3 5 -4 12 -15 16
-20 6 -26 25 -13 39 9 9 54 -45 47 -56z m-934 -29 c0 -30 46 -86 83 -99 l32
-12 -31 -9 c-40 -11 -94 -72 -94 -104 0 -14 -4 -25 -10 -25 -5 0 -10 10 -10
21 0 30 -66 109 -91 109 -11 0 -17 5 -14 10 3 6 15 10 25 10 22 0 90 76 90
102 0 10 5 18 10 18 6 0 10 -9 10 -21z m390 2 c0 -27 48 -81 85 -97 27 -11 28
-13 10 -20 -35 -12 -95 -77 -95 -101 0 -13 -4 -23 -10 -23 -5 0 -10 9 -10 20
0 26 -55 88 -94 105 -28 12 -29 13 -7 14 30 1 101 71 101 100 0 11 5 21 10 21
6 0 10 -9 10 -19z m-665 -121 c-28 -12 -37 -12 -30 0 3 6 16 10 28 9 21 0 21
-1 2 -9z m205 -50 c18 -26 18 -40 -2 -40 -5 0 -7 4 -3 9 3 5 -3 12 -14 16 -23
7 -35 42 -14 42 8 0 23 -12 33 -27z m-234 -7 c-10 -10 -19 5 -10 18 6 11 8 11
12 0 2 -7 1 -15 -2 -18z m644 -18 c0 -8 -4 -15 -10 -15 -5 0 -7 7 -4 15 4 8 8
15 10 15 2 0 4 -7 4 -15z m-524 -77 c16 -29 4 -47 -16 -23 -11 13 -16 11 -40
-15 -21 -22 -37 -30 -62 -30 l-33 1 37 20 c42 21 63 49 74 94 l7 29 10 -24 c5
-14 15 -37 23 -52z m374 47 c0 -8 -4 -17 -10 -20 -6 -4 -10 5 -10 20 0 15 4
24 10 20 6 -3 10 -12 10 -20z m400 -3 c0 -10 7 -27 15 -39 14 -20 13 -21 -8
-16 -47 10 -51 13 -39 25 7 7 12 23 12 36 0 13 4 20 10 17 6 -3 10 -14 10 -23z
m449 -56 c33 -31 39 -54 19 -74 -9 -9 -8 -12 7 -12 16 0 17 -2 3 -17 -17 -20
-13 -43 8 -43 8 0 14 -9 14 -20 0 -24 -4 -25 -35 -4 -23 15 -37 43 -15 29 12
-7 12 -3 4 20 -6 15 -8 14 -25 -1 -17 -16 -20 -15 -46 2 -29 19 -33 21 -59 23
-8 0 -12 6 -9 11 5 8 12 7 23 -2 15 -12 16 -11 2 6 -8 10 -26 23 -40 29 -25
10 -25 11 -3 14 20 4 93 77 91 92 -3 27 6 31 17 6 7 -16 27 -43 44 -59z m-3
45 c-3 -5 1 -11 9 -15 8 -3 15 -13 15 -23 0 -15 -2 -15 -21 4 -18 18 -20 43
-3 43 3 0 3 -4 0 -9z m-496 -10 c0 -14 -18 -23 -31 -15 -8 4 -7 9 2 15 18 11
29 11 29 0z m177 -93 l62 -18 15 -73 c9 -39 17 -90 19 -112 l3 -40 21 43 20
43 23 -91 c17 -70 25 -88 35 -80 10 8 14 -1 19 -42 16 -124 -68 -482 -141
-608 -58 -98 -180 -197 -336 -271 -87 -41 -163 -40 -242 1 -81 43 -235 161
-279 214 -91 112 -148 329 -149 571 -1 128 1 144 23 190 l24 50 7 -30 7 -30 8
25 c25 81 108 207 163 247 l27 21 -30 -58 c-17 -32 -28 -61 -25 -64 3 -4 26 3
50 13 24 11 46 16 47 11 6 -17 104 -11 180 10 92 26 94 25 52 -11 l-35 -30 50
6 c67 8 161 55 210 105 44 45 51 45 172 8z m-1059 -20 c-6 -18 -28 -21 -28 -4
0 9 7 16 16 16 9 0 14 -5 12 -12z m34 -425 c16 -19 51 -114 44 -120 -2 -2 -13
11 -25 30 -28 45 -66 66 -86 46 -7 -8 -16 -27 -20 -44 l-6 -30 15 33 c18 39
47 42 70 7 15 -23 15 -26 -4 -45 -12 -12 -20 -32 -19 -52 l1 -33 8 33 c10 42
24 57 45 48 14 -5 15 -14 10 -47 -6 -34 -3 -44 16 -65 l22 -24 -28 0 c-16 0
-39 10 -52 22 -13 12 -23 17 -23 11 0 -17 27 -34 67 -43 52 -12 58 -4 28 36
-17 23 -24 41 -20 54 9 29 19 25 32 -12 18 -49 37 -167 30 -175 -4 -3 -21 -6
-37 -6 -58 0 -157 108 -181 196 -24 91 13 197 70 197 15 0 35 -8 43 -17z
m1383 -98 c59 -59 14 -223 -85 -306 -46 -39 -95 -56 -117 -41 -10 6 -10 16 -1
45 10 31 16 38 47 42 46 8 85 24 77 32 -3 4 -12 1 -18 -5 -7 -7 -23 -12 -36
-12 -22 0 -22 1 -8 22 9 12 16 39 16 60 0 20 5 40 10 43 16 10 38 -13 43 -43
4 -25 4 -24 6 5 1 22 -5 36 -19 46 -21 14 -20 15 11 41 37 32 52 30 61 -10 6
-27 6 -27 5 6 -3 46 -32 51 -76 15 -17 -15 -31 -24 -31 -21 0 20 44 96 58 99
30 8 33 7 57 -18z m-135 -178 c0 -13 -11 -34 -26 -48 -27 -26 -27 -25 -2 44
13 33 28 35 28 4z m-713 -559 c33 -15 68 -22 113 -22 60 0 74 4 163 52 l97 52
0 -70 c0 -50 -5 -78 -17 -97 -10 -15 -69 -73 -132 -129 l-115 -103 -65 56
c-36 31 -101 90 -143 132 l-78 76 0 82 0 82 64 -45 c35 -24 86 -54 113 -66z
m-197 16 c0 -14 -4 -23 -10 -19 -6 4 -7 12 -4 18 5 9 4 9 -6 1 -34 -32 47
-120 360 -389 129 -111 241 -209 249 -219 12 -15 10 -52 -19 -284 -30 -246
-49 -347 -50 -266 0 17 -14 73 -30 125 -26 80 -94 344 -115 446 -7 35 -28 48
-53 34 -10 -6 -23 -6 -34 0 -26 14 -47 0 -57 -40 -5 -20 -30 -124 -56 -231
-25 -107 -55 -215 -66 -239 -10 -24 -19 -54 -19 -67 0 -12 -4 -25 -8 -28 -4
-3 -18 70 -31 162 -13 92 -38 266 -57 387 -19 121 -34 224 -34 229 0 5 17 -10
38 -34 44 -53 62 -71 127 -130 27 -25 11 -4 -36 45 -133 140 -136 145 -150
260 -11 90 -10 109 5 170 17 69 30 95 47 95 5 0 9 -12 9 -26z m632 -55 c17
-68 22 -169 10 -231 -5 -26 -28 -63 -75 -118 -38 -44 -71 -80 -75 -80 -5 0
-44 31 -89 68 l-80 69 125 118 c132 126 162 164 161 205 0 23 -1 23 -9 5 -8
-18 -9 -17 -9 8 -2 51 23 24 41 -44z m-11 -409 c-8 -66 -17 -120 -20 -120 -3
1 -28 21 -55 45 l-49 44 69 75 c38 42 69 76 69 76 1 0 -6 -54 -14 -120z m-331
-119 c0 -3 3 -16 6 -29 6 -21 5 -22 -20 -11 -24 11 -34 37 -20 52 7 7 34 -2
34 -12z m70 -18 c0 -14 -3 -23 -6 -20 -4 3 -15 2 -25 -4 -15 -7 -19 -6 -19 5
0 28 12 46 31 46 14 0 19 -7 19 -27z m-82 -45 c7 -7 12 -40 12 -80 0 -62 -2
-68 -20 -68 -25 0 -21 9 -54 -165 -15 -77 -29 -151 -31 -165 l-6 -25 11 24
c10 23 59 241 65 291 2 14 4 27 4 29 1 2 8 -2 16 -9 13 -11 15 -65 15 -379 0
-361 0 -368 -22 -411 -16 -30 -36 -51 -63 -65 -22 -12 -60 -35 -84 -53 -24
-18 -48 -32 -52 -32 -14 0 -50 131 -56 201 -5 58 -3 69 15 87 21 21 49 125 76
282 8 47 24 110 36 140 19 52 20 44 4 -25 -4 -16 -4 -28 -1 -25 11 10 107 418
107 456 0 8 17 3 28 -8z m83 -5 c7 -79 21 -136 30 -121 6 8 7 2 4 -17 -3 -18
9 -84 29 -160 19 -71 35 -124 35 -117 1 7 -10 59 -24 114 -14 55 -24 102 -22
105 3 2 15 -38 27 -89 13 -51 29 -107 36 -125 7 -18 25 -103 39 -190 28 -163
45 -223 66 -223 8 0 10 -19 7 -67 -6 -72 -43 -213 -57 -213 -4 0 -28 15 -52
34 -24 18 -54 36 -66 40 -35 11 -80 65 -92 110 -13 51 -13 709 0 743 11 29 27
30 33 1 2 -13 14 -79 26 -148 13 -69 27 -134 32 -145 11 -25 6 10 -22 165 -31
173 -27 163 -55 157 -24 -4 -25 -2 -25 54 0 32 4 69 10 83 11 29 39 35 41 9z
m375 -5 c12 -14 13 -18 3 -10 -9 6 -19 9 -22 5 -4 -3 -7 1 -7 10 0 22 3 21 26
-5z m54 -43 c13 -14 21 -25 18 -25 -2 0 -15 11 -28 25 -13 14 -21 25 -18 25 2
0 15 -11 28 -25z m-83 -22 c-3 -10 -5 -4 -5 12 0 17 2 24 5 18 2 -7 2 -21 0
-30z m56 11 c9 -10 -4 -34 -19 -34 -8 0 -14 9 -14 20 0 19 19 27 33 14z m87
-45 c0 -5 -17 -8 -37 -7 -38 1 -38 1 -5 5 20 3 30 8 26 15 -4 7 -2 8 4 4 7 -4
12 -11 12 -17z m-633 -11 c-3 -8 -6 -5 -6 6 -1 11 2 17 5 13 3 -3 4 -12 1 -19z
m480 -25 c-3 -10 -5 -4 -5 12 0 17 2 24 5 18 2 -7 2 -21 0 -30z m133 -68 c0
-3 -12 -4 -27 -4 -24 2 -25 2 -5 6 l22 4 -30 44 c-16 24 -30 47 -30 52 0 4 16
-16 35 -44 19 -29 35 -55 35 -58z m-72 62 c4 -21 -25 -34 -40 -19 -8 8 -8 16
2 27 16 19 34 15 38 -8z m-551 -19 c-3 -8 -6 -5 -6 6 -1 11 2 17 5 13 3 -3 4
-12 1 -19z m200 -10 c-3 -8 -6 -5 -6 6 -1 11 2 17 5 13 3 -3 4 -12 1 -19z
m280 -10 c-3 -8 -6 -5 -6 6 -1 11 2 17 5 13 3 -3 4 -12 1 -19z m-490 -20 c-3
-8 -6 -5 -6 6 -1 11 2 17 5 13 3 -3 4 -12 1 -19z m556 5 c-7 -2 -21 -2 -30 0
-10 3 -4 5 12 5 17 0 24 -2 18 -5z m-566 -45 c-3 -8 -6 -5 -6 6 -1 11 2 17 5
13 3 -3 4 -12 1 -19z m-10 -40 c-3 -8 -6 -5 -6 6 -1 11 2 17 5 13 3 -3 4 -12
1 -19z m-10 -40 c-3 -8 -6 -5 -6 6 -1 11 2 17 5 13 3 -3 4 -12 1 -19z m-167
-483 c-30 -36 16 -262 74 -362 18 -31 21 -44 13 -51 -23 -18 -79 -43 -84 -38
-14 14 -55 181 -65 266 -15 125 -8 162 35 183 41 20 42 20 27 2z m667 -128
c-5 -95 -41 -259 -67 -308 -11 -19 -11 -19 -53 2 -23 12 -44 23 -45 24 -2 2
12 36 32 77 62 126 95 304 64 337 -7 7 7 3 31 -9 l44 -22 -6 -101z m-296 -95
c94 -51 94 -52 91 -120 -2 -35 1 -68 6 -75 6 -7 15 -79 21 -162 7 -82 21 -228
31 -324 11 -96 18 -176 16 -179 -22 -22 -340 -19 -455 4 l-33 7 6 56 c28 236
46 401 52 489 4 56 11 105 15 108 5 3 9 34 9 70 l0 65 47 27 c26 15 66 46 88
68 l40 42 18 -30 c9 -16 31 -37 48 -46z m-262 -124 l0 -43 -17 33 c-14 29 -14
34 -2 42 8 6 16 10 18 10 1 0 2 -19 1 -42z m411 25 c0 -11 -32 -64 -36 -60 -3
3 -2 21 1 40 5 25 11 34 21 30 8 -3 14 -7 14 -10z m-182 -788 c111 -1 204 -4
206 -6 2 -2 6 -27 10 -55 7 -58 14 -52 -119 -105 -38 -16 -63 -28 -55 -28 8 0
51 15 95 33 55 24 82 30 86 23 7 -14 30 -179 26 -183 -10 -10 -158 -24 -259
-24 -101 0 -317 16 -326 25 -2 2 7 78 20 170 l23 167 45 -8 c25 -4 136 -8 248
-9z"/>
<path d="M1830 6022 c0 -5 7 -15 15 -22 8 -7 15 -8 15 -2 0 5 -7 15 -15 22 -8
7 -15 8 -15 2z"/>
<path d="M1679 5976 c-7 -14 -17 -22 -25 -19 -8 3 -17 -2 -20 -11 -9 -22 5
-34 16 -16 8 13 10 13 10 -1 0 -15 -30 -49 -43 -49 -4 0 -4 14 0 32 6 28 5 30
-9 17 -9 -7 -14 -19 -11 -25 4 -12 -18 -39 -39 -47 -9 -3 -3 -14 17 -30 16
-14 34 -23 38 -20 11 7 47 -27 47 -44 0 -7 -5 -13 -11 -13 -5 0 -8 4 -5 9 3 4
-6 13 -19 19 -14 6 -27 7 -30 2 -7 -11 12 -23 25 -15 6 3 10 -4 10 -16 0 -16
5 -20 19 -16 15 3 20 -2 25 -24 7 -37 24 -37 40 1 9 22 15 27 23 19 8 -8 14
-5 22 10 7 12 18 21 26 21 8 0 15 7 15 15 0 19 -19 20 -26 1 -3 -8 -12 -12
-20 -9 -10 4 -12 0 -7 -13 4 -12 3 -15 -5 -10 -7 4 -12 13 -12 20 0 18 35 48
52 44 7 -1 26 6 41 16 l28 19 -22 24 c-15 15 -29 21 -41 17 -20 -6 -61 34 -51
50 3 4 9 3 13 -4 4 -7 13 -11 19 -9 8 3 8 10 -3 24 -11 16 -17 17 -29 7 -12
-10 -15 -7 -20 18 -8 36 -23 39 -38 6z m31 -26 c0 -26 48 -80 85 -96 18 -8 23
-13 13 -14 -25 0 -98 -68 -98 -90 0 -10 -3 -26 -6 -35 -5 -13 -8 -14 -15 -3
-5 7 -9 21 -9 31 0 31 -49 85 -83 93 l-32 7 25 9 c39 14 100 79 100 106 0 13
4 20 10 17 6 -3 10 -15 10 -25z"/>
<path d="M1671 5876 l-23 -25 22 -31 22 -31 29 27 28 27 -22 28 c-27 34 -28
35 -56 5z m39 -25 c0 -6 -4 -13 -10 -16 -5 -3 -10 1 -10 9 0 9 5 16 10 16 6 0
10 -4 10 -9z"/>
<path d="M1440 5914 c0 -8 5 -12 10 -9 6 3 10 10 10 16 0 5 -4 9 -10 9 -5 0
-10 -7 -10 -16z"/>
<path d="M1785 5910 c-3 -5 -1 -10 4 -10 6 0 11 5 11 10 0 6 -2 10 -4 10 -3 0
-8 -4 -11 -10z"/>
<path d="M1411 5782 c0 -7 -5 -10 -11 -7 -5 3 -10 2 -10 -4 0 -5 7 -11 15 -13
12 -2 8 -12 -16 -43 l-32 -40 39 40 c22 22 46 49 54 60 14 20 14 20 -7 2 -21
-18 -21 -18 -26 0 -3 10 -5 12 -6 5z"/>
<path d="M1945 5767 c8 -13 34 -39 58 -57 39 -31 38 -29 -13 23 -60 63 -68 69
-45 34z"/>
<path d="M1492 5768 c-6 -6 -12 -20 -12 -30 0 -11 -5 -15 -14 -12 -19 7 -65
-26 -65 -46 0 -12 2 -12 13 3 7 9 18 17 25 17 6 0 11 5 11 12 0 9 3 9 12 0 9
-9 6 -17 -12 -37 -12 -13 -27 -22 -31 -19 -7 4 -38 -11 -68 -33 -2 -1 8 -14
23 -28 21 -20 31 -23 41 -15 10 8 17 5 29 -12 18 -26 21 -48 5 -48 -5 0 -7 5
-4 10 3 6 -1 10 -9 10 -9 0 -16 5 -16 10 0 14 -19 12 -35 -4 -10 -10 -11 -16
-2 -25 18 -18 31 -13 16 6 -12 15 -12 16 4 10 10 -4 21 -7 23 -7 2 0 4 -7 4
-16 0 -11 6 -15 19 -11 15 3 20 -2 25 -24 7 -37 24 -37 39 -1 7 16 18 27 24
25 7 -3 16 3 19 12 9 21 -5 33 -16 15 -8 -13 -10 -13 -10 1 0 22 44 61 56 50
5 -6 20 0 38 14 l30 24 -25 20 c-13 11 -30 18 -38 15 -16 -5 -51 23 -51 42 0
7 5 16 12 20 8 5 9 2 5 -9 -5 -12 -1 -17 12 -17 11 0 22 -6 24 -12 4 -10 6
-10 6 0 1 7 -6 15 -14 18 -8 4 -15 13 -15 21 0 10 -7 14 -20 10 -12 -3 -20 0
-20 7 0 7 -6 20 -13 29 -10 14 -15 15 -25 5z m51 -96 c18 -19 46 -40 62 -47
30 -13 30 -13 5 -14 -32 -1 -95 -64 -104 -104 -8 -32 -26 -27 -26 8 0 27 -60
95 -84 95 -9 0 -16 5 -16 10 0 6 8 10 17 10 22 0 93 69 93 90 0 27 15 34 18 8
2 -12 18 -38 35 -56z"/>
<path d="M1470 5645 l-23 -24 25 -30 26 -30 28 30 28 29 -24 25 c-29 31 -31
31 -60 0z m40 -25 c0 -5 -4 -10 -10 -10 -5 0 -10 5 -10 10 0 6 5 10 10 10 6 0
10 -4 10 -10z"/>
<path d="M1871 5748 c-8 -24 -14 -29 -23 -20 -8 8 -17 6 -34 -11 -26 -24 -30
-37 -13 -37 5 0 8 4 5 9 -3 5 5 11 19 13 30 6 33 -12 7 -35 -11 -10 -22 -13
-28 -8 -5 6 -21 0 -38 -14 l-30 -24 25 -20 c13 -12 32 -19 42 -17 10 2 25 -6
37 -21 19 -25 19 -43 -1 -43 -6 0 -7 5 -4 10 3 6 2 10 -4 10 -5 0 -16 7 -25
15 -10 10 -17 12 -21 4 -4 -6 2 -13 13 -16 11 -2 23 -14 25 -25 4 -13 11 -19
20 -15 10 4 19 -4 27 -24 10 -23 15 -27 26 -18 8 6 14 20 14 31 0 15 5 18 19
13 14 -4 21 0 26 15 4 11 10 18 15 15 11 -7 32 20 22 29 -4 4 6 18 22 31 l30
24 -25 20 c-13 12 -32 19 -41 17 -19 -4 -64 39 -50 48 6 3 12 1 14 -6 2 -6 9
-8 16 -4 20 12 1 38 -23 32 -19 -5 -24 -1 -29 24 -7 39 -21 38 -35 -2z m29
-21 c0 -24 59 -88 95 -102 l20 -8 -20 -4 c-35 -8 -95 -74 -95 -105 0 -15 -4
-28 -10 -28 -5 0 -10 11 -10 25 0 29 -53 93 -89 107 l-26 10 25 10 c38 14 90
69 90 95 0 13 5 23 10 23 6 0 10 -10 10 -23z m80 -163 c0 -8 -4 -14 -9 -14 -5
0 -16 -7 -25 -15 -9 -9 -17 -11 -21 -5 -3 5 -1 10 6 10 7 0 9 3 6 7 -9 9 23
44 34 37 5 -3 9 -12 9 -20z"/>
<path d="M1861 5646 l-22 -24 25 -28 25 -29 27 27 28 27 -24 26 c-29 31 -31
31 -59 1z m36 -32 c-9 -9 -28 6 -21 18 4 6 10 6 17 -1 6 -6 8 -13 4 -17z"/>
<path d="M1560 5767 c0 -9 64 -67 68 -62 4 4 -22 32 -50 54 -10 7 -18 11 -18
8z"/>
<path d="M1232 5701 c13 -15 26 -27 30 -25 7 5 -35 54 -46 54 -4 0 3 -13 16
-29z"/>
<path d="M1975 5690 c-3 -5 -1 -10 4 -10 6 0 11 5 11 10 0 6 -2 10 -4 10 -3 0
-8 -4 -11 -10z"/>
<path d="M1200 5680 c0 -5 5 -10 10 -10 6 0 10 5 10 10 0 6 -4 10 -10 10 -5 0
-10 -4 -10 -10z"/>
<path d="M1197 5553 c-12 -11 -8 -23 8 -23 8 0 15 7 15 15 0 16 -12 20 -23 8z"/>
<path d="M1214 5518 c-22 -24 -48 -54 -59 -68 l-20 -25 28 24 c22 20 27 22 27
8 0 -9 5 -17 11 -17 5 0 7 5 4 10 -3 6 -1 10 4 10 6 0 11 4 11 10 0 5 -8 6
-17 3 -11 -4 -2 11 20 35 33 38 43 52 34 52 -2 0 -21 -19 -43 -42z"/>
<path d="M1570 5543 c0 -8 5 -13 12 -11 18 6 21 25 3 25 -8 0 -15 -7 -15 -14z"/>
<path d="M2059 5499 c-22 -60 -47 -83 -76 -72 -7 3 -13 0 -13 -6 0 -6 -7 -11
-15 -11 -21 0 -19 -13 8 -39 13 -12 30 -19 39 -16 8 3 22 -3 32 -13 15 -17 15
-20 1 -25 -8 -4 -15 -3 -15 2 0 5 -9 11 -20 14 -27 7 -25 -3 10 -37 16 -15 34
-25 40 -21 6 4 15 -6 21 -24 14 -39 24 -39 37 -1 8 20 16 28 26 24 9 -3 20 3
28 15 7 12 18 21 25 21 7 0 13 8 13 18 0 14 -2 15 -10 2 -5 -8 -10 -11 -10 -7
0 4 -9 3 -21 -3 -11 -7 -23 -9 -26 -6 -11 10 30 46 46 42 9 -3 27 4 40 15 l23
19 -26 26 c-20 21 -29 24 -39 15 -18 -14 -63 31 -51 50 6 10 9 9 13 -4 4 -12
10 -14 21 -7 13 8 13 11 -2 26 -14 14 -20 15 -32 5 -12 -10 -15 -7 -21 18 -11
50 -22 45 -46 -20z m41 -10 c0 -23 75 -89 103 -90 20 -1 20 -1 -5 -13 -43 -19
-98 -77 -98 -103 0 -13 -4 -23 -10 -23 -5 0 -10 11 -10 24 0 27 -79 105 -107
107 -10 0 -4 5 13 10 41 12 94 72 94 107 0 21 2 24 10 12 5 -8 10 -22 10 -31z
m-40 -183 c0 -3 -4 -8 -10 -11 -5 -3 -10 -1 -10 4 0 6 5 11 10 11 6 0 10 -2
10 -4z"/>
<path d="M2067 5422 l-26 -27 24 -30 24 -30 27 27 27 26 -25 31 -26 30 -25
-27z m33 -33 c0 -5 -4 -9 -10 -9 -5 0 -10 7 -10 16 0 8 5 12 10 9 6 -3 10 -10
10 -16z"/>
<path d="M1765 5520 c10 -11 25 -20 33 -20 12 0 12 4 -3 20 -10 11 -25 20 -33
20 -12 0 -12 -4 3 -20z"/>
<path d="M1735 5500 c-3 -5 -1 -10 5 -10 6 0 9 -4 5 -9 -3 -5 -1 -12 5 -16 5
-3 10 3 10 14 0 23 -16 36 -25 21z"/>
<path d="M2023 5492 c-3 -11 -11 -18 -18 -16 -16 7 -26 -19 -14 -37 7 -11 9
-9 9 9 0 12 3 21 8 21 28 -5 52 24 31 37 -6 3 -13 -3 -16 -14z"/>
<path d="M1590 5464 c0 -8 5 -12 10 -9 6 3 10 10 10 16 0 5 -4 9 -10 9 -5 0
-10 -7 -10 -16z"/>
<path d="M1056 5454 c-4 -9 -4 -19 -1 -22 2 -3 7 3 11 12 4 9 4 19 1 22 -2 3
-7 -3 -11 -12z"/>
<path d="M1385 5460 c-3 -5 -1 -10 4 -10 6 0 11 5 11 10 0 6 -2 10 -4 10 -3 0
-8 -4 -11 -10z"/>
<path d="M1770 5460 c0 -5 5 -10 10 -10 6 0 10 5 10 10 0 6 -4 10 -10 10 -5 0
-10 -4 -10 -10z"/>
<path d="M2175 5460 c-3 -5 -1 -10 4 -10 6 0 11 5 11 10 0 6 -2 10 -4 10 -3 0
-8 -4 -11 -10z"/>
<path d="M1798 5296 c-20 -15 -23 -26 -8 -26 5 0 14 9 20 20 12 23 11 24 -12
6z"/>
<path d="M1950 5303 c1 -12 51 -46 57 -39 3 3 -5 14 -18 25 -25 21 -39 26 -39
14z"/>
<path d="M1175 5276 c17 -13 32 -22 34 -20 8 7 -32 44 -48 44 -11 0 -6 -8 14
-24z"/>
<path d="M1136 5271 c-4 -6 -2 -11 4 -11 6 0 8 -6 4 -12 -6 -10 -4 -10 7 0 9
9 10 15 2 23 -8 8 -13 8 -17 0z"/>
<path d="M1165 5240 c-3 -5 1 -10 10 -10 9 0 13 5 10 10 -3 6 -8 10 -10 10 -2
0 -7 -4 -10 -10z"/>
<path d="M1290 5865 l-24 -26 27 -27 27 -27 27 27 27 27 -24 26 c-13 14 -26
25 -30 25 -4 0 -17 -11 -30 -25z m40 -25 c0 -5 -4 -10 -10 -10 -5 0 -10 5 -10
10 0 6 5 10 10 10 6 0 10 -4 10 -10z"/>
<path d="M1272 5417 c-27 -29 -27 -35 -1 -63 l21 -23 25 29 c23 28 23 30 7 55
-20 31 -25 31 -52 2z m28 -27 c0 -5 -5 -10 -11 -10 -5 0 -7 5 -4 10 3 6 8 10
11 10 2 0 4 -4 4 -10z"/>
<path d="M1662 5418 l-21 -23 24 -27 23 -26 26 27 26 27 -23 22 c-29 27 -29
27 -55 0z m46 -11 c7 -8 6 -18 -4 -32 -13 -18 -15 -18 -31 -3 -13 14 -14 20
-3 32 15 19 24 20 38 3z"/>
<path d="M2270 5195 l-24 -25 28 -29 28 -30 26 30 25 30 -23 24 c-29 31 -31
31 -60 0z m48 -27 c-3 -7 -11 -13 -18 -13 -7 0 -15 6 -17 13 -3 7 4 12 17 12
13 0 20 -5 18 -12z"/>
<path d="M1314 4920 c-34 -11 -112 -75 -103 -84 3 -4 23 1 45 11 37 16 123 20
254 10 43 -3 47 17 8 46 -31 23 -152 33 -204 17z"/>
<path d="M1861 4873 c-13 -11 -21 -24 -18 -30 4 -6 50 -13 102 -15 82 -5 105
-10 156 -36 32 -17 59 -26 59 -21 0 22 -36 61 -78 86 -62 36 -185 45 -221 16z"/>
<path d="M1350 4754 c-83 -28 -102 -38 -116 -66 -14 -27 -14 -31 6 -61 l21
-32 -7 28 c-7 31 12 59 58 83 36 19 58 18 31 -1 -32 -22 -48 -82 -33 -120 6
-16 11 -32 10 -35 -3 -9 36 -19 81 -19 42 -1 46 1 62 34 23 48 21 87 -5 121
l-22 29 23 -20 c13 -11 33 -33 43 -50 l20 -30 -7 30 c-9 42 -30 72 -63 89 -33
17 -82 26 -102 20z m30 -83 c0 -19 -23 -35 -34 -24 -14 15 -5 43 14 43 13 0
20 -7 20 -19z"/>
<path d="M1451 4757 c2 -1 15 -11 29 -22 l25 -20 -19 23 c-11 12 -24 22 -29
22 -6 0 -8 -1 -6 -3z"/>
<path d="M1894 4714 c-19 -15 -19 -15 1 -6 11 5 27 12 35 15 13 5 13 6 -1 6
-8 1 -24 -6 -35 -15z"/>
<path d="M1904 4691 c-34 -21 -64 -58 -64 -78 0 -7 14 1 30 19 l31 33 -17 -36
c-11 -25 -15 -48 -10 -73 10 -54 28 -66 99 -65 34 0 56 3 49 6 -10 4 -10 9 4
24 10 11 16 34 16 61 -1 35 -7 48 -32 71 -35 31 -33 33 15 13 43 -18 69 -57
63 -96 -4 -24 -2 -27 9 -18 30 24 34 46 16 82 -34 66 -144 96 -209 57z m44
-64 c4 -22 -27 -35 -38 -16 -10 15 7 42 24 36 6 -2 12 -11 14 -20z"/>
<path d="M1590 4360 c0 -5 9 -10 21 -10 11 0 17 5 14 10 -3 6 -13 10 -21 10
-8 0 -14 -4 -14 -10z"/>
<path d="M1746 4353 c-6 -14 -5 -15 5 -6 7 7 10 15 7 18 -3 3 -9 -2 -12 -12z"/>
<path d="M1700 4350 c-12 -8 -11 -10 8 -10 12 0 22 5 22 10 0 13 -11 13 -30 0z"/>
<path d="M1446 4262 c-9 -15 86 -114 128 -133 51 -23 131 -24 172 -1 27 14
114 87 114 94 0 2 -44 4 -98 5 -121 3 -283 22 -299 34 -6 6 -14 6 -17 1z m229
-48 c58 -4 105 -10 105 -14 0 -24 -135 -26 -208 -5 -58 18 -85 42 -34 32 17
-4 78 -9 137 -13z m46 -71 c17 -17 -55 -25 -105 -12 -25 6 -46 16 -46 22 0 13
138 3 151 -10z"/>
<path d="M1615 4060 c19 -8 73 -14 64 -6 -2 2 -22 6 -44 9 -28 5 -34 4 -20 -3z"/>
<path d="M1678 1123 c7 -3 16 -2 19 1 4 3 -2 6 -13 5 -11 0 -14 -3 -6 -6z"/>
<path d="M1638 1113 c7 -3 16 -2 19 1 4 3 -2 6 -13 5 -11 0 -14 -3 -6 -6z"/>
<path d="M1828 854 c-38 -20 -36 -28 2 -9 17 9 30 18 30 20 0 7 -1 6 -32 -11z"/>
<path d="M1735 809 c-22 -10 -29 -16 -15 -13 28 7 80 33 65 33 -5 0 -28 -9
-50 -20z"/>
<path d="M1640 780 c-20 -6 -21 -8 -5 -8 11 0 29 3 40 8 25 11 -1 11 -35 0z"/>
<path d="M1573 763 c9 -2 23 -2 30 0 6 3 -1 5 -18 5 -16 0 -22 -2 -12 -5z"/>
<path d="M1774 358 c-27 -35 -87 -104 -134 -154 -69 -74 -65 -71 20 16 90 91
181 200 167 200 -2 0 -26 -28 -53 -62z"/>
</g>
</svg>
