<?xml version="1.0" standalone="no"?>
<!DOCTYPE svg PUBLIC "-//W3C//DTD SVG 20010904//EN"
 "http://www.w3.org/TR/2001/REC-SVG-20010904/DTD/svg10.dtd">
<svg version="1.0" xmlns="http://www.w3.org/2000/svg"
 width="223.000000pt" height="419.000000pt" viewBox="0 0 223.000000 419.000000"
 preserveAspectRatio="xMidYMid meet">

<g transform="translate(0.000000,419.000000) scale(0.100000,-0.100000)"
fill="#000000" stroke="none">
<path d="M976 4135 c-27 -8 -72 -30 -100 -50 -28 -20 -103 -71 -166 -112 -63
-42 -158 -104 -210 -139 -97 -64 -190 -149 -236 -217 -115 -171 -142 -469 -64
-707 10 -30 28 -90 41 -133 l22 -78 29 27 c33 32 63 106 73 182 8 58 14 63
117 101 251 93 686 121 1008 67 103 -18 304 -77 333 -98 9 -7 24 -42 33 -78
17 -67 53 -148 85 -188 l18 -23 16 58 c9 32 30 99 46 148 39 122 52 227 45
360 -6 130 -24 205 -71 300 -62 128 -145 203 -400 365 -71 46 -166 109 -210
141 -56 40 -99 63 -140 74 -71 18 -202 18 -269 0z"/>
<path d="M597 2956 c-54 -15 -97 -50 -81 -66 6 -6 27 -3 62 10 29 11 72 20 97
20 47 0 63 11 41 29 -22 18 -68 21 -119 7z"/>
<path d="M1540 2961 c-14 -4 -26 -15 -28 -24 -3 -14 5 -17 42 -17 25 0 69 -9
98 -20 56 -21 82 -14 58 15 -30 36 -118 60 -170 46z"/>
<path d="M625 2841 c-41 -10 -80 -37 -101 -69 -16 -26 -15 -26 17 4 47 44 71
54 123 54 59 0 92 -13 129 -53 16 -17 25 -23 19 -12 -16 31 -47 56 -89 71 -42
15 -54 15 -98 5z"/>
<path d="M1525 2841 c-45 -11 -71 -28 -94 -60 -30 -41 -26 -48 5 -11 36 42 74
60 128 60 59 0 92 -13 129 -53 16 -17 25 -23 19 -12 -30 58 -116 93 -187 76z"/>
<path d="M678 2735 c8 -44 -41 -81 -86 -64 -55 21 -26 -80 31 -107 113 -54
205 115 98 179 -40 23 -49 21 -43 -8z m52 -140 c0 -8 -7 -15 -15 -15 -8 0 -15
7 -15 15 0 8 7 15 15 15 8 0 15 -7 15 -15z"/>
<path d="M1578 2732 c6 -47 -41 -76 -95 -58 -54 17 -10 -90 46 -113 61 -26
128 16 138 86 5 39 2 46 -30 78 -43 43 -65 46 -59 7z m52 -137 c0 -8 -7 -15
-15 -15 -8 0 -15 7 -15 15 0 8 7 15 15 15 8 0 15 -7 15 -15z"/>
<path d="M936 2291 c-27 -6 -28 -7 -12 -20 10 -8 32 -35 48 -60 17 -25 32 -48
34 -49 1 -2 17 7 34 19 44 33 130 33 184 -1 37 -22 40 -23 50 -6 6 10 25 40
43 67 l31 48 -35 7 c-28 5 -46 1 -80 -17 -61 -33 -171 -34 -226 -1 -21 12 -39
21 -40 21 -1 -1 -15 -4 -31 -8z"/>
<path d="M623 1985 c34 -86 32 -440 -3 -725 -11 -91 -20 -182 -20 -202 l0 -37
123 -3 c168 -4 170 -4 182 62 l11 53 196 1 197 1 6 -40 c13 -81 0 -75 167 -75
l151 0 -6 58 c-4 31 -13 116 -21 187 -37 312 -40 545 -10 689 5 24 3 28 -10
23 -18 -7 -123 -25 -170 -29 -25 -3 -31 -9 -43 -48 -44 -142 -80 -459 -71
-627 3 -64 1 -74 -15 -79 -25 -8 -344 -7 -357 1 -6 4 -10 71 -10 173 0 160
-24 385 -49 466 -6 17 -15 50 -21 73 -10 38 -14 43 -48 49 -45 7 -145 32 -168
41 -14 5 -16 3 -11 -12z"/>
<path d="M884 1931 c4 -5 14 -7 23 -4 10 4 14 2 9 -5 -3 -6 -2 -13 3 -16 5 -4
8 2 7 11 -2 10 -13 20 -26 21 -13 2 -20 0 -16 -7z"/>
<path d="M1255 1920 c-4 -6 1 -7 11 -3 13 5 15 3 9 -8 -7 -12 -6 -12 11 1 10
8 21 16 23 17 2 2 -7 3 -22 3 -14 0 -29 -4 -32 -10z"/>
<path d="M952 1901 c-11 -7 -11 -9 0 -14 9 -3 15 1 15 9 0 8 -1 14 -1 14 -1 0
-7 -4 -14 -9z"/>
<path d="M1199 1863 c-13 -17 -13 -17 6 -3 11 8 22 16 24 17 2 2 0 3 -6 3 -6
0 -17 -8 -24 -17z"/>
<path d="M1134 1838 l-19 -23 23 19 c21 18 27 26 19 26 -2 0 -12 -10 -23 -22z"/>
<path d="M1154 1828 l-19 -23 23 19 c21 18 27 26 19 26 -2 0 -12 -10 -23 -22z"/>
<path d="M1052 1649 c-12 -21 -21 -39 -18 -39 7 0 49 71 44 75 -2 2 -14 -14
-26 -36z"/>
<path d="M969 1523 c-13 -16 -12 -17 4 -4 9 7 17 15 17 17 0 8 -8 3 -21 -13z"/>
<path d="M939 1483 c-13 -16 -12 -17 4 -4 9 7 17 15 17 17 0 8 -8 3 -21 -13z"/>
<path d="M1597 647 c-3 -8 -1 -20 4 -28 6 -10 9 -7 9 14 0 29 -5 35 -13 14z"/>
<path d="M993 623 c9 -2 23 -2 30 0 6 3 -1 5 -18 5 -16 0 -22 -2 -12 -5z"/>
<path d="M1042 605 c0 -16 2 -22 5 -12 2 9 2 23 0 30 -3 6 -5 -1 -5 -18z"/>
<path d="M1593 565 c0 -22 2 -30 4 -17 2 12 2 30 0 40 -3 9 -5 -1 -4 -23z"/>
<path d="M923 535 c0 -22 2 -30 4 -17 2 12 2 30 0 40 -3 9 -5 -1 -4 -23z"/>
<path d="M1031 545 c-1 -11 -4 -31 -6 -45 l-6 -25 11 25 c6 13 9 33 7 45 -4
19 -4 19 -6 0z"/>
<path d="M1581 504 c0 -11 3 -14 6 -6 3 7 2 16 -1 19 -3 4 -6 -2 -5 -13z"/>
<path d="M921 464 c0 -11 3 -14 6 -6 3 7 2 16 -1 19 -3 4 -6 -2 -5 -13z"/>
<path d="M1572 455 c0 -16 2 -22 5 -12 2 9 2 23 0 30 -3 6 -5 -1 -5 -18z"/>
<path d="M1012 450 c0 -14 2 -19 5 -12 2 6 2 18 0 25 -3 6 -5 1 -5 -13z"/>
<path d="M1002 400 c0 -14 2 -19 5 -12 2 6 2 18 0 25 -3 6 -5 1 -5 -13z"/>
<path d="M1556 379 c-4 -23 -5 -44 -2 -46 2 -2 7 14 11 37 4 23 5 43 2 46 -2
3 -7 -14 -11 -37z"/>
<path d="M986 353 c-6 -14 -5 -15 5 -6 7 7 10 15 7 18 -3 3 -9 -2 -12 -12z"/>
<path d="M1532 270 c-5 -22 -6 -40 -2 -40 7 0 22 71 16 77 -2 2 -8 -14 -14
-37z"/>
<path d="M972 280 c0 -14 2 -19 5 -12 2 6 2 18 0 25 -3 6 -5 1 -5 -13z"/>
<path d="M752 251 c-46 -30 -73 -78 -70 -126 4 -59 44 -77 158 -73 127 6 163
38 135 118 -7 21 -12 47 -11 57 2 10 1 12 -1 6 -6 -18 -13 -16 -40 9 -34 32
-126 37 -171 9z"/>
<path d="M1345 261 c-29 -12 -74 -61 -81 -86 -3 -12 -4 -37 -2 -56 2 -27 10
-37 38 -51 65 -33 225 -17 252 25 26 41 -15 132 -72 162 -31 16 -102 19 -135
6z"/>
</g>
</svg>
