<?xml version="1.0" standalone="no"?>
<!DOCTYPE svg PUBLIC "-//W3C//DTD SVG 20010904//EN"
 "http://www.w3.org/TR/2001/REC-SVG-20010904/DTD/svg10.dtd">
<svg version="1.0" xmlns="http://www.w3.org/2000/svg"
 width="219.000000pt" height="418.000000pt" viewBox="0 0 219.000000 418.000000"
 preserveAspectRatio="xMidYMid meet">

<g transform="translate(0.000000,418.000000) scale(0.100000,-0.100000)"
fill="#000000" stroke="none">
<path d="M1064 4060 c-118 -10 -217 -37 -319 -85 -173 -81 -291 -196 -370
-360 -52 -109 -71 -178 -86 -310 -14 -124 -6 -234 32 -485 48 -310 51 -340 45
-430 -5 -85 -38 -223 -58 -248 -6 -7 -9 -14 -7 -17 9 -9 70 93 90 150 27 76
33 171 22 355 -15 268 9 353 134 471 121 112 246 156 518 179 364 31 557 59
614 90 16 8 20 5 26 -27 11 -58 50 -137 114 -231 33 -48 73 -114 88 -147 l28
-60 0 -290 c0 -275 2 -293 22 -344 22 -53 71 -136 78 -129 2 1 -8 37 -22 78
-39 113 -37 282 5 530 74 442 63 652 -47 875 -68 137 -180 253 -323 333 -138
79 -379 121 -584 102z"/>
<path d="M1161 3143 c-6 -21 -11 -45 -11 -53 0 -33 22 -90 34 -90 19 0 26 23
26 90 0 32 -3 65 -6 74 -11 28 -33 17 -43 -21z"/>
<path d="M726 2956 c-43 -16 -84 -51 -73 -63 4 -4 29 1 55 10 26 9 68 17 94
17 49 0 62 7 49 29 -12 19 -81 23 -125 7z"/>
<path d="M1493 2960 c-13 -5 -23 -16 -23 -25 0 -11 12 -15 53 -15 30 0 70 -9
95 -20 37 -17 44 -17 49 -5 8 24 -15 44 -70 60 -57 17 -72 18 -104 5z"/>
<path d="M671 2823 c17 -20 -11 -26 -32 -7 -23 21 -26 12 -3 -11 22 -21 9 -33
-19 -16 -21 13 -21 13 -4 -5 14 -15 20 -17 35 -6 62 45 80 52 127 52 51 0 91
-18 121 -56 14 -18 15 -18 4 4 -22 46 -67 63 -157 60 -60 -2 -79 -6 -72 -15z"/>
<path d="M1463 2803 c-26 -25 -27 -28 -5 -8 30 27 40 30 102 30 64 0 71 -2
103 -33 l34 -33 24 21 24 21 -23 -11 c-27 -13 -42 -6 -24 12 20 20 13 32 -7
14 -18 -16 -39 -7 -28 12 3 4 -33 8 -79 10 l-83 4 -38 -39z"/>
<path d="M770 2755 c26 -31 -27 -94 -70 -80 -31 10 -26 -31 9 -66 71 -70 182
2 150 98 -11 33 -51 63 -85 63 -13 0 -14 -3 -4 -15z m70 -131 c0 -16 -16 -19
-25 -4 -8 13 4 32 16 25 5 -4 9 -13 9 -21z"/>
<path d="M1560 2749 c22 -40 -41 -97 -75 -69 -13 10 -15 8 -15 -15 0 -34 50
-85 84 -85 55 0 106 46 106 95 0 44 -51 95 -96 95 -12 0 -13 -4 -4 -21z m70
-125 c0 -16 -16 -19 -25 -4 -8 13 4 32 16 25 5 -4 9 -13 9 -21z"/>
<path d="M1269 2353 c-55 -30 -139 -31 -194 -3 -26 13 -50 18 -68 14 l-28 -6
28 -32 c15 -17 35 -42 43 -54 l15 -23 53 23 c47 20 57 21 100 9 25 -7 55 -20
65 -29 20 -18 22 -17 57 49 10 19 26 41 34 48 9 8 16 16 16 20 0 15 -82 4
-121 -16z"/>
<path d="M1826 2163 c-36 -43 -119 -85 -212 -109 l-72 -18 0 -55 c0 -183 -109
-371 -250 -433 -58 -26 -169 -29 -224 -5 -52 22 -109 67 -101 80 3 5 2 7 -4 4
-21 -13 -93 92 -125 182 -10 31 -22 95 -25 142 l-6 86 -56 13 c-87 19 -158 49
-206 85 l-44 34 10 -29 c7 -20 7 -35 -1 -49 -6 -12 -10 -40 -9 -64 1 -23 -3
-53 -10 -66 -9 -15 -11 -40 -7 -69 5 -34 2 -50 -10 -63 -13 -14 -15 -32 -12
-80 4 -53 2 -65 -17 -83 -14 -14 -24 -41 -29 -73 -3 -28 -15 -62 -26 -76 l-20
-25 27 -6 c16 -4 43 -2 62 4 19 5 36 8 38 6 2 -1 -11 -67 -27 -146 -17 -80
-30 -155 -28 -169 3 -29 42 -44 160 -60 38 -5 72 -11 74 -14 2 -2 -2 -57 -11
-123 -15 -128 -40 -342 -56 -492 -5 -51 -7 -97 -4 -101 3 -5 36 -15 73 -21
l68 -13 12 -53 c9 -44 8 -60 -5 -94 -33 -84 24 -125 163 -118 124 6 167 48
131 124 -14 28 -14 38 -3 71 l13 38 117 3 116 3 11 -28 c12 -31 13 -57 3 -119
-10 -69 32 -94 158 -94 59 0 126 20 140 43 12 18 9 69 -5 97 -10 19 -10 36 -2
75 l11 49 64 13 c35 7 68 17 73 22 6 6 3 68 -7 158 -41 373 -56 510 -61 535
-4 25 -1 28 33 33 20 3 74 13 120 22 l82 16 0 36 c0 20 -13 97 -29 171 -16 74
-28 136 -27 137 1 2 18 -2 37 -7 19 -6 46 -8 61 -4 l28 5 -19 27 c-11 15 -22
50 -25 77 -4 36 -13 56 -31 72 -24 21 -24 25 -14 65 10 36 9 49 -6 83 -11 25
-17 58 -16 88 2 28 -2 54 -10 63 -7 9 -12 35 -10 60 1 24 -3 53 -9 65 -9 16
-8 30 5 61 9 22 15 41 13 43 -2 1 -16 -13 -32 -32z m-1153 -168 c-39 -44 -49
-51 -54 -37 -4 10 3 28 17 45 13 16 24 33 24 38 0 5 14 9 31 9 l30 0 -48 -55z
m1024 38 c3 -10 14 -27 23 -38 10 -11 15 -27 11 -36 -5 -12 -17 -4 -54 38
l-49 53 31 0 c21 0 34 -6 38 -17z"/>
<path d="M924 1983 c3 -21 8 -57 11 -80 8 -61 62 -159 109 -198 49 -40 85 -55
132 -55 110 0 223 128 239 272 3 29 8 63 11 76 4 21 2 22 -64 22 -68 0 -69 0
-126 -50 -64 -56 -58 -56 -163 7 -53 32 -82 43 -112 43 l-41 0 4 -37z"/>
</g>
</svg>
