<?xml version="1.0" standalone="no"?>
<!DOCTYPE svg PUBLIC "-//W3C//DTD SVG 20010904//EN"
 "http://www.w3.org/TR/2001/REC-SVG-20010904/DTD/svg10.dtd">
<svg version="1.0" xmlns="http://www.w3.org/2000/svg"
 width="323.000000pt" height="614.000000pt" viewBox="0 0 323.000000 614.000000"
 preserveAspectRatio="xMidYMid meet">

<g transform="translate(0.000000,614.000000) scale(0.100000,-0.100000)"
fill="#000000" stroke="none">
<path d="M1316 5579 c-22 -5 -45 -14 -53 -20 -7 -7 -46 -11 -88 -10 -87 2
-168 -27 -268 -93 -217 -144 -339 -381 -357 -696 -5 -80 -14 -191 -21 -246
-22 -176 17 -303 110 -356 32 -18 44 -33 58 -73 11 -29 37 -69 63 -97 40 -41
44 -50 39 -78 -4 -18 -21 -46 -37 -63 -45 -46 -63 -95 -52 -141 12 -52 17 -53
17 -3 0 26 10 64 24 93 l24 49 5 -62 c4 -46 11 -68 28 -86 l23 -25 -32 -45
c-22 -32 -33 -61 -37 -95 -4 -47 -6 -51 -36 -56 -18 -3 -64 -22 -103 -40 -163
-78 -208 -168 -376 -758 -41 -141 -78 -263 -84 -270 -6 -7 -21 -51 -33 -97
-17 -61 -20 -91 -14 -110 7 -19 2 -54 -20 -136 -53 -203 -31 -413 53 -489 48
-44 156 -25 339 60 42 19 77 32 80 30 2 -3 -1 -42 -7 -88 -10 -73 -15 -86 -45
-118 -39 -40 -41 -44 -66 -206 -10 -65 -36 -189 -58 -274 -59 -228 -83 -382
-89 -565 -5 -137 -8 -165 -26 -193 -17 -30 -19 -45 -14 -123 l7 -88 -138 -4
c-75 -1 592 -3 1483 -3 891 0 1554 2 1473 3 -82 2 -148 7 -148 11 0 29 -71
592 -125 995 -36 269 -65 499 -65 511 0 13 12 31 30 44 40 30 66 84 91 189 18
76 21 109 16 234 -4 117 -2 149 10 165 12 15 13 38 8 109 -4 50 -10 95 -15
100 -4 6 -11 39 -14 75 -11 94 -72 464 -97 576 -17 82 -19 107 -10 158 21 123
22 150 6 180 -8 15 -15 39 -15 51 0 53 -51 73 -386 155 -178 44 -254 59 -281
54 -21 -3 -49 -1 -64 4 -16 7 -31 7 -42 0 -29 -16 -80 7 -96 44 -19 41 -73 98
-94 98 -31 0 -26 18 6 24 67 13 128 68 225 205 17 25 41 50 52 55 14 6 19 18
18 40 -1 18 6 43 15 56 41 64 46 122 43 440 -3 346 -8 374 -91 546 -84 175
-204 298 -370 379 -136 67 -288 97 -379 74z m-66 -69 c0 -5 -7 -10 -16 -10 -8
0 -12 5 -9 10 3 6 10 10 16 10 5 0 9 -4 9 -10z m2 -45 c0 -5 -5 -11 -11 -13
-6 -2 -11 4 -11 13 0 9 5 15 11 13 6 -2 11 -8 11 -13z m8 -40 c0 -8 -7 -15
-15 -15 -8 0 -15 7 -15 15 0 8 7 15 15 15 8 0 15 -7 15 -15z m0 -40 c0 -8 -7
-15 -15 -15 -16 0 -20 12 -8 23 11 12 23 8 23 -8z m10 -44 c0 -14 -18 -23 -30
-16 -6 4 -8 11 -5 16 8 12 35 12 35 0z m455 -61 c3 -5 -10 -1 -29 11 -20 12
-36 23 -36 25 0 7 58 -25 65 -36z m-968 -13 c-17 -23 -40 -54 -50 -67 -17 -24
-17 -24 0 8 18 34 71 102 79 102 2 0 -11 -19 -29 -43z m511 31 c-6 -18 -28
-21 -28 -4 0 9 7 16 16 16 9 0 14 -5 12 -12z m-418 -31 c0 -2 -10 -12 -22 -23
l-23 -19 19 23 c18 21 26 27 26 19z m-9 -50 l-44 -42 38 47 c22 26 41 45 44
42 3 -2 -15 -24 -38 -47z m429 38 c0 -8 -4 -15 -9 -15 -13 0 -22 16 -14 24 11
11 23 6 23 -9z m416 -18 c6 -9 5 -9 -8 0 -8 7 -18 10 -22 6 -4 -4 3 -15 16
-25 l23 -18 -22 0 c-13 0 -22 4 -20 9 1 4 -9 18 -23 30 -14 13 -20 20 -13 17
6 -4 14 -2 18 4 7 12 39 -2 51 -23z m-797 -37 c-18 -22 -35 -40 -39 -40 -13 0
-3 41 15 58 10 9 15 11 11 5 -10 -18 9 -16 24 2 7 8 14 15 17 15 2 0 -11 -18
-28 -40z m386 20 c3 -5 -1 -10 -9 -10 -9 0 -16 5 -16 10 0 6 4 10 9 10 6 0 13
-4 16 -10z m-362 -67 c-16 -21 -33 -46 -36 -55 -4 -10 -11 -18 -17 -18 -6 0
-9 -4 -6 -8 7 -12 -10 -35 -28 -38 -18 -3 -15 4 23 55 14 19 19 31 12 26 -8
-5 -5 6 8 23 12 18 27 32 33 32 6 0 8 3 5 7 -4 3 -2 12 5 20 7 9 15 10 21 4 6
-6 -1 -23 -20 -48z m367 32 c0 -8 -7 -15 -15 -15 -8 0 -15 7 -15 15 0 8 7 15
15 15 8 0 15 -7 15 -15z m354 -4 c13 -14 14 -21 5 -27 -8 -4 -10 -3 -5 4 4 7
3 12 -2 12 -6 0 -12 7 -16 15 -7 20 -3 19 18 -4z m-41 -11 c4 0 5 6 1 13 -4 6
-4 9 0 5 4 -3 7 -9 6 -13 -1 -4 11 -21 27 -38 23 -25 20 -24 -19 8 -27 22 -48
41 -48 44 0 3 5 0 12 -7 7 -7 16 -12 21 -12z m-915 -25 c-6 -14 -13 -23 -15
-21 -5 5 15 46 22 46 3 0 -1 -11 -7 -25z m661 -1 c29 -37 26 -70 -9 -106 -26
-25 -36 -29 -62 -24 -38 8 -57 23 -69 54 -10 27 -3 65 11 57 4 -3 11 2 14 11
4 10 2 13 -6 8 -7 -5 -8 -3 -4 5 5 7 14 10 21 7 7 -2 26 -1 42 4 41 12 40 12
62 -16z m-391 -31 c-6 -7 -13 -11 -16 -8 -3 3 -12 -1 -21 -7 -12 -10 -12 -7 2
8 9 11 24 21 32 21 11 0 12 -4 3 -14z m587 -85 c79 -83 108 -130 49 -79 -21
19 -70 68 -109 110 -56 60 -63 71 -37 55 19 -10 62 -49 97 -86z m83 -124 c17
-10 47 -41 65 -69 l34 -50 -62 -1 c-90 -2 -190 -52 -161 -81 4 -4 44 3 90 15
110 29 167 29 192 0 26 -29 104 -78 125 -78 25 0 33 -68 26 -195 -8 -130 -30
-235 -64 -304 -31 -65 -147 -189 -250 -268 -96 -74 -137 -79 -268 -35 -138 46
-223 91 -280 147 -75 74 -160 248 -215 443 l-24 82 26 28 c38 39 73 115 104
222 21 71 37 106 68 145 23 28 64 83 91 122 l50 71 1 -38 c2 -43 22 -70 71
-91 17 -7 34 -22 37 -32 6 -23 41 -19 41 4 0 9 14 29 31 45 35 33 47 57 47 97
0 26 6 22 96 -66 53 -51 111 -102 129 -113z m-705 108 c-58 -91 -65 -100 -47
-62 19 41 77 130 82 126 2 -2 -14 -31 -35 -64z m157 -16 c-62 -93 -92 -117
-54 -44 14 28 91 118 101 118 2 0 -19 -33 -47 -74z m190 -6 c0 -5 -4 -10 -10
-10 -5 0 -10 5 -10 10 0 6 5 10 10 10 6 0 10 -4 10 -10z m40 -10 c0 -5 -4 -10
-10 -10 -5 0 -10 5 -10 10 0 6 5 10 10 10 6 0 10 -4 10 -10z m462 -145 c26
-33 28 -36 8 -20 -60 48 -83 73 -101 110 l-20 40 41 -45 c22 -25 55 -63 72
-85z m74 -83 c55 -36 73 -54 76 -74 3 -16 3 -28 1 -28 -13 0 -81 41 -97 59
-19 21 -19 21 0 21 13 1 7 7 -18 20 -20 11 -47 34 -59 52 l-24 33 25 -18 c14
-10 57 -39 96 -65z m-920 -58 c-26 -71 -65 -149 -72 -141 -2 1 18 56 44 121
50 127 71 142 28 20z m1149 -30 c48 -19 63 -146 26 -228 -11 -26 -30 -60 -42
-77 -19 -28 -23 -29 -38 -15 -23 20 -47 20 -55 0 -8 -20 1 -34 20 -34 8 0 12
-4 9 -10 -3 -5 -15 -10 -26 -10 -16 0 -19 7 -19 39 0 37 3 42 48 66 42 23 48
30 50 61 4 48 -6 74 -29 82 -17 7 -16 10 12 42 29 34 30 35 46 15 8 -11 13
-14 11 -6 -2 8 -12 19 -22 25 -14 9 -23 5 -48 -24 l-30 -35 6 45 c9 59 36 81
81 64z m-1441 -389 c19 -55 32 -102 29 -105 -3 -3 -22 14 -43 37 -60 68 -85
204 -63 338 6 37 8 31 25 -65 10 -58 34 -150 52 -205z m1394 243 c19 -19 14
-76 -8 -98 -24 -24 -49 -28 -30 -5 8 10 11 30 7 59 -8 54 4 71 31 44z m-38
-61 c0 -12 -7 -31 -15 -41 -15 -19 -15 -19 -15 5 0 37 11 69 21 63 5 -3 9 -15
9 -27z m-1171 -77 l25 -44 -31 22 c-17 12 -38 22 -47 22 -15 0 -42 -37 -33
-47 3 -2 8 5 12 16 8 27 24 26 57 0 23 -19 25 -24 12 -36 -15 -15 -19 -68 -6
-76 4 -3 7 11 7 31 0 30 4 37 20 37 16 0 20 -7 20 -32 0 -19 9 -41 24 -56 l23
-25 -24 2 c-13 2 -34 8 -48 15 l-25 12 24 -20 c20 -18 51 -26 86 -22 6 0 18
-16 27 -37 15 -35 15 -37 -3 -46 -26 -12 -35 -1 -15 20 13 12 14 19 5 30 -18
21 -37 17 -52 -13 l-14 -26 -53 49 c-60 56 -100 131 -100 189 0 93 66 114 109
35z m1329 -68 c-6 -97 -38 -194 -53 -158 -5 11 0 44 13 85 12 37 25 88 28 114
11 76 17 54 12 -41z m-128 -13 c0 -15 -4 -30 -8 -33 -5 -3 -6 8 -4 24 3 21 -1
32 -12 36 -9 3 -13 10 -10 16 10 16 34 -13 34 -43z m-1117 -72 c6 -15 4 -16
-13 -7 -12 7 -20 21 -20 38 0 25 1 26 13 7 8 -11 17 -28 20 -38z m1097 13 c0
-5 -4 -10 -10 -10 -5 0 -10 5 -10 10 0 6 5 10 10 10 6 0 10 -4 10 -10z m49
-46 c41 -52 25 -74 -55 -74 -83 0 -103 35 -46 80 35 28 76 26 101 -6z m-1144
-70 c-11 -11 -14 -26 -11 -43 5 -22 5 -23 -5 -8 -14 24 -3 67 17 67 14 0 13
-2 -1 -16z m1155 -21 c-24 -10 -53 -13 -95 -9 -33 3 -62 6 -65 7 -4 2 59 8
180 16 8 1 -1 -5 -20 -14z m-145 -32 c3 -5 1 -12 -5 -16 -5 -3 -10 1 -10 9 0
18 6 21 15 7z m142 -13 c-3 -8 -6 -5 -6 6 -1 11 2 17 5 13 3 -3 4 -12 1 -19z
m43 18 c0 -3 -4 -8 -10 -11 -5 -3 -10 -1 -10 4 0 6 5 11 10 11 6 0 10 -2 10
-4z m-150 -16 c0 -5 -4 -10 -10 -10 -5 0 -10 5 -10 10 0 6 5 10 10 10 6 0 10
-4 10 -10z m40 -6 c0 -8 -4 -12 -10 -9 -5 3 -10 10 -10 16 0 5 5 9 10 9 6 0
10 -7 10 -16z m40 6 c0 -5 -4 -10 -10 -10 -5 0 -10 5 -10 10 0 6 5 10 10 10 6
0 10 -4 10 -10z m-1237 -70 c5 -8 -5 1 -22 20 -17 19 -31 38 -31 43 0 9 32
-29 53 -63z m137 50 c0 -5 -4 -10 -10 -10 -5 0 -10 5 -10 10 0 6 5 10 10 10 6
0 10 -4 10 -10z m1110 -16 c0 -12 -42 -75 -47 -70 -10 9 19 76 33 76 8 0 14
-3 14 -6z m-1080 -14 c11 -6 24 -19 30 -30 13 -24 -4 -46 -41 -53 -13 -2 -5
-3 19 -1 23 2 42 0 42 -5 0 -19 -126 -28 -165 -11 -16 7 -12 9 20 11 30 1 33
3 13 6 -37 6 -41 27 -12 63 27 31 60 38 94 20z m1013 -57 c-9 -27 -35 -54 -68
-70 -26 -13 -23 -8 20 36 27 28 50 51 52 51 1 0 0 -8 -4 -17z m-213 -156 c5
-43 16 -93 24 -110 20 -45 14 -89 -26 -187 -28 -68 -35 -75 -95 -88 -32 -7
-65 -20 -73 -29 -13 -15 -13 -16 1 -5 16 12 119 30 109 19 -3 -2 -41 -32 -86
-65 l-81 -59 -10 28 c-11 29 -45 40 -58 19 -4 -6 -15 -5 -30 2 -32 14 -52 -2
-61 -48 -3 -19 -9 -34 -12 -34 -13 0 -82 86 -82 102 0 9 -4 20 -10 23 -5 3
-10 13 -10 20 0 15 32 13 95 -6 27 -8 28 -7 12 5 -10 8 -40 17 -66 21 -47 6
-48 7 -58 51 -15 64 -8 129 16 160 18 23 21 41 21 125 l0 98 73 -26 c43 -16
94 -27 128 -27 48 -1 64 4 110 35 30 20 77 57 104 82 l50 45 3 -37 c1 -20 7
-71 12 -114z m-740 87 c0 -8 -5 -12 -10 -9 -6 4 -8 11 -5 16 9 14 15 11 15 -7z
m-180 -4 c0 -5 -4 -10 -10 -10 -5 0 -10 5 -10 10 0 6 5 10 10 10 6 0 10 -4 10
-10z m150 0 c0 -5 -4 -10 -10 -10 -5 0 -10 5 -10 10 0 6 5 10 10 10 6 0 10 -4
10 -10z m-110 -10 c0 -5 -4 -10 -10 -10 -5 0 -10 5 -10 10 0 6 5 10 10 10 6 0
10 -4 10 -10z m38 -1 c-2 -6 -8 -10 -13 -10 -5 0 -11 4 -13 10 -2 6 4 11 13
11 9 0 15 -5 13 -11z m37 1 c3 -5 -1 -10 -9 -10 -9 0 -16 5 -16 10 0 6 4 10 9
10 6 0 13 -4 16 -10z m969 -4 c-17 -43 -134 -90 -141 -56 -3 12 61 43 144 69
1 1 0 -5 -3 -13z m-1075 -155 c27 -37 11 -42 -18 -6 -25 33 -35 76 -25 118 8
30 8 29 15 -24 3 -34 15 -70 28 -88z m979 17 c-6 -18 -28 -21 -28 -4 0 9 7 16
16 16 9 0 14 -5 12 -12z m-733 -37 c3 -6 -4 -15 -15 -21 -20 -11 -21 -10 -10
9 12 23 16 25 25 12z m152 -26 c-18 -17 -27 -19 -27 -6 0 16 34 45 38 32 2 -6
-3 -18 -11 -26z m611 18 c2 -8 -6 -13 -22 -13 -25 0 -33 10 -19 24 10 10 36 3
41 -11z m-3 -53 c0 -9 -7 -14 -20 -12 -26 5 -29 8 -20 22 10 16 40 8 40 -10z
m35 -6 c0 -8 -4 -12 -10 -9 -5 3 -10 10 -10 16 0 5 5 9 10 9 6 0 10 -7 10 -16z
m-660 -4 c0 -5 -7 -10 -16 -10 -8 0 -12 5 -9 10 3 6 10 10 16 10 5 0 9 -4 9
-10z m710 -20 c12 -7 12 -12 2 -22 -10 -10 -15 -10 -22 2 -12 18 -13 30 -2 30
4 0 14 -5 22 -10z m-1140 -60 c-7 -52 -7 -53 -9 -13 -1 36 7 80 14 71 1 -2 -1
-28 -5 -58z m1048 43 c5 -17 -26 -29 -40 -15 -6 6 -7 15 -3 22 9 14 37 9 43
-7z m50 -11 c3 -17 -2 -22 -17 -22 -14 0 -21 6 -21 18 0 38 33 41 38 4z m96 7
c-27 -30 -74 -62 -74 -51 0 9 78 72 89 72 2 0 -4 -9 -15 -21z m-776 -7 c2 -7
-6 -12 -17 -12 -21 0 -27 11 -14 24 9 9 26 2 31 -12z m-288 4 c0 -3 -4 -8 -10
-11 -5 -3 -10 -1 -10 4 0 6 5 11 10 11 6 0 10 -2 10 -4z m220 -21 c-7 -9 -15
-13 -19 -10 -3 3 1 10 9 15 21 14 24 12 10 -5z m678 -28 c2 -12 -3 -17 -17
-17 -12 0 -21 6 -21 13 0 31 32 34 38 4z m-610 -5 c2 -7 -6 -12 -17 -12 -21 0
-27 11 -14 24 9 9 26 2 31 -12z m680 -18 c2 -17 -2 -21 -23 -21 -31 0 -41 13
-24 33 17 20 43 13 47 -12z m-88 -29 c0 -19 -13 -25 -29 -15 -19 11 -6 41 14
34 8 -3 15 -12 15 -19z m-590 1 c0 -14 -29 -31 -38 -22 -2 3 -2 12 1 21 8 19
37 20 37 1z m680 -36 c0 -26 -13 -36 -40 -32 -33 5 -38 22 -14 46 12 12 20 13
35 6 10 -6 19 -15 19 -20z m778 15 c22 -6 21 -8 -21 -55 -83 -92 -143 -238
-191 -468 -29 -137 -69 -425 -86 -617 -6 -71 -12 -130 -13 -131 -1 0 -17 3
-36 8 l-33 9 7 92 c33 448 130 904 227 1067 32 53 90 111 108 106 8 -3 25 -7
38 -11z m-899 -19 c14 -17 0 -29 -23 -20 -17 7 -20 16 -9 27 10 11 19 8 32 -7z
m-549 -11 c0 -8 -9 -15 -20 -15 -11 0 -20 7 -20 15 0 8 9 15 20 15 11 0 20 -7
20 -15z m1492 -6 c-46 -17 -120 -147 -171 -298 -60 -179 -124 -559 -138 -823
-5 -93 -9 -118 -20 -118 -11 0 -13 9 -9 38 3 20 8 78 11 127 23 320 99 715
171 888 46 109 138 218 168 200 5 -4 0 -10 -12 -14z m-1556 -36 c-11 -11 -19
6 -11 24 8 17 8 17 12 0 3 -10 2 -21 -1 -24z m81 1 c5 -15 -28 -27 -40 -15 -5
5 -6 14 -2 21 8 13 37 9 42 -6z m511 -1 c-2 -10 -10 -18 -18 -18 -8 0 -16 8
-18 18 -2 12 3 17 18 17 15 0 20 -5 18 -17z m125 -14 c17 -26 2 -47 -28 -41
-32 6 -42 26 -25 48 16 18 39 15 53 -7z m-708 -34 c0 -13 -8 -21 -22 -23 -17
-3 -23 2 -23 16 0 10 3 22 7 26 13 13 38 1 38 -19z m552 9 c3 -8 1 -20 -6 -27
-14 -14 -47 15 -37 32 10 16 36 13 43 -5z m-463 -3 c9 -15 -23 -36 -36 -23 -5
5 -7 15 -4 21 9 13 33 14 40 2z m1503 -78 c-2 -16 -4 -3 -4 27 0 30 2 43 4 28
2 -16 2 -40 0 -55z m-1543 22 c9 -19 40 -57 68 -85 28 -28 49 -52 46 -55 -2
-2 -34 15 -70 40 -51 34 -67 50 -72 76 -13 68 1 81 28 24z m1514 -27 c-3 -21
-5 -21 -21 9 -16 30 -16 33 1 42 13 8 18 6 20 -10 2 -10 2 -29 0 -41z m-1300
20 c3 -22 0 -26 -17 -21 -12 3 -21 13 -21 22 0 40 33 39 38 -1z m66 16 c10
-26 7 -31 -19 -36 -19 -4 -25 -1 -25 11 0 17 18 41 31 41 4 0 10 -7 13 -16z
m101 -9 c-38 -32 -65 -48 -65 -38 1 10 71 62 85 63 6 0 -3 -11 -20 -25z m80
15 c4 -6 1 -17 -5 -26 -15 -18 -42 0 -33 22 6 16 29 19 38 4z m190 -25 c0 -26
-3 -30 -25 -27 -35 4 -44 16 -30 42 18 33 55 23 55 -15z m-585 10 c0 -16 -27
-32 -37 -22 -3 4 -3 13 0 22 8 20 37 20 37 0z m-190 -5 c0 -5 -5 -10 -11 -10
-5 0 -7 5 -4 10 3 6 8 10 11 10 2 0 4 -4 4 -10z m75 -10 c9 -27 -1 -40 -30
-40 -29 0 -39 13 -30 40 4 13 15 20 30 20 15 0 26 -7 30 -20z m462 -11 c14
-14 6 -39 -12 -39 -18 0 -28 17 -21 35 6 18 18 19 33 4z m-311 -10 c3 -6 -1
-18 -10 -27 -15 -15 -18 -15 -26 -2 -5 9 -5 19 2 27 13 16 25 17 34 2z m104
-18 c5 -11 10 -47 10 -80 0 -58 -1 -61 -25 -61 -17 0 -26 -6 -29 -22 -21 -101
-55 -293 -52 -296 3 -2 12 32 21 75 9 43 23 104 31 136 8 32 14 67 14 78 0 26
19 24 29 -3 4 -13 5 -188 2 -390 -6 -351 -7 -368 -27 -395 -11 -15 -35 -37
-53 -48 -18 -11 -75 -51 -127 -89 -76 -55 -98 -66 -105 -55 -23 36 -41 125
-37 186 4 60 7 68 39 94 18 16 39 29 46 29 23 0 55 123 84 325 6 44 18 91 26
105 l14 25 -5 -24 c-3 -13 -1 -20 3 -15 14 15 75 256 75 296 0 20 3 35 7 32 3
-2 12 23 19 56 13 63 23 73 40 41z m83 -42 c11 -81 78 -372 89 -389 7 -12 8
-11 4 5 -21 83 -56 239 -55 248 3 34 74 -269 94 -400 35 -221 36 -224 95 -261
l50 -31 0 -69 c0 -71 -19 -153 -43 -186 -14 -18 -17 -17 -76 28 -33 26 -87 62
-119 79 -44 25 -62 43 -80 77 -23 45 -23 45 -18 405 3 198 5 395 5 437 -1 122
39 163 54 57z m494 29 c-3 -8 -6 -5 -6 6 -1 11 2 17 5 13 3 -3 4 -12 1 -19z
m-651 -23 c-3 -8 -10 -15 -16 -15 -14 0 -12 37 3 43 15 5 21 -8 13 -28z m234
20 c13 -16 6 -35 -15 -35 -18 0 -28 17 -21 35 7 19 20 19 36 0z m268 6 c8 -4
12 -19 10 -32 -2 -19 -8 -23 -28 -21 -34 4 -44 16 -31 41 12 22 28 26 49 12z
m-873 -11 c3 -5 2 -10 -4 -10 -5 0 -13 5 -16 10 -3 6 -2 10 4 10 5 0 13 -4 16
-10z m1772 -22 c-3 -7 -5 -2 -5 12 0 14 2 19 5 13 2 -7 2 -19 0 -25z m-1581
-4 c8 -31 -6 -47 -37 -42 -43 6 -38 68 5 68 19 0 27 -7 32 -26z m150 -72 c-5
-5 -136 85 -136 94 0 2 32 -17 70 -42 39 -26 68 -49 66 -52z m671 46 c-3 -8
-6 -5 -6 6 -1 11 2 17 5 13 3 -3 4 -12 1 -19z m-460 -30 c-3 -8 -6 -5 -6 6 -1
11 2 17 5 13 3 -3 4 -12 1 -19z m311 13 c8 -4 12 -19 10 -32 -2 -19 -9 -24
-33 -24 -33 0 -45 25 -25 50 14 17 29 19 48 6z m-673 -32 c4 -5 4 -21 1 -35
-5 -20 -12 -25 -34 -22 -27 3 -39 25 -28 54 6 16 52 19 61 3z m812 -11 c-3 -8
-6 -5 -6 6 -1 11 2 17 5 13 3 -3 4 -12 1 -19z m-440 -20 c-3 -7 -5 -2 -5 12 0
14 2 19 5 13 2 -7 2 -19 0 -25z m299 -40 c4 -13 0 -26 -11 -37 -10 -9 -15 -11
-12 -5 4 7 -2 9 -18 6 -21 -4 -25 -1 -25 21 0 46 52 57 66 15z m-671 -43 c0
-27 -3 -30 -30 -30 -21 0 -31 5 -33 18 -6 33 6 49 35 45 24 -3 28 -8 28 -33z
m162 13 c-3 -8 -6 -5 -6 6 -1 11 2 17 5 13 3 -3 4 -12 1 -19z m-397 -28 c0 -5
-5 -10 -11 -10 -5 0 -7 5 -4 10 3 6 8 10 11 10 2 0 4 -4 4 -10z m354 -22 c-7
-33 -67 -97 -92 -98 -9 0 -9 8 3 35 10 25 11 34 2 29 -20 -12 -2 5 39 36 50
38 57 37 48 -2z m33 10 c-3 -8 -6 -5 -6 6 -1 11 2 17 5 13 3 -3 4 -12 1 -19z
m502 -5 c10 -19 -2 -53 -20 -53 -6 0 -8 4 -5 9 4 5 -3 7 -14 4 -24 -6 -37 21
-20 42 17 20 47 19 59 -2z m-655 -35 c21 -29 5 -55 -31 -54 -33 1 -43 34 -18
60 22 21 31 20 49 -6z m143 0 c-3 -8 -6 -5 -6 6 -1 11 2 17 5 13 3 -3 4 -12 1
-19z m-67 -63 c-18 -19 -36 -32 -39 -30 -6 7 50 65 63 65 5 0 -5 -16 -24 -35z
m560 20 c6 -8 9 -23 5 -35 -5 -16 -12 -19 -33 -14 -48 12 -53 22 -26 48 19 20
38 20 54 1z m-513 -27 c-3 -8 -6 -5 -6 6 -1 11 2 17 5 13 3 -3 4 -12 1 -19z
m-195 -37 c-4 -35 -13 -48 -98 -122 -52 -46 -94 -85 -94 -87 0 -5 24 14 126
100 37 32 70 55 73 52 3 -3 -17 -24 -44 -47 -28 -23 -73 -63 -101 -89 -28 -27
-53 -48 -55 -48 -2 0 -5 14 -6 31 -2 23 7 43 35 77 20 25 31 42 23 38 -37 -23
11 28 74 78 39 30 70 55 70 56 0 0 -1 -18 -3 -39z m84 4 c8 -31 -12 -57 -40
-53 -13 2 -22 12 -24 26 -5 36 5 52 32 52 19 0 27 -7 32 -25z m604 -20 c20
-25 8 -50 -25 -50 -21 0 -31 5 -33 18 -4 21 14 47 33 47 7 0 18 -7 25 -15z
m-1030 -41 c0 -8 -5 -12 -10 -9 -6 4 -8 11 -5 16 9 14 15 11 15 -7z m130 -14
c0 -5 -4 -10 -10 -10 -5 0 -10 5 -10 10 0 6 5 10 10 10 6 0 10 -4 10 -10z
m310 -36 c0 -34 -48 -54 -67 -28 -18 25 -16 41 9 58 28 20 58 4 58 -30z m568
14 c29 -29 3 -72 -35 -57 -27 10 -30 44 -5 58 22 13 26 13 40 -1z m-570 -80
c28 -28 -6 -78 -44 -64 -28 11 -10 76 21 76 6 0 16 -5 23 -12z m557 -33 c0
-27 -3 -30 -30 -30 -21 0 -31 5 -33 18 -6 33 6 49 35 45 24 -3 28 -8 28 -33z
m-559 -77 c-8 -38 -11 -42 -31 -35 -30 12 -11 67 23 67 11 0 13 -8 8 -32z
m532 20 c16 -16 15 -43 -1 -57 -19 -15 -37 5 -37 41 0 30 17 37 38 16z m-1013
-45 c-10 -14 -26 -41 -37 -60 -22 -37 -35 -46 -17 -10 19 35 61 97 66 97 3 0
-3 -12 -12 -27z m120 -23 c-3 -5 -19 -10 -36 -10 -16 0 -29 5 -29 10 0 6 16
10 36 10 21 0 33 -4 29 -10z m5 -30 c-8 -5 -24 -10 -35 -10 -11 0 -27 5 -35
10 -11 7 -1 10 35 10 36 0 46 -3 35 -10z m337 -12 c-3 -8 -6 -5 -6 6 -1 11 2
17 5 13 3 -3 4 -12 1 -19z m-354 -15 c-13 -2 -33 -2 -45 0 -13 2 -3 4 22 4 25
0 35 -2 23 -4z m-100 -36 c-27 -29 -65 -96 -59 -106 3 -4 1 -13 -4 -21 -7 -12
-9 -10 -8 5 0 11 -1 25 -3 32 -4 13 81 126 89 118 3 -3 -4 -15 -15 -28z m1086
-5 c47 -88 -6 -317 -85 -368 -23 -16 -26 -15 -44 1 -14 12 -20 30 -19 54 l2
36 6 -40 c4 -28 12 -41 24 -43 27 -5 51 21 83 91 22 49 29 81 32 153 4 83 2
94 -17 113 -15 15 -17 21 -6 21 8 0 19 -8 24 -18z m-721 -23 c-20 -27 -23 -43
-23 -122 0 -105 14 -154 57 -203 34 -38 40 -40 62 -18 9 8 16 12 16 7 0 -15
-23 -33 -41 -33 -22 0 -67 47 -85 88 -24 59 -35 154 -24 213 11 55 33 99 51
99 5 0 -1 -14 -13 -31z m-683 -4 c33 -9 89 -31 125 -49 60 -31 65 -35 63 -64
-2 -17 -7 -42 -13 -56 l-10 -26 -60 30 c-88 44 -179 63 -278 57 -73 -4 -82 -3
-78 12 33 115 24 107 131 110 34 0 88 -6 120 -14z m1480 -113 c0 -77 -5 -109
-23 -153 -21 -53 -73 -119 -94 -119 -5 0 4 13 20 29 72 73 115 249 81 338 -8
23 -8 26 3 15 9 -9 13 -43 13 -110z m936 107 c56 -19 69 -36 69 -91 0 -26 -1
-48 -2 -48 -2 0 -25 7 -52 15 -95 29 -247 14 -345 -34 l-39 -18 -6 40 c-4 22
-3 44 2 49 6 6 38 20 73 33 35 13 59 24 52 24 -7 1 -37 -8 -68 -20 -58 -22
-85 -20 -43 2 12 7 55 23 93 35 79 26 209 32 266 13z m-1818 -36 c-11 -28 -14
-60 -11 -123 5 -98 30 -165 79 -211 17 -16 26 -29 20 -29 -38 0 -95 98 -112
193 -13 69 -2 165 22 193 18 22 19 16 2 -23z m855 -82 c-5 -98 -43 -201 -74
-201 -10 0 -14 -3 -11 -7 10 -9 -13 -33 -31 -33 -12 0 -9 7 11 28 51 53 81
138 85 241 3 69 7 89 14 76 6 -9 8 -56 6 -104z m-823 2 c0 -119 19 -180 72
-235 18 -19 22 -28 12 -28 -22 0 -67 53 -91 107 -26 58 -31 180 -9 231 7 17
14 32 15 32 0 0 1 -48 1 -107z m1149 -38 c45 -14 153 -41 239 -60 164 -36 208
-51 260 -87 l32 -22 -25 28 c-31 34 -84 62 -150 79 -28 7 -52 17 -53 23 -1 5
30 20 68 32 74 25 207 32 270 14 27 -8 31 -14 38 -63 4 -30 9 -117 10 -194 2
-154 -13 -229 -60 -317 -41 -76 -88 -83 -233 -36 -141 45 -363 165 -657 354
l-82 53 31 68 c25 53 33 84 36 149 l4 81 94 -38 c52 -21 132 -50 178 -64z
m-1228 44 c-9 -54 10 -152 39 -211 28 -55 38 -42 -120 -150 -352 -239 -623
-352 -702 -290 -34 25 -65 124 -70 223 -6 92 8 182 50 324 22 74 27 81 57 89
47 14 178 -8 251 -40 33 -15 57 -29 55 -31 -2 -3 -39 -14 -82 -24 -92 -24
-160 -57 -194 -95 l-25 -27 45 30 c58 38 80 46 229 83 104 25 381 122 431 151
34 19 43 11 36 -32z m-324 -51 c-19 -19 -29 -4 -19 32 l10 35 9 -28 c7 -19 7
-32 0 -39z m575 -130 c-3 -7 -5 -2 -5 12 0 14 2 19 5 13 2 -7 2 -19 0 -25z
m614 -254 c-33 -76 -59 -139 -57 -141 3 -3 22 37 90 187 l24 55 1 -66 c1 -61
-4 -78 -70 -225 -199 -447 -271 -601 -512 -1087 l-261 -527 -38 0 c-21 0 -38
2 -38 4 0 2 20 41 45 86 151 271 694 1394 681 1407 -2 2 -28 -52 -59 -119
-200 -444 -668 -1378 -690 -1378 -11 0 -37 -55 239 495 133 264 321 651 417
860 248 539 277 599 283 593 3 -3 -22 -68 -55 -144z m18 -201 c-144 -340 -394
-867 -607 -1278 -181 -350 -170 -330 -176 -324 -3 2 98 209 223 459 219 438
335 684 513 1086 46 103 84 180 86 172 2 -9 -16 -61 -39 -115z m515 56 c27
-13 30 -24 41 -159 3 -36 16 -182 30 -325 14 -143 28 -285 30 -315 3 -30 12
-111 20 -180 18 -156 19 -147 -4 -153 -17 -4 -20 5 -31 97 -7 55 -29 240 -50
411 -21 171 -44 371 -50 445 -6 74 -13 147 -15 163 -5 31 -5 31 29 16z m-1424
-13 c0 -2 -8 -10 -17 -17 -16 -13 -17 -12 -4 4 13 16 21 21 21 13z m1488 -57
c10 -126 57 -611 78 -796 27 -252 27 -253 15 -253 -11 0 -13 18 -65 545 -53
537 -54 546 -41 542 5 -2 11 -19 13 -38z m-550 -191 c-21 -13 -88 -32 -94 -26
-3 4 19 61 48 127 l53 122 3 -107 c2 -79 -1 -110 -10 -116z m676 178 c32 -13
34 -17 41 -82 3 -38 22 -199 41 -359 36 -303 124 -1098 124 -1122 0 -9 -16
-13 -54 -13 l-54 0 -6 48 c-3 26 -8 76 -11 112 -12 143 -48 510 -75 770 -33
303 -60 590 -60 633 0 31 7 33 54 13z m-1754 -6 c0 -5 -4 -10 -10 -10 -5 0
-10 5 -10 10 0 6 5 10 10 10 6 0 10 -4 10 -10z m0 -48 c0 -13 -12 -22 -22 -16
-10 6 -1 24 13 24 5 0 9 -4 9 -8z m411 -49 c-5 -10 -17 -27 -26 -38 -16 -19
-17 -19 -3 5 26 46 29 50 34 50 3 0 0 -8 -5 -17z m-413 -15 c-6 -18 -28 -21
-28 -4 0 9 7 16 16 16 9 0 14 -5 12 -12z m-8 -48 c0 -5 -4 -10 -10 -10 -5 0
-10 5 -10 10 0 6 5 10 10 10 6 0 10 -4 10 -10z m-60 -13 c0 -2 -17 -19 -37
-38 l-38 -34 34 38 c33 34 41 42 41 34z m62 -39 c-9 -9 -15 -9 -24 0 -10 10
-10 15 2 22 20 12 38 -6 22 -22z m329 -25 c-5 -10 -17 -27 -26 -38 -16 -19
-17 -19 -3 5 26 46 29 50 34 50 3 0 0 -8 -5 -17z m-323 -11 c2 -7 -6 -12 -17
-12 -21 0 -27 11 -14 24 9 9 26 2 31 -12z m1129 -129 c-2 -27 -3 -5 -3 47 0
52 1 74 3 48 2 -27 2 -69 0 -95z m-1277 124 c0 -2 -17 -19 -37 -38 l-38 -34
34 38 c33 34 41 42 41 34z m143 -24 c-7 -2 -19 -2 -25 0 -7 3 -2 5 12 5 14 0
19 -2 13 -5z m22 -29 c12 -12 13 -19 4 -30 -19 -23 -89 -15 -89 10 0 35 56 48
85 20z m225 -54 c-12 -16 -24 -30 -26 -30 -3 0 4 14 16 30 12 17 24 30 26 30
3 0 -4 -13 -16 -30z m-225 -5 c6 -2 -11 -4 -37 -4 -27 -1 -48 3 -48 7 0 7 62
5 85 -3z m-17 -26 c24 -1 37 -8 49 -26 22 -34 21 -80 -3 -98 -26 -20 -32 -19
-29 8 1 12 0 14 -2 5 -2 -9 -11 -22 -19 -29 -20 -17 -61 3 -67 33 -3 17 -4 15
-2 -4 2 -33 -11 -37 -20 -7 -6 17 -9 19 -16 8 -6 -9 -9 -1 -9 24 0 51 32 98
63 91 12 -3 37 -5 55 -5z m1139 -216 c-2 -21 -4 -6 -4 32 0 39 2 55 4 38 2
-18 2 -50 0 -70z m-1247 67 c0 -5 -5 -10 -11 -10 -5 0 -7 5 -4 10 3 6 8 10 11
10 2 0 4 -4 4 -10z m170 -6 c0 -8 -5 -12 -10 -9 -6 4 -8 11 -5 16 9 14 15 11
15 -7z m-143 -16 c-3 -8 -6 -5 -6 6 -1 11 2 17 5 13 3 -3 4 -12 1 -19z m113
12 c0 -13 -66 -24 -87 -14 -14 6 -7 9 27 14 25 4 48 8 53 8 4 1 7 -2 7 -8z
m-144 -57 c-11 -11 -17 4 -9 23 7 18 8 18 11 1 2 -10 1 -21 -2 -24z m34 1 c0
-14 -4 -23 -9 -20 -5 3 -7 15 -4 26 7 28 13 25 13 -6z m60 11 c0 -8 -4 -15
-10 -15 -5 0 -10 7 -10 15 0 8 5 15 10 15 6 0 10 -7 10 -15z m47 -17 c-3 -7
-5 -2 -5 12 0 14 2 19 5 13 2 -7 2 -19 0 -25z m30 10 c-3 -8 -6 -5 -6 6 -1 11
2 17 5 13 3 -3 4 -12 1 -19z m-47 -16 c0 -15 -2 -15 -10 -2 -13 20 -13 33 0
25 6 -3 10 -14 10 -23z m-130 -20 c0 -13 -12 -22 -22 -16 -10 6 -1 24 13 24 5
0 9 -4 9 -8z m200 -8 c0 -10 -6 -14 -15 -11 -8 4 -17 2 -20 -3 -6 -10 -45 -9
-45 1 0 10 30 20 40 14 5 -3 11 -1 15 5 10 16 25 12 25 -6z m-160 -9 c0 -8 -7
-15 -15 -15 -16 0 -20 12 -8 23 11 12 23 8 23 -8z m67 -11 c5 -15 -20 -24 -37
-14 -7 4 -9 13 -5 19 8 14 37 11 42 -5z m-132 -51 l-5 -38 15 40 c12 34 14 35
11 10 -3 -16 -7 -59 -10 -95 -5 -62 -5 -61 9 19 15 84 24 111 26 75 0 -18 1
-18 10 1 6 14 8 -9 5 -70 l-4 -90 13 80 c7 44 14 81 14 83 1 1 9 2 20 2 14 0
20 -10 25 -37 10 -64 7 -353 -4 -353 -5 0 -11 17 -11 38 l-2 37 -6 -34 c-3
-19 -12 -36 -18 -39 -10 -3 -13 18 -15 80 l-1 83 -6 -77 c-8 -84 -20 -114 -22
-52 -1 27 -3 31 -6 14 -3 -14 -9 -29 -15 -35 -6 -7 -8 16 -5 70 l6 80 -11 -72
c-13 -92 -30 -96 -24 -5 l5 67 -10 -55 c-5 -30 -14 -59 -21 -65 -7 -7 -9 -3
-5 15 3 14 8 52 11 85 l5 60 -13 -68 c-13 -68 -33 -111 -22 -47 4 19 13 80 22
135 18 120 34 195 40 195 3 0 2 -17 -1 -37z m244 -139 c23 -179 24 -190 14
-180 -4 4 -10 28 -15 54 -6 42 -7 41 -3 -15 2 -35 -1 -63 -5 -63 -9 0 -16 51
-26 190 -4 52 -9 90 -11 85 -2 -6 1 -71 6 -145 8 -122 3 -166 -15 -147 -4 3
-10 32 -14 64 l-7 58 -3 -70 c-2 -55 -4 -64 -10 -40 -11 44 -12 381 -1 370 5
-6 11 -26 14 -45 l4 -35 3 40 3 40 7 -40 7 -40 3 40 c2 40 2 40 11 10 8 -29 8
-28 6 7 -2 21 0 35 4 30 4 -4 17 -80 28 -168z m1074 91 c12 -3 83 -7 157 -8
124 -3 123 -3 -22 -3 l-157 1 -4 -35 c-2 -19 -4 1 -4 45 0 44 2 63 4 43 3 -29
9 -39 26 -43z m400 8 c-7 -2 -19 -2 -25 0 -7 3 -2 5 12 5 14 0 19 -2 13 -5z
m-50 -10 c-7 -2 -21 -2 -30 0 -10 3 -4 5 12 5 17 0 24 -2 18 -5z m94 -29 c-3
-3 -12 -4 -19 -1 -8 3 -5 6 6 6 11 1 17 -2 13 -5z m-54 -11 c-7 -2 -19 -2 -25
0 -7 3 -2 5 12 5 14 0 19 -2 13 -5z m-55 -10 c-10 -2 -26 -2 -35 0 -10 3 -2 5
17 5 19 0 27 -2 18 -5z m-125 -10 c-34 -2 -93 -2 -130 0 -37 2 -9 3 62 3 72 0
102 -1 68 -3z m-226 -155 c-2 -18 -4 -4 -4 32 0 36 2 50 4 33 2 -18 2 -48 0
-65z m-1419 -80 c-13 -18 -44 -59 -67 -90 -24 -32 -46 -58 -48 -58 -3 0 6 15
19 33 13 17 44 58 67 90 24 31 46 57 48 57 3 0 -6 -15 -19 -32z m1997 -80 c4
-42 3 -68 -3 -68 -14 0 -22 37 -22 105 1 77 15 54 25 -37z m-45 -18 c0 -52 -3
-70 -10 -60 -5 8 -10 49 -10 90 0 52 3 70 10 60 5 -8 10 -49 10 -90z m-40 5
c0 -50 -4 -85 -10 -85 -6 0 -10 35 -10 85 0 50 4 85 10 85 6 0 10 -35 10 -85z
m-36 53 c12 -48 -4 -148 -24 -148 -13 0 -30 67 -30 118 0 50 19 49 21 -1 1
-18 5 -43 10 -57 6 -17 7 -4 4 43 -4 65 6 90 19 45z m-65 -103 c1 -56 -18 -84
-20 -30 -1 22 -2 60 -3 85 -1 25 1 50 4 55 6 13 19 -58 19 -110z m-359 19 c0
-54 -4 -83 -10 -79 -5 3 -10 42 -10 86 0 46 4 79 10 79 6 0 10 -35 10 -86z
m289 21 c1 -16 5 -36 10 -44 6 -9 7 8 4 47 -4 43 -2 62 6 62 12 0 15 -86 5
-139 -9 -43 -20 -39 -33 13 -13 54 -14 142 -1 111 5 -11 9 -33 9 -50z m-250
-45 c1 -45 -2 -60 -9 -50 -5 8 -9 47 -9 85 0 48 3 64 9 50 5 -11 9 -49 9 -85z
m31 73 c0 -16 3 -53 6 -83 5 -42 4 -52 -5 -44 -17 15 -28 154 -12 154 6 0 11
-12 11 -27z m41 -36 l6 -52 2 52 c0 28 6 55 12 59 15 9 7 -142 -8 -157 -13
-13 -33 62 -33 122 0 56 13 41 21 -24z m68 -17 c0 -30 -4 -64 -8 -75 -12 -31
-23 44 -15 105 9 66 24 46 23 -30z m41 -13 c0 -57 -3 -77 -10 -67 -13 20 -13
163 0 155 6 -3 10 -43 10 -88z m34 56 c9 -56 7 -129 -3 -117 -12 13 -23 154
-12 154 4 0 11 -17 15 -37z m-277 -315 c-3 -7 -5 -2 -5 12 0 14 2 19 5 13 2
-7 2 -19 0 -25z m10 -65 c-3 -10 -5 -4 -5 12 0 17 2 24 5 18 2 -7 2 -21 0 -30z"/>
<path d="M835 5059 c-4 -6 -5 -12 -2 -15 2 -3 7 2 10 11 7 17 1 20 -8 4z"/>
<path d="M1306 5152 c41 -27 35 -96 -10 -108 -40 -10 -60 -1 -78 36 -10 19
-18 28 -18 19 0 -33 40 -69 75 -69 43 0 79 41 70 80 -8 30 -23 50 -39 50 -8 0
-8 -2 0 -8z"/>
<path d="M1307 4753 c-14 -13 -6 -53 12 -62 28 -16 56 9 47 42 -5 20 -13 27
-30 27 -12 0 -26 -3 -29 -7z m38 -31 c0 -18 -20 -15 -23 4 -3 10 1 15 10 12 7
-3 13 -10 13 -16z"/>
<path d="M1019 4666 c-51 -18 -91 -49 -113 -86 l-18 -32 46 27 c55 32 135 55
196 55 25 0 52 5 60 10 13 9 12 12 -4 25 -24 19 -117 19 -167 1z"/>
<path d="M1593 4620 c-46 -27 -41 -34 5 -8 46 27 48 28 36 28 -5 0 -24 -9 -41
-20z"/>
<path d="M1695 4630 c-92 -13 -139 -52 -151 -123 l-5 -32 21 38 c11 20 21 37
23 37 1 0 1 -21 -1 -47 -3 -37 1 -53 17 -69 11 -12 17 -25 13 -29 -13 -14 97
4 125 20 15 9 20 14 10 11 -15 -5 -16 -2 -7 14 21 38 1 120 -32 133 -8 3 -6 6
5 6 28 1 75 -27 82 -49 3 -11 3 -29 0 -40 -11 -34 4 -22 19 15 9 20 16 39 16
43 1 4 6 13 12 20 8 9 6 12 -6 12 -9 0 -16 5 -16 10 0 6 -7 10 -16 10 -8 0
-13 4 -10 9 4 5 -3 7 -14 4 -11 -3 -20 0 -20 6 0 6 -3 10 -7 10 -5 -1 -31 -5
-58 -9z m-55 -89 c0 -11 -5 -23 -11 -27 -15 -9 -33 12 -26 30 9 23 37 20 37
-3z"/>
<path d="M1022 4501 c-29 -9 -50 -20 -46 -24 4 -4 -1 -9 -10 -13 -9 -3 -13
-10 -10 -15 3 -5 -3 -9 -13 -9 -14 0 -15 -2 -4 -9 11 -7 10 -11 -5 -20 -11 -6
-14 -11 -7 -11 7 0 26 -15 43 -32 l31 -33 -7 28 c-10 42 3 73 40 96 42 26 52
27 26 1 -27 -27 -27 -89 0 -123 15 -18 17 -27 8 -30 -26 -11 60 -7 90 4 48 16
65 79 36 134 l-15 30 25 -24 c29 -28 34 -22 10 14 -17 26 -81 56 -117 54 -12
-1 -46 -9 -75 -18z m86 -64 c4 -21 -25 -34 -40 -19 -8 8 -8 16 2 27 16 19 34
15 38 -8z m72 -71 c0 -3 -4 -8 -10 -11 -5 -3 -10 -1 -10 4 0 6 5 11 10 11 6 0
10 -2 10 -4z"/>
<path d="M1450 4230 c0 -5 7 -7 15 -4 8 4 15 8 15 10 0 2 -7 4 -15 4 -8 0 -15
-4 -15 -10z"/>
<path d="M1370 4220 c0 -5 7 -10 16 -10 8 0 12 5 9 10 -3 6 -10 10 -16 10 -5
0 -9 -4 -9 -10z"/>
<path d="M1595 4160 c-3 -5 -30 -10 -58 -10 -59 -1 -161 -21 -194 -38 -12 -7
-34 -12 -49 -12 l-28 0 34 -30 c104 -89 220 -73 289 40 17 27 26 52 21 55 -5
3 -11 1 -15 -5z m-50 -46 c-45 -33 -154 -53 -200 -35 -13 5 12 14 85 28 133
26 140 26 115 7z m-27 -61 c-19 -19 -141 -33 -123 -14 11 11 75 28 115 30 23
1 23 0 8 -16z"/>
<path d="M1448 3963 c7 -3 16 -2 19 1 4 3 -2 6 -13 5 -11 0 -14 -3 -6 -6z"/>
<path d="M1465 3083 c11 -9 22 -48 56 -215 12 -60 24 -106 27 -103 2 2 -5 53
-17 112 -12 59 -25 130 -29 158 -6 39 -12 51 -27 53 -12 2 -16 0 -10 -5z"/>
<path d="M1717 1604 c-37 -74 -33 -83 4 -10 17 32 29 60 27 62 -2 2 -16 -21
-31 -52z"/>
<path d="M721 1174 c0 -11 3 -14 6 -6 3 7 2 16 -1 19 -3 4 -6 -2 -5 -13z"/>
</g>
</svg>
